M48
; DRILL file {KiCad (5.1.0)-1} date 5/23/2019 1:15:47 PM
; FORMAT={-:-/ absolute / inch / decimal}
; #@! TF.CreationDate,2019-05-23T13:15:47+05:30
; #@! TF.GenerationSoftware,Kicad,Pcbnew,(5.1.0)-1
FMAT,2
INCH
T1C0.0079
T2C0.0118
T3C0.0157
T4C0.0197
T5C0.0236
T6C0.0315
T7C0.0374
T8C0.0394
%
G90
G05
T1
X5.5397Y-2.7567
X5.5397Y-2.8109
X5.5397Y-2.865
X5.5397Y-2.9191
X5.5397Y-2.9733
X5.5939Y-2.7567
X5.5939Y-2.8109
X5.5939Y-2.865
X5.5939Y-2.9191
X5.5939Y-2.9733
X5.648Y-2.7567
X5.648Y-2.8109
X5.648Y-2.865
X5.648Y-2.9191
X5.648Y-2.9733
X5.7021Y-2.7567
X5.7021Y-2.8109
X5.7021Y-2.865
X5.7021Y-2.9191
X5.7021Y-2.9733
X5.7563Y-2.7567
X5.7563Y-2.8109
X5.7563Y-2.865
X5.7563Y-2.9191
X5.7563Y-2.9733
T2
X4.751Y-3.2183
X4.762Y-2.683
X4.763Y-3.683
X4.7649Y-3.174
X4.7675Y-2.929
X4.7933Y-2.7345
X4.8105Y-3.7285
X4.8279Y-3.3749
X4.9008Y-3.1274
X4.901Y-3.166
X4.9067Y-3.2965
X4.9231Y-2.462
X5.011Y-2.804
X5.0366Y-3.1933
X5.0485Y-3.0334
X5.131Y-1.99
X5.1352Y-2.5569
X5.1455Y-3.8455
X5.147Y-2.284
X5.1643Y-2.6197
X5.166Y-1.968
X5.1711Y-3.524
X5.193Y-3.72
X5.1944Y-2.5616
X5.2303Y-2.5611
X5.2378Y-1.9066
X5.2785Y-2.869
X5.2807Y-2.6436
X5.281Y-2.208
X5.2844Y-2.1785
X5.2854Y-2.8464
X5.295Y-3.1977
X5.317Y-3.456
X5.3179Y-2.7179
X5.3228Y-3.5478
X5.3236Y-3.2283
X5.327Y-2.6943
X5.3361Y-2.2181
X5.3371Y-3.3799
X5.347Y-2.263
X5.392Y-1.996
X5.3923Y-3.249
X5.399Y-2.206
X5.4094Y-3.6378
X5.4179Y-2.324
X5.446Y-2.193
X5.453Y-2.1518
X5.463Y-2.101
X5.4646Y-3.622
X5.4659Y-2.6313
X5.467Y-2.658
X5.481Y-2.198
X5.483Y-2.335
X5.5003Y-2.2754
X5.507Y-3.0018
X5.507Y-2.037
X5.5075Y-1.9985
X5.5112Y-2.211
X5.5141Y-2.7197
X5.5166Y-2.2372
X5.53Y-2.651
X5.5303Y-2.2567
X5.55Y-2.337
X5.553Y-2.578
X5.5544Y-2.2912
X5.555Y-2.644
X5.569Y-2.036
X5.578Y-2.29
X5.5801Y-2.545
X5.5804Y-2.1344
X5.583Y-1.818
X5.606Y-2.289
X5.6102Y-3.1496
X5.615Y-2.004
X5.6207Y-2.5142
X5.6209Y-1.9167
X5.6216Y-2.2712
X5.628Y-2.3604
X5.6382Y-2.613
X5.645Y-2.265
X5.6451Y-2.2351
X5.6483Y-2.3863
X5.656Y-3.1061
X5.658Y-2.056
X5.6602Y-1.9279
X5.6608Y-2.2167
X5.665Y-2.403
X5.666Y-2.463
X5.6908Y-1.835
X5.696Y-2.004
X5.705Y-1.882
X5.7132Y-2.247
X5.715Y-1.9316
X5.717Y-2.625
X5.7359Y-2.7156
X5.75Y-2.302
X5.7526Y-2.2564
X5.76Y-2.005
X5.7749Y-1.9249
X5.7809Y-2.3439
X5.7892Y-1.836
X5.7951Y-1.9779
X5.809Y-2.2682
X5.8201Y-2.0011
X5.8729Y-2.9353
X5.873Y-2.231
X5.8762Y-2.154
X5.877Y-2.736
X5.8806Y-2.6283
X5.884Y-2.693
X5.8869Y-2.9163
X5.887Y-2.001
X5.894Y-2.795
X5.8959Y-2.1972
X5.9134Y-3.063
X5.9138Y-1.804
X5.916Y-2.781
X5.93Y-2.758
X5.944Y-2.8384
X5.958Y-2.444
X5.969Y-1.861
X5.9802Y-2.1772
X5.995Y-2.104
X6.0186Y-2.1382
X6.0367Y-2.0404
X6.0627Y-2.0274
X6.0871Y-3.0709
X6.088Y-2.7109
X6.1Y-2.9709
X6.1023Y-2.1727
X6.1513Y-2.0573
X6.1575Y-3.0079
X6.1626Y-2.7689
X6.171Y-2.123
X6.354Y-2.065
X6.8714Y-2.5608
X6.8746Y-2.7795
X6.956Y-4.0806
X7.009Y-3.7565
T3
X4.79Y-2.214
X4.8946Y-2.26
X5.0157Y-2.9093
X5.0499Y-2.2571
X5.535Y-1.574
X6.0094Y-2.4163
X6.011Y-1.784
X6.0451Y-2.7912
X6.067Y-3.364
X5.6298Y-1.7353
X5.6455Y-1.7078
X5.6613Y-1.7353
X5.677Y-1.7078
X5.6928Y-1.7353
X5.7085Y-1.7078
X5.7243Y-1.7353
X5.7557Y-1.7353
X5.7715Y-1.7074
X5.7872Y-1.7353
X5.803Y-1.7078
X5.8187Y-1.7353
X5.8345Y-1.7078
X5.8502Y-1.7353
T4
X6.166Y-3.7366
X6.166Y-3.776
X5.826Y-2.3776
X5.826Y-2.417
X5.7316Y-2.515
X5.771Y-2.515
X6.2361Y-1.918
X6.2755Y-1.918
X5.939Y-2.3486
X5.939Y-2.388
X6.0408Y-1.9229
X6.0408Y-1.9623
X5.9236Y-2.495
X5.963Y-2.495
T6
X6.4015Y-2.3388
X6.4015Y-2.4388
X6.4015Y-2.5388
X6.4015Y-2.6388
X6.7015Y-2.3388
X6.7015Y-2.4388
X6.7015Y-2.5388
X6.7015Y-2.6388
X6.4168Y-1.8785
X6.4168Y-2.1785
X6.397Y-2.833
X6.397Y-2.933
X6.397Y-3.033
X6.397Y-3.133
X6.397Y-3.233
X6.397Y-3.333
X6.697Y-2.833
X6.697Y-2.933
X6.697Y-3.033
X6.697Y-3.133
X6.697Y-3.233
X6.697Y-3.333
X6.39Y-3.696
X6.39Y-3.996
X6.49Y-3.696
X6.49Y-3.996
X6.59Y-3.696
X6.59Y-3.996
X6.69Y-3.696
X6.69Y-3.996
X6.79Y-3.696
X6.79Y-3.996
X6.89Y-3.696
X6.89Y-3.996
X6.99Y-3.696
X6.99Y-3.996
X7.09Y-3.696
X7.09Y-3.996
T7
X4.546Y-1.525
X4.6444Y-1.525
X4.7429Y-1.525
X4.577Y-1.822
X4.6754Y-1.822
X4.7739Y-1.822
X6.371Y-1.425
X6.371Y-1.5234
X6.371Y-1.6219
T8
X5.1146Y-2.3814
X5.0699Y-1.8934
X6.3892Y-4.1057
X4.9287Y-2.0108
X7.024Y-3.218
X6.0214Y-1.3886
X4.957Y-1.418
X5.0422Y-3.5052
T5
G00X5.5719Y-1.5156
M15
G01X5.5719Y-1.492
M16
G05
G00X5.5719Y-1.7019
M15
G01X5.5719Y-1.6782
M16
G05
G00X5.9081Y-1.5156
M15
G01X5.9081Y-1.492
M16
G05
G00X5.9081Y-1.7019
M15
G01X5.9081Y-1.6782
M16
G05
T0
M30
