%FSLAX45Y45*%
G04 Gerber Fmt 4.5, Leading zero omitted, Abs format (unit mm)*
G04 Created by KiCad (PCBNEW (5.1.0)-1) date 2019-05-23 13:15:49*
%MOMM*%
%LPD*%
G04 APERTURE LIST*
%ADD10C,0.050000*%
%ADD11C,0.200000*%
%ADD12C,0.300000*%
G04 APERTURE END LIST*
D10*
X18191480Y-3253740D02*
X11158220Y-3271520D01*
X18183860Y-10581640D02*
X18191480Y-3253740D01*
X11163300Y-10556240D02*
X18183860Y-10581640D01*
X11158220Y-3271520D02*
X11163300Y-10556240D01*
D11*
X14060920Y-6992100D02*
X14080920Y-7012100D01*
X14080920Y-6992100D02*
X14060920Y-7012100D01*
X14060920Y-7129600D02*
X14080920Y-7149600D01*
X14080920Y-7129600D02*
X14060920Y-7149600D01*
X14060920Y-7267100D02*
X14080920Y-7287100D01*
X14080920Y-7267100D02*
X14060920Y-7287100D01*
X14060920Y-7404600D02*
X14080920Y-7424600D01*
X14080920Y-7404600D02*
X14060920Y-7424600D01*
X14060920Y-7542100D02*
X14080920Y-7562100D01*
X14080920Y-7542100D02*
X14060920Y-7562100D01*
X14198420Y-6992100D02*
X14218420Y-7012100D01*
X14218420Y-6992100D02*
X14198420Y-7012100D01*
X14198420Y-7129600D02*
X14218420Y-7149600D01*
X14218420Y-7129600D02*
X14198420Y-7149600D01*
X14198420Y-7267100D02*
X14218420Y-7287100D01*
X14218420Y-7267100D02*
X14198420Y-7287100D01*
X14198420Y-7404600D02*
X14218420Y-7424600D01*
X14218420Y-7404600D02*
X14198420Y-7424600D01*
X14198420Y-7542100D02*
X14218420Y-7562100D01*
X14218420Y-7542100D02*
X14198420Y-7562100D01*
X14335920Y-6992100D02*
X14355920Y-7012100D01*
X14355920Y-6992100D02*
X14335920Y-7012100D01*
X14335920Y-7129600D02*
X14355920Y-7149600D01*
X14355920Y-7129600D02*
X14335920Y-7149600D01*
X14335920Y-7267100D02*
X14355920Y-7287100D01*
X14355920Y-7267100D02*
X14335920Y-7287100D01*
X14335920Y-7404600D02*
X14355920Y-7424600D01*
X14355920Y-7404600D02*
X14335920Y-7424600D01*
X14335920Y-7542100D02*
X14355920Y-7562100D01*
X14355920Y-7542100D02*
X14335920Y-7562100D01*
X14473420Y-6992100D02*
X14493420Y-7012100D01*
X14493420Y-6992100D02*
X14473420Y-7012100D01*
X14473420Y-7129600D02*
X14493420Y-7149600D01*
X14493420Y-7129600D02*
X14473420Y-7149600D01*
X14473420Y-7267100D02*
X14493420Y-7287100D01*
X14493420Y-7267100D02*
X14473420Y-7287100D01*
X14473420Y-7404600D02*
X14493420Y-7424600D01*
X14493420Y-7404600D02*
X14473420Y-7424600D01*
X14473420Y-7542100D02*
X14493420Y-7562100D01*
X14493420Y-7542100D02*
X14473420Y-7562100D01*
X14610920Y-6992100D02*
X14630920Y-7012100D01*
X14630920Y-6992100D02*
X14610920Y-7012100D01*
X14610920Y-7129600D02*
X14630920Y-7149600D01*
X14630920Y-7129600D02*
X14610920Y-7149600D01*
X14610920Y-7267100D02*
X14630920Y-7287100D01*
X14630920Y-7267100D02*
X14610920Y-7287100D01*
X14610920Y-7404600D02*
X14630920Y-7424600D01*
X14630920Y-7404600D02*
X14610920Y-7424600D01*
X14610920Y-7542100D02*
X14630920Y-7562100D01*
X14630920Y-7542100D02*
X14610920Y-7562100D01*
X12082540Y-8174482D02*
G75*
G03X12082540Y-8174482I-15000J0D01*
G01*
X12110480Y-6814820D02*
G75*
G03X12110480Y-6814820I-15000J0D01*
G01*
X12113020Y-9354820D02*
G75*
G03X12113020Y-9354820I-15000J0D01*
G01*
X12117865Y-8061960D02*
G75*
G03X12117865Y-8061960I-15000J0D01*
G01*
X12124450Y-7439660D02*
G75*
G03X12124450Y-7439660I-15000J0D01*
G01*
X12189992Y-6945630D02*
G75*
G03X12189992Y-6945630I-15000J0D01*
G01*
X12233670Y-9470390D02*
G75*
G03X12233670Y-9470390I-15000J0D01*
G01*
X12277866Y-8572246D02*
G75*
G03X12277866Y-8572246I-15000J0D01*
G01*
X12463032Y-7943596D02*
G75*
G03X12463032Y-7943596I-15000J0D01*
G01*
X12463540Y-8041640D02*
G75*
G03X12463540Y-8041640I-15000J0D01*
G01*
X12478000Y-8373020D02*
G75*
G03X12478000Y-8373020I-15000J0D01*
G01*
X12519674Y-6253480D02*
G75*
G03X12519674Y-6253480I-15000J0D01*
G01*
X12742940Y-7122160D02*
G75*
G03X12742940Y-7122160I-15000J0D01*
G01*
X12808000Y-8111020D02*
G75*
G03X12808000Y-8111020I-15000J0D01*
G01*
X12838171Y-7704853D02*
G75*
G03X12838171Y-7704853I-15000J0D01*
G01*
X13047740Y-5054600D02*
G75*
G03X13047740Y-5054600I-15000J0D01*
G01*
X13058322Y-6494526D02*
G75*
G03X13058322Y-6494526I-15000J0D01*
G01*
X13084570Y-9767570D02*
G75*
G03X13084570Y-9767570I-15000J0D01*
G01*
X13088380Y-5801360D02*
G75*
G03X13088380Y-5801360I-15000J0D01*
G01*
X13132322Y-6654038D02*
G75*
G03X13132322Y-6654038I-15000J0D01*
G01*
X13136640Y-4998720D02*
G75*
G03X13136640Y-4998720I-15000J0D01*
G01*
X13149580Y-8950960D02*
G75*
G03X13149580Y-8950960I-15000J0D01*
G01*
X13205220Y-9448800D02*
G75*
G03X13205220Y-9448800I-15000J0D01*
G01*
X13208702Y-6506538D02*
G75*
G03X13208702Y-6506538I-15000J0D01*
G01*
X13299962Y-6505194D02*
G75*
G03X13299962Y-6505194I-15000J0D01*
G01*
X13318933Y-4842685D02*
G75*
G03X13318933Y-4842685I-15000J0D01*
G01*
X13422508Y-7287378D02*
G75*
G03X13422508Y-7287378I-15000J0D01*
G01*
X13427978Y-6714748D02*
G75*
G03X13427978Y-6714748I-15000J0D01*
G01*
X13428740Y-5608320D02*
G75*
G03X13428740Y-5608320I-15000J0D01*
G01*
X13437310Y-5533295D02*
G75*
G03X13437310Y-5533295I-15000J0D01*
G01*
X13439799Y-7229924D02*
G75*
G03X13439799Y-7229924I-15000J0D01*
G01*
X13464375Y-8122158D02*
G75*
G03X13464375Y-8122158I-15000J0D01*
G01*
X13520200Y-8778240D02*
G75*
G03X13520200Y-8778240I-15000J0D01*
G01*
X13522466Y-6903466D02*
G75*
G03X13522466Y-6903466I-15000J0D01*
G01*
X13535000Y-9011500D02*
G75*
G03X13535000Y-9011500I-15000J0D01*
G01*
X13536875Y-8200000D02*
G75*
G03X13536875Y-8200000I-15000J0D01*
G01*
X13545580Y-6843645D02*
G75*
G03X13545580Y-6843645I-15000J0D01*
G01*
X13568640Y-5633920D02*
G75*
G03X13568640Y-5633920I-15000J0D01*
G01*
X13571280Y-8584900D02*
G75*
G03X13571280Y-8584900I-15000J0D01*
G01*
X13596380Y-5748020D02*
G75*
G03X13596380Y-5748020I-15000J0D01*
G01*
X13710680Y-5069840D02*
G75*
G03X13710680Y-5069840I-15000J0D01*
G01*
X13711522Y-8252500D02*
G75*
G03X13711522Y-8252500I-15000J0D01*
G01*
X13728460Y-5603240D02*
G75*
G03X13728460Y-5603240I-15000J0D01*
G01*
X13755000Y-9240000D02*
G75*
G03X13755000Y-9240000I-15000J0D01*
G01*
X13776480Y-5902960D02*
G75*
G03X13776480Y-5902960I-15000J0D01*
G01*
X13847840Y-5570220D02*
G75*
G03X13847840Y-5570220I-15000J0D01*
G01*
X13865620Y-5465600D02*
G75*
G03X13865620Y-5465600I-15000J0D01*
G01*
X13891020Y-5336540D02*
G75*
G03X13891020Y-5336540I-15000J0D01*
G01*
X13895000Y-9200000D02*
G75*
G03X13895000Y-9200000I-15000J0D01*
G01*
X13898395Y-6683395D02*
G75*
G03X13898395Y-6683395I-15000J0D01*
G01*
X13901180Y-6751320D02*
G75*
G03X13901180Y-6751320I-15000J0D01*
G01*
X13936740Y-5582920D02*
G75*
G03X13936740Y-5582920I-15000J0D01*
G01*
X13941820Y-5930900D02*
G75*
G03X13941820Y-5930900I-15000J0D01*
G01*
X13985700Y-5779542D02*
G75*
G03X13985700Y-5779542I-15000J0D01*
G01*
X14002703Y-7624448D02*
G75*
G03X14002703Y-7624448I-15000J0D01*
G01*
X14002780Y-5173980D02*
G75*
G03X14002780Y-5173980I-15000J0D01*
G01*
X14004084Y-5076156D02*
G75*
G03X14004084Y-5076156I-15000J0D01*
G01*
X14013440Y-5615940D02*
G75*
G03X14013440Y-5615940I-15000J0D01*
G01*
X14020814Y-6908038D02*
G75*
G03X14020814Y-6908038I-15000J0D01*
G01*
X14027247Y-5682395D02*
G75*
G03X14027247Y-5682395I-15000J0D01*
G01*
X14061200Y-6733540D02*
G75*
G03X14061200Y-6733540I-15000J0D01*
G01*
X14062055Y-5731968D02*
G75*
G03X14062055Y-5731968I-15000J0D01*
G01*
X14112000Y-5935980D02*
G75*
G03X14112000Y-5935980I-15000J0D01*
G01*
X14119620Y-6548120D02*
G75*
G03X14119620Y-6548120I-15000J0D01*
G01*
X14123192Y-5819543D02*
G75*
G03X14123192Y-5819543I-15000J0D01*
G01*
X14124700Y-6715760D02*
G75*
G03X14124700Y-6715760I-15000J0D01*
G01*
X14160260Y-5171440D02*
G75*
G03X14160260Y-5171440I-15000J0D01*
G01*
X14183120Y-5816600D02*
G75*
G03X14183120Y-5816600I-15000J0D01*
G01*
X14188440Y-6464300D02*
G75*
G03X14188440Y-6464300I-15000J0D01*
G01*
X14189243Y-5421403D02*
G75*
G03X14189243Y-5421403I-15000J0D01*
G01*
X14195820Y-4617720D02*
G75*
G03X14195820Y-4617720I-15000J0D01*
G01*
X14254240Y-5814060D02*
G75*
G03X14254240Y-5814060I-15000J0D01*
G01*
X14265000Y-8000000D02*
G75*
G03X14265000Y-8000000I-15000J0D01*
G01*
X14277100Y-5090160D02*
G75*
G03X14277100Y-5090160I-15000J0D01*
G01*
X14291620Y-6386043D02*
G75*
G03X14291620Y-6386043I-15000J0D01*
G01*
X14292020Y-4868471D02*
G75*
G03X14292020Y-4868471I-15000J0D01*
G01*
X14293750Y-5768905D02*
G75*
G03X14293750Y-5768905I-15000J0D01*
G01*
X14310120Y-5995420D02*
G75*
G03X14310120Y-5995420I-15000J0D01*
G01*
X14335920Y-6637020D02*
G75*
G03X14335920Y-6637020I-15000J0D01*
G01*
X14353300Y-5753100D02*
G75*
G03X14353300Y-5753100I-15000J0D01*
G01*
X14353440Y-5677188D02*
G75*
G03X14353440Y-5677188I-15000J0D01*
G01*
X14361673Y-6061193D02*
G75*
G03X14361673Y-6061193I-15000J0D01*
G01*
X14381240Y-7889494D02*
G75*
G03X14381240Y-7889494I-15000J0D01*
G01*
X14386320Y-5222240D02*
G75*
G03X14386320Y-5222240I-15000J0D01*
G01*
X14392021Y-4896795D02*
G75*
G03X14392021Y-4896795I-15000J0D01*
G01*
X14393440Y-5630413D02*
G75*
G03X14393440Y-5630413I-15000J0D01*
G01*
X14404100Y-6103620D02*
G75*
G03X14404100Y-6103620I-15000J0D01*
G01*
X14406640Y-6256020D02*
G75*
G03X14406640Y-6256020I-15000J0D01*
G01*
X14469600Y-4660900D02*
G75*
G03X14469600Y-4660900I-15000J0D01*
G01*
X14482840Y-5090160D02*
G75*
G03X14482840Y-5090160I-15000J0D01*
G01*
X14505700Y-4780280D02*
G75*
G03X14505700Y-4780280I-15000J0D01*
G01*
X14526600Y-5707380D02*
G75*
G03X14526600Y-5707380I-15000J0D01*
G01*
X14531015Y-4906189D02*
G75*
G03X14531015Y-4906189I-15000J0D01*
G01*
X14536180Y-6667500D02*
G75*
G03X14536180Y-6667500I-15000J0D01*
G01*
X14584078Y-6897734D02*
G75*
G03X14584078Y-6897734I-15000J0D01*
G01*
X14620000Y-5847080D02*
G75*
G03X14620000Y-5847080I-15000J0D01*
G01*
X14626627Y-5731233D02*
G75*
G03X14626627Y-5731233I-15000J0D01*
G01*
X14645400Y-5092700D02*
G75*
G03X14645400Y-5092700I-15000J0D01*
G01*
X14683363Y-4889249D02*
G75*
G03X14683363Y-4889249I-15000J0D01*
G01*
X14698568Y-5953588D02*
G75*
G03X14698568Y-5953588I-15000J0D01*
G01*
X14719600Y-4663440D02*
G75*
G03X14719600Y-4663440I-15000J0D01*
G01*
X14734440Y-5023980D02*
G75*
G03X14734440Y-5023980I-15000J0D01*
G01*
X14769860Y-5761233D02*
G75*
G03X14769860Y-5761233I-15000J0D01*
G01*
X14798005Y-5082745D02*
G75*
G03X14798005Y-5082745I-15000J0D01*
G01*
X14932065Y-7455666D02*
G75*
G03X14932065Y-7455666I-15000J0D01*
G01*
X14932420Y-5666740D02*
G75*
G03X14932420Y-5666740I-15000J0D01*
G01*
X14940520Y-5471160D02*
G75*
G03X14940520Y-5471160I-15000J0D01*
G01*
X14942580Y-6949440D02*
G75*
G03X14942580Y-6949440I-15000J0D01*
G01*
X14951734Y-6675882D02*
G75*
G03X14951734Y-6675882I-15000J0D01*
G01*
X14960360Y-6840220D02*
G75*
G03X14960360Y-6840220I-15000J0D01*
G01*
X14967646Y-7407354D02*
G75*
G03X14967646Y-7407354I-15000J0D01*
G01*
X14967980Y-5082540D02*
G75*
G03X14967980Y-5082540I-15000J0D01*
G01*
X14985760Y-7099300D02*
G75*
G03X14985760Y-7099300I-15000J0D01*
G01*
X14990520Y-5580888D02*
G75*
G03X14990520Y-5580888I-15000J0D01*
G01*
X15035000Y-7780000D02*
G75*
G03X15035000Y-7780000I-15000J0D01*
G01*
X15036014Y-4582160D02*
G75*
G03X15036014Y-4582160I-15000J0D01*
G01*
X15041640Y-7063740D02*
G75*
G03X15041640Y-7063740I-15000J0D01*
G01*
X15077200Y-7005320D02*
G75*
G03X15077200Y-7005320I-15000J0D01*
G01*
X15112760Y-7209599D02*
G75*
G03X15112760Y-7209599I-15000J0D01*
G01*
X15148320Y-6207760D02*
G75*
G03X15148320Y-6207760I-15000J0D01*
G01*
X15176260Y-4726940D02*
G75*
G03X15176260Y-4726940I-15000J0D01*
G01*
X15204708Y-5530088D02*
G75*
G03X15204708Y-5530088I-15000J0D01*
G01*
X15242300Y-5344160D02*
G75*
G03X15242300Y-5344160I-15000J0D01*
G01*
X15302265Y-5431106D02*
G75*
G03X15302265Y-5431106I-15000J0D01*
G01*
X15348128Y-5182540D02*
G75*
G03X15348128Y-5182540I-15000J0D01*
G01*
X15414225Y-5149641D02*
G75*
G03X15414225Y-5149641I-15000J0D01*
G01*
X15476250Y-7800000D02*
G75*
G03X15476250Y-7800000I-15000J0D01*
G01*
X15478520Y-6885700D02*
G75*
G03X15478520Y-6885700I-15000J0D01*
G01*
X15509000Y-7546014D02*
G75*
G03X15509000Y-7546014I-15000J0D01*
G01*
X15514926Y-5518620D02*
G75*
G03X15514926Y-5518620I-15000J0D01*
G01*
X15639421Y-5225661D02*
G75*
G03X15639421Y-5225661I-15000J0D01*
G01*
X15655000Y-7640000D02*
G75*
G03X15655000Y-7640000I-15000J0D01*
G01*
X15668106Y-7033106D02*
G75*
G03X15668106Y-7033106I-15000J0D01*
G01*
X15689340Y-5392420D02*
G75*
G03X15689340Y-5392420I-15000J0D01*
G01*
X16154160Y-5245100D02*
G75*
G03X16154160Y-5245100I-15000J0D01*
G01*
X17468356Y-6504418D02*
G75*
G03X17468356Y-6504418I-15000J0D01*
G01*
X17476484Y-7059930D02*
G75*
G03X17476484Y-7059930I-15000J0D01*
G01*
X17683240Y-10364724D02*
G75*
G03X17683240Y-10364724I-15000J0D01*
G01*
X17817860Y-9541510D02*
G75*
G03X17817860Y-9541510I-15000J0D01*
G01*
X12166600Y-5603560D02*
X12166600Y-5643560D01*
X12146600Y-5623560D02*
X12186600Y-5623560D01*
X12432174Y-5720400D02*
X12432174Y-5760400D01*
X12412174Y-5740400D02*
X12452174Y-5740400D01*
X12740005Y-7369495D02*
X12740005Y-7409495D01*
X12720005Y-7389495D02*
X12760005Y-7389495D01*
X12826789Y-5712991D02*
X12826789Y-5752991D01*
X12806789Y-5732991D02*
X12846789Y-5732991D01*
X14058900Y-3977960D02*
X14058900Y-4017960D01*
X14038900Y-3997960D02*
X14078900Y-3997960D01*
X15263876Y-6117402D02*
X15263876Y-6157402D01*
X15243876Y-6137402D02*
X15283876Y-6137402D01*
X15267940Y-4511360D02*
X15267940Y-4551360D01*
X15247940Y-4531360D02*
X15287940Y-4531360D01*
X15354540Y-7069599D02*
X15354540Y-7109599D01*
X15334540Y-7089599D02*
X15374540Y-7089599D01*
X15410180Y-8524560D02*
X15410180Y-8564560D01*
X15390180Y-8544560D02*
X15430180Y-8544560D01*
X14299600Y-4387720D02*
X14299600Y-4427720D01*
X14279600Y-4407720D02*
X14319600Y-4407720D01*
X14339600Y-4317720D02*
X14339600Y-4357720D01*
X14319600Y-4337720D02*
X14359600Y-4337720D01*
X14379600Y-4387720D02*
X14379600Y-4427720D01*
X14359600Y-4407720D02*
X14399600Y-4407720D01*
X14419600Y-4317720D02*
X14419600Y-4357720D01*
X14399600Y-4337720D02*
X14439600Y-4337720D01*
X14459600Y-4387720D02*
X14459600Y-4427720D01*
X14439600Y-4407720D02*
X14479600Y-4407720D01*
X14499600Y-4317720D02*
X14499600Y-4357720D01*
X14479600Y-4337720D02*
X14519600Y-4337720D01*
X14539600Y-4387720D02*
X14539600Y-4427720D01*
X14519600Y-4407720D02*
X14559600Y-4407720D01*
X14619600Y-4387720D02*
X14619600Y-4427720D01*
X14599600Y-4407720D02*
X14639600Y-4407720D01*
X14659600Y-4316720D02*
X14659600Y-4356720D01*
X14639600Y-4336720D02*
X14679600Y-4336720D01*
X14699600Y-4387720D02*
X14699600Y-4427720D01*
X14679600Y-4407720D02*
X14719600Y-4407720D01*
X14739600Y-4317720D02*
X14739600Y-4357720D01*
X14719600Y-4337720D02*
X14759600Y-4337720D01*
X14779600Y-4387720D02*
X14779600Y-4427720D01*
X14759600Y-4407720D02*
X14799600Y-4407720D01*
X14819600Y-4317720D02*
X14819600Y-4357720D01*
X14799600Y-4337720D02*
X14839600Y-4337720D01*
X14859600Y-4387720D02*
X14859600Y-4427720D01*
X14839600Y-4407720D02*
X14879600Y-4407720D01*
X15679318Y-9508718D02*
X15679318Y-9473362D01*
X15643962Y-9473362D01*
X15643962Y-9508718D01*
X15679318Y-9508718D01*
X15679318Y-9608718D02*
X15679318Y-9573362D01*
X15643962Y-9573362D01*
X15643962Y-9608718D01*
X15679318Y-9608718D01*
X14815718Y-6056858D02*
X14815718Y-6021502D01*
X14780362Y-6021502D01*
X14780362Y-6056858D01*
X14815718Y-6056858D01*
X14815718Y-6156858D02*
X14815718Y-6121502D01*
X14780362Y-6121502D01*
X14780362Y-6156858D01*
X14815718Y-6156858D01*
X14576018Y-6405778D02*
X14576018Y-6370422D01*
X14540662Y-6370422D01*
X14540662Y-6405778D01*
X14576018Y-6405778D01*
X14676018Y-6405778D02*
X14676018Y-6370422D01*
X14640662Y-6370422D01*
X14640662Y-6405778D01*
X14676018Y-6405778D01*
X15857372Y-4889398D02*
X15857372Y-4854042D01*
X15822016Y-4854042D01*
X15822016Y-4889398D01*
X15857372Y-4889398D01*
X15957372Y-4889398D02*
X15957372Y-4854042D01*
X15922016Y-4854042D01*
X15922016Y-4889398D01*
X15957372Y-4889398D01*
X15102738Y-5983198D02*
X15102738Y-5947842D01*
X15067382Y-5947842D01*
X15067382Y-5983198D01*
X15102738Y-5983198D01*
X15102738Y-6083198D02*
X15102738Y-6047842D01*
X15067382Y-6047842D01*
X15067382Y-6083198D01*
X15102738Y-6083198D01*
X15361302Y-4901844D02*
X15361302Y-4866488D01*
X15325946Y-4866488D01*
X15325946Y-4901844D01*
X15361302Y-4901844D01*
X15361302Y-5001844D02*
X15361302Y-4966488D01*
X15325946Y-4966488D01*
X15325946Y-5001844D01*
X15361302Y-5001844D01*
X15063698Y-6354978D02*
X15063698Y-6319622D01*
X15028342Y-6319622D01*
X15028342Y-6354978D01*
X15063698Y-6354978D01*
X15163698Y-6354978D02*
X15163698Y-6319622D01*
X15128342Y-6319622D01*
X15128342Y-6354978D01*
X15163698Y-6354978D01*
X14152600Y-3849720D02*
X14182600Y-3819720D01*
X14152600Y-3789720D01*
X14122600Y-3819720D01*
X14152600Y-3849720D01*
X14172600Y-3849720D02*
X14172600Y-3789720D01*
X14132600Y-3849720D02*
X14132600Y-3789720D01*
X14172600Y-3789720D02*
G75*
G03X14132600Y-3789720I-20000J0D01*
G01*
X14132600Y-3849720D02*
G75*
G03X14172600Y-3849720I20000J0D01*
G01*
X14152600Y-4322720D02*
X14182600Y-4292720D01*
X14152600Y-4262720D01*
X14122600Y-4292720D01*
X14152600Y-4322720D01*
X14172600Y-4322720D02*
X14172600Y-4262720D01*
X14132600Y-4322720D02*
X14132600Y-4262720D01*
X14172600Y-4262720D02*
G75*
G03X14132600Y-4262720I-20000J0D01*
G01*
X14132600Y-4322720D02*
G75*
G03X14172600Y-4322720I20000J0D01*
G01*
X15006600Y-3849720D02*
X15036600Y-3819720D01*
X15006600Y-3789720D01*
X14976600Y-3819720D01*
X15006600Y-3849720D01*
X15026600Y-3849720D02*
X15026600Y-3789720D01*
X14986600Y-3849720D02*
X14986600Y-3789720D01*
X15026600Y-3789720D02*
G75*
G03X14986600Y-3789720I-20000J0D01*
G01*
X14986600Y-3849720D02*
G75*
G03X15026600Y-3849720I20000J0D01*
G01*
X15006600Y-4322720D02*
X15036600Y-4292720D01*
X15006600Y-4262720D01*
X14976600Y-4292720D01*
X15006600Y-4322720D01*
X15026600Y-4322720D02*
X15026600Y-4262720D01*
X14986600Y-4322720D02*
X14986600Y-4262720D01*
X15026600Y-4262720D02*
G75*
G03X14986600Y-4262720I-20000J0D01*
G01*
X14986600Y-4322720D02*
G75*
G03X15026600Y-4322720I20000J0D01*
G01*
X16219810Y-5900552D02*
X16299810Y-5980552D01*
X16299810Y-5900552D02*
X16219810Y-5980552D01*
X16299810Y-5940552D02*
G75*
G03X16299810Y-5940552I-40000J0D01*
G01*
X16219810Y-6154552D02*
X16299810Y-6234552D01*
X16299810Y-6154552D02*
X16219810Y-6234552D01*
X16299810Y-6194552D02*
G75*
G03X16299810Y-6194552I-40000J0D01*
G01*
X16219810Y-6408552D02*
X16299810Y-6488552D01*
X16299810Y-6408552D02*
X16219810Y-6488552D01*
X16299810Y-6448552D02*
G75*
G03X16299810Y-6448552I-40000J0D01*
G01*
X16219810Y-6662552D02*
X16299810Y-6742552D01*
X16299810Y-6662552D02*
X16219810Y-6742552D01*
X16299810Y-6702552D02*
G75*
G03X16299810Y-6702552I-40000J0D01*
G01*
X16981810Y-5900552D02*
X17061810Y-5980552D01*
X17061810Y-5900552D02*
X16981810Y-5980552D01*
X17061810Y-5940552D02*
G75*
G03X17061810Y-5940552I-40000J0D01*
G01*
X16981810Y-6154552D02*
X17061810Y-6234552D01*
X17061810Y-6154552D02*
X16981810Y-6234552D01*
X17061810Y-6194552D02*
G75*
G03X17061810Y-6194552I-40000J0D01*
G01*
X16981810Y-6408552D02*
X17061810Y-6488552D01*
X17061810Y-6408552D02*
X16981810Y-6488552D01*
X17061810Y-6448552D02*
G75*
G03X17061810Y-6448552I-40000J0D01*
G01*
X16981810Y-6662552D02*
X17061810Y-6742552D01*
X17061810Y-6662552D02*
X16981810Y-6742552D01*
X17061810Y-6702552D02*
G75*
G03X17061810Y-6702552I-40000J0D01*
G01*
X16258672Y-4731390D02*
X16338672Y-4811390D01*
X16338672Y-4731390D02*
X16258672Y-4811390D01*
X16338672Y-4771390D02*
G75*
G03X16338672Y-4771390I-40000J0D01*
G01*
X16258672Y-5493390D02*
X16338672Y-5573390D01*
X16338672Y-5493390D02*
X16258672Y-5573390D01*
X16338672Y-5533390D02*
G75*
G03X16338672Y-5533390I-40000J0D01*
G01*
X16208380Y-7155820D02*
X16288380Y-7235820D01*
X16288380Y-7155820D02*
X16208380Y-7235820D01*
X16288380Y-7195820D02*
G75*
G03X16288380Y-7195820I-40000J0D01*
G01*
X16208380Y-7409820D02*
X16288380Y-7489820D01*
X16288380Y-7409820D02*
X16208380Y-7489820D01*
X16288380Y-7449820D02*
G75*
G03X16288380Y-7449820I-40000J0D01*
G01*
X16208380Y-7663820D02*
X16288380Y-7743820D01*
X16288380Y-7663820D02*
X16208380Y-7743820D01*
X16288380Y-7703820D02*
G75*
G03X16288380Y-7703820I-40000J0D01*
G01*
X16208380Y-7917820D02*
X16288380Y-7997820D01*
X16288380Y-7917820D02*
X16208380Y-7997820D01*
X16288380Y-7957820D02*
G75*
G03X16288380Y-7957820I-40000J0D01*
G01*
X16208380Y-8171820D02*
X16288380Y-8251820D01*
X16288380Y-8171820D02*
X16208380Y-8251820D01*
X16288380Y-8211820D02*
G75*
G03X16288380Y-8211820I-40000J0D01*
G01*
X16208380Y-8425820D02*
X16288380Y-8505820D01*
X16288380Y-8425820D02*
X16208380Y-8505820D01*
X16288380Y-8465820D02*
G75*
G03X16288380Y-8465820I-40000J0D01*
G01*
X16970380Y-7155820D02*
X17050380Y-7235820D01*
X17050380Y-7155820D02*
X16970380Y-7235820D01*
X17050380Y-7195820D02*
G75*
G03X17050380Y-7195820I-40000J0D01*
G01*
X16970380Y-7409820D02*
X17050380Y-7489820D01*
X17050380Y-7409820D02*
X16970380Y-7489820D01*
X17050380Y-7449820D02*
G75*
G03X17050380Y-7449820I-40000J0D01*
G01*
X16970380Y-7663820D02*
X17050380Y-7743820D01*
X17050380Y-7663820D02*
X16970380Y-7743820D01*
X17050380Y-7703820D02*
G75*
G03X17050380Y-7703820I-40000J0D01*
G01*
X16970380Y-7917820D02*
X17050380Y-7997820D01*
X17050380Y-7917820D02*
X16970380Y-7997820D01*
X17050380Y-7957820D02*
G75*
G03X17050380Y-7957820I-40000J0D01*
G01*
X16970380Y-8171820D02*
X17050380Y-8251820D01*
X17050380Y-8171820D02*
X16970380Y-8251820D01*
X17050380Y-8211820D02*
G75*
G03X17050380Y-8211820I-40000J0D01*
G01*
X16970380Y-8425820D02*
X17050380Y-8505820D01*
X17050380Y-8425820D02*
X16970380Y-8505820D01*
X17050380Y-8465820D02*
G75*
G03X17050380Y-8465820I-40000J0D01*
G01*
X16190600Y-9347840D02*
X16270600Y-9427840D01*
X16270600Y-9347840D02*
X16190600Y-9427840D01*
X16270600Y-9387840D02*
G75*
G03X16270600Y-9387840I-40000J0D01*
G01*
X16190600Y-10109840D02*
X16270600Y-10189840D01*
X16270600Y-10109840D02*
X16190600Y-10189840D01*
X16270600Y-10149840D02*
G75*
G03X16270600Y-10149840I-40000J0D01*
G01*
X16444600Y-9347840D02*
X16524600Y-9427840D01*
X16524600Y-9347840D02*
X16444600Y-9427840D01*
X16524600Y-9387840D02*
G75*
G03X16524600Y-9387840I-40000J0D01*
G01*
X16444600Y-10109840D02*
X16524600Y-10189840D01*
X16524600Y-10109840D02*
X16444600Y-10189840D01*
X16524600Y-10149840D02*
G75*
G03X16524600Y-10149840I-40000J0D01*
G01*
X16698600Y-9347840D02*
X16778600Y-9427840D01*
X16778600Y-9347840D02*
X16698600Y-9427840D01*
X16778600Y-9387840D02*
G75*
G03X16778600Y-9387840I-40000J0D01*
G01*
X16698600Y-10109840D02*
X16778600Y-10189840D01*
X16778600Y-10109840D02*
X16698600Y-10189840D01*
X16778600Y-10149840D02*
G75*
G03X16778600Y-10149840I-40000J0D01*
G01*
X16952600Y-9347840D02*
X17032600Y-9427840D01*
X17032600Y-9347840D02*
X16952600Y-9427840D01*
X17032600Y-9387840D02*
G75*
G03X17032600Y-9387840I-40000J0D01*
G01*
X16952600Y-10109840D02*
X17032600Y-10189840D01*
X17032600Y-10109840D02*
X16952600Y-10189840D01*
X17032600Y-10149840D02*
G75*
G03X17032600Y-10149840I-40000J0D01*
G01*
X17206600Y-9347840D02*
X17286600Y-9427840D01*
X17286600Y-9347840D02*
X17206600Y-9427840D01*
X17286600Y-9387840D02*
G75*
G03X17286600Y-9387840I-40000J0D01*
G01*
X17206600Y-10109840D02*
X17286600Y-10189840D01*
X17286600Y-10109840D02*
X17206600Y-10189840D01*
X17286600Y-10149840D02*
G75*
G03X17286600Y-10149840I-40000J0D01*
G01*
X17460600Y-9347840D02*
X17540600Y-9427840D01*
X17540600Y-9347840D02*
X17460600Y-9427840D01*
X17540600Y-9387840D02*
G75*
G03X17540600Y-9387840I-40000J0D01*
G01*
X17460600Y-10109840D02*
X17540600Y-10189840D01*
X17540600Y-10109840D02*
X17460600Y-10189840D01*
X17540600Y-10149840D02*
G75*
G03X17540600Y-10149840I-40000J0D01*
G01*
X17714600Y-9347840D02*
X17794600Y-9427840D01*
X17794600Y-9347840D02*
X17714600Y-9427840D01*
X17794600Y-9387840D02*
G75*
G03X17794600Y-9387840I-40000J0D01*
G01*
X17714600Y-10109840D02*
X17794600Y-10189840D01*
X17794600Y-10109840D02*
X17714600Y-10189840D01*
X17794600Y-10149840D02*
G75*
G03X17794600Y-10149840I-40000J0D01*
G01*
X17968600Y-9347840D02*
X18048600Y-9427840D01*
X18048600Y-9347840D02*
X17968600Y-9427840D01*
X18048600Y-9387840D02*
G75*
G03X18048600Y-9387840I-40000J0D01*
G01*
X17968600Y-10109840D02*
X18048600Y-10189840D01*
X18048600Y-10109840D02*
X17968600Y-10189840D01*
X18048600Y-10149840D02*
G75*
G03X18048600Y-10149840I-40000J0D01*
G01*
X11499340Y-3826000D02*
X11594340Y-3921000D01*
X11594340Y-3826000D02*
X11499340Y-3921000D01*
X11546840Y-3826000D02*
X11546840Y-3921000D01*
X11499340Y-3873500D02*
X11594340Y-3873500D01*
X11749340Y-3826000D02*
X11844340Y-3921000D01*
X11844340Y-3826000D02*
X11749340Y-3921000D01*
X11796840Y-3826000D02*
X11796840Y-3921000D01*
X11749340Y-3873500D02*
X11844340Y-3873500D01*
X11999340Y-3826000D02*
X12094340Y-3921000D01*
X12094340Y-3826000D02*
X11999340Y-3921000D01*
X12046840Y-3826000D02*
X12046840Y-3921000D01*
X11999340Y-3873500D02*
X12094340Y-3873500D01*
X11578080Y-4580380D02*
X11673080Y-4675380D01*
X11673080Y-4580380D02*
X11578080Y-4675380D01*
X11625580Y-4580380D02*
X11625580Y-4675380D01*
X11578080Y-4627880D02*
X11673080Y-4627880D01*
X11828080Y-4580380D02*
X11923080Y-4675380D01*
X11923080Y-4580380D02*
X11828080Y-4675380D01*
X11875580Y-4580380D02*
X11875580Y-4675380D01*
X11828080Y-4627880D02*
X11923080Y-4627880D01*
X12078080Y-4580380D02*
X12173080Y-4675380D01*
X12173080Y-4580380D02*
X12078080Y-4675380D01*
X12125580Y-4580380D02*
X12125580Y-4675380D01*
X12078080Y-4627880D02*
X12173080Y-4627880D01*
X16134840Y-3572000D02*
X16229840Y-3667000D01*
X16229840Y-3572000D02*
X16134840Y-3667000D01*
X16182340Y-3572000D02*
X16182340Y-3667000D01*
X16134840Y-3619500D02*
X16229840Y-3619500D01*
X16134840Y-3822000D02*
X16229840Y-3917000D01*
X16229840Y-3822000D02*
X16134840Y-3917000D01*
X16182340Y-3822000D02*
X16182340Y-3917000D01*
X16134840Y-3869500D02*
X16229840Y-3869500D01*
X16134840Y-4072000D02*
X16229840Y-4167000D01*
X16229840Y-4072000D02*
X16134840Y-4167000D01*
X16182340Y-4072000D02*
X16182340Y-4167000D01*
X16134840Y-4119500D02*
X16229840Y-4119500D01*
X12941084Y-5998756D02*
X13041084Y-6098756D01*
X13041084Y-5998756D02*
X12941084Y-6098756D01*
X13026440Y-6084112D02*
X13026440Y-6013400D01*
X12955728Y-6013400D01*
X12955728Y-6084112D01*
X13026440Y-6084112D01*
X12827546Y-4759236D02*
X12927546Y-4859236D01*
X12927546Y-4759236D02*
X12827546Y-4859236D01*
X12912902Y-4844592D02*
X12912902Y-4773880D01*
X12842190Y-4773880D01*
X12842190Y-4844592D01*
X12912902Y-4844592D01*
X16178568Y-10378478D02*
X16278568Y-10478478D01*
X16278568Y-10378478D02*
X16178568Y-10478478D01*
X16263924Y-10463834D02*
X16263924Y-10393122D01*
X16193212Y-10393122D01*
X16193212Y-10463834D01*
X16263924Y-10463834D01*
X12468898Y-5057432D02*
X12568898Y-5157432D01*
X12568898Y-5057432D02*
X12468898Y-5157432D01*
X12554254Y-5142788D02*
X12554254Y-5072076D01*
X12483542Y-5072076D01*
X12483542Y-5142788D01*
X12554254Y-5142788D01*
X17790960Y-8123720D02*
X17890960Y-8223720D01*
X17890960Y-8123720D02*
X17790960Y-8223720D01*
X17876316Y-8209076D02*
X17876316Y-8138364D01*
X17805604Y-8138364D01*
X17805604Y-8209076D01*
X17876316Y-8209076D01*
X15244356Y-3477044D02*
X15344356Y-3577044D01*
X15344356Y-3477044D02*
X15244356Y-3577044D01*
X15329712Y-3562400D02*
X15329712Y-3491688D01*
X15259000Y-3491688D01*
X15259000Y-3562400D01*
X15329712Y-3562400D01*
X12540780Y-3551720D02*
X12640780Y-3651720D01*
X12640780Y-3551720D02*
X12540780Y-3651720D01*
X12626136Y-3637076D02*
X12626136Y-3566364D01*
X12555424Y-3566364D01*
X12555424Y-3637076D01*
X12626136Y-3637076D01*
X12757086Y-8853252D02*
X12857086Y-8953252D01*
X12857086Y-8853252D02*
X12757086Y-8953252D01*
X12842442Y-8938608D02*
X12842442Y-8867896D01*
X12771730Y-8867896D01*
X12771730Y-8938608D01*
X12842442Y-8938608D01*
D12*
X11442148Y-11049854D02*
X11442148Y-10749854D01*
X11513577Y-10749854D01*
X11556434Y-10764140D01*
X11585006Y-10792712D01*
X11599291Y-10821283D01*
X11613577Y-10878426D01*
X11613577Y-10921283D01*
X11599291Y-10978426D01*
X11585006Y-11006997D01*
X11556434Y-11035569D01*
X11513577Y-11049854D01*
X11442148Y-11049854D01*
X11742148Y-11049854D02*
X11742148Y-10849854D01*
X11742148Y-10906997D02*
X11756434Y-10878426D01*
X11770720Y-10864140D01*
X11799291Y-10849854D01*
X11827863Y-10849854D01*
X11927863Y-11049854D02*
X11927863Y-10849854D01*
X11927863Y-10749854D02*
X11913577Y-10764140D01*
X11927863Y-10778426D01*
X11942148Y-10764140D01*
X11927863Y-10749854D01*
X11927863Y-10778426D01*
X12113577Y-11049854D02*
X12085006Y-11035569D01*
X12070720Y-11006997D01*
X12070720Y-10749854D01*
X12270720Y-11049854D02*
X12242148Y-11035569D01*
X12227863Y-11006997D01*
X12227863Y-10749854D01*
X12613577Y-11049854D02*
X12613577Y-10749854D01*
X12713577Y-10964140D01*
X12813577Y-10749854D01*
X12813577Y-11049854D01*
X13085006Y-11049854D02*
X13085006Y-10892712D01*
X13070720Y-10864140D01*
X13042148Y-10849854D01*
X12985006Y-10849854D01*
X12956434Y-10864140D01*
X13085006Y-11035569D02*
X13056434Y-11049854D01*
X12985006Y-11049854D01*
X12956434Y-11035569D01*
X12942148Y-11006997D01*
X12942148Y-10978426D01*
X12956434Y-10949854D01*
X12985006Y-10935569D01*
X13056434Y-10935569D01*
X13085006Y-10921283D01*
X13227863Y-10849854D02*
X13227863Y-11149854D01*
X13227863Y-10864140D02*
X13256434Y-10849854D01*
X13313577Y-10849854D01*
X13342148Y-10864140D01*
X13356434Y-10878426D01*
X13370720Y-10906997D01*
X13370720Y-10992712D01*
X13356434Y-11021283D01*
X13342148Y-11035569D01*
X13313577Y-11049854D01*
X13256434Y-11049854D01*
X13227863Y-11035569D01*
X13499291Y-11021283D02*
X13513577Y-11035569D01*
X13499291Y-11049854D01*
X13485006Y-11035569D01*
X13499291Y-11021283D01*
X13499291Y-11049854D01*
X13499291Y-10864140D02*
X13513577Y-10878426D01*
X13499291Y-10892712D01*
X13485006Y-10878426D01*
X13499291Y-10864140D01*
X13499291Y-10892712D01*
X11135720Y-11534140D02*
X11155720Y-11554140D01*
X11155720Y-11534140D02*
X11135720Y-11554140D01*
X11499291Y-11379854D02*
X11527863Y-11379854D01*
X11556434Y-11394140D01*
X11570720Y-11408426D01*
X11585006Y-11436997D01*
X11599291Y-11494140D01*
X11599291Y-11565569D01*
X11585006Y-11622711D01*
X11570720Y-11651283D01*
X11556434Y-11665569D01*
X11527863Y-11679854D01*
X11499291Y-11679854D01*
X11470720Y-11665569D01*
X11456434Y-11651283D01*
X11442148Y-11622711D01*
X11427863Y-11565569D01*
X11427863Y-11494140D01*
X11442148Y-11436997D01*
X11456434Y-11408426D01*
X11470720Y-11394140D01*
X11499291Y-11379854D01*
X11727863Y-11651283D02*
X11742148Y-11665569D01*
X11727863Y-11679854D01*
X11713577Y-11665569D01*
X11727863Y-11651283D01*
X11727863Y-11679854D01*
X11856434Y-11408426D02*
X11870720Y-11394140D01*
X11899291Y-11379854D01*
X11970720Y-11379854D01*
X11999291Y-11394140D01*
X12013577Y-11408426D01*
X12027863Y-11436997D01*
X12027863Y-11465569D01*
X12013577Y-11508426D01*
X11842148Y-11679854D01*
X12027863Y-11679854D01*
X12213577Y-11379854D02*
X12242148Y-11379854D01*
X12270720Y-11394140D01*
X12285006Y-11408426D01*
X12299291Y-11436997D01*
X12313577Y-11494140D01*
X12313577Y-11565569D01*
X12299291Y-11622711D01*
X12285006Y-11651283D01*
X12270720Y-11665569D01*
X12242148Y-11679854D01*
X12213577Y-11679854D01*
X12185006Y-11665569D01*
X12170720Y-11651283D01*
X12156434Y-11622711D01*
X12142148Y-11565569D01*
X12142148Y-11494140D01*
X12156434Y-11436997D01*
X12170720Y-11408426D01*
X12185006Y-11394140D01*
X12213577Y-11379854D01*
X12442148Y-11679854D02*
X12442148Y-11479854D01*
X12442148Y-11508426D02*
X12456434Y-11494140D01*
X12485006Y-11479854D01*
X12527863Y-11479854D01*
X12556434Y-11494140D01*
X12570720Y-11522711D01*
X12570720Y-11679854D01*
X12570720Y-11522711D02*
X12585006Y-11494140D01*
X12613577Y-11479854D01*
X12656434Y-11479854D01*
X12685006Y-11494140D01*
X12699291Y-11522711D01*
X12699291Y-11679854D01*
X12842148Y-11679854D02*
X12842148Y-11479854D01*
X12842148Y-11508426D02*
X12856434Y-11494140D01*
X12885006Y-11479854D01*
X12927863Y-11479854D01*
X12956434Y-11494140D01*
X12970720Y-11522711D01*
X12970720Y-11679854D01*
X12970720Y-11522711D02*
X12985006Y-11494140D01*
X13013577Y-11479854D01*
X13056434Y-11479854D01*
X13085006Y-11494140D01*
X13099291Y-11522711D01*
X13099291Y-11679854D01*
X13685006Y-11365569D02*
X13427863Y-11751283D01*
X14070720Y-11379854D02*
X14099291Y-11379854D01*
X14127863Y-11394140D01*
X14142148Y-11408426D01*
X14156434Y-11436997D01*
X14170720Y-11494140D01*
X14170720Y-11565569D01*
X14156434Y-11622711D01*
X14142148Y-11651283D01*
X14127863Y-11665569D01*
X14099291Y-11679854D01*
X14070720Y-11679854D01*
X14042148Y-11665569D01*
X14027863Y-11651283D01*
X14013577Y-11622711D01*
X13999291Y-11565569D01*
X13999291Y-11494140D01*
X14013577Y-11436997D01*
X14027863Y-11408426D01*
X14042148Y-11394140D01*
X14070720Y-11379854D01*
X14299291Y-11651283D02*
X14313577Y-11665569D01*
X14299291Y-11679854D01*
X14285006Y-11665569D01*
X14299291Y-11651283D01*
X14299291Y-11679854D01*
X14499291Y-11379854D02*
X14527863Y-11379854D01*
X14556434Y-11394140D01*
X14570720Y-11408426D01*
X14585006Y-11436997D01*
X14599291Y-11494140D01*
X14599291Y-11565569D01*
X14585006Y-11622711D01*
X14570720Y-11651283D01*
X14556434Y-11665569D01*
X14527863Y-11679854D01*
X14499291Y-11679854D01*
X14470720Y-11665569D01*
X14456434Y-11651283D01*
X14442148Y-11622711D01*
X14427863Y-11565569D01*
X14427863Y-11494140D01*
X14442148Y-11436997D01*
X14456434Y-11408426D01*
X14470720Y-11394140D01*
X14499291Y-11379854D01*
X14785006Y-11379854D02*
X14813577Y-11379854D01*
X14842148Y-11394140D01*
X14856434Y-11408426D01*
X14870720Y-11436997D01*
X14885006Y-11494140D01*
X14885006Y-11565569D01*
X14870720Y-11622711D01*
X14856434Y-11651283D01*
X14842148Y-11665569D01*
X14813577Y-11679854D01*
X14785006Y-11679854D01*
X14756434Y-11665569D01*
X14742148Y-11651283D01*
X14727863Y-11622711D01*
X14713577Y-11565569D01*
X14713577Y-11494140D01*
X14727863Y-11436997D01*
X14742148Y-11408426D01*
X14756434Y-11394140D01*
X14785006Y-11379854D01*
X15056434Y-11508426D02*
X15027863Y-11494140D01*
X15013577Y-11479854D01*
X14999291Y-11451283D01*
X14999291Y-11436997D01*
X15013577Y-11408426D01*
X15027863Y-11394140D01*
X15056434Y-11379854D01*
X15113577Y-11379854D01*
X15142148Y-11394140D01*
X15156434Y-11408426D01*
X15170720Y-11436997D01*
X15170720Y-11451283D01*
X15156434Y-11479854D01*
X15142148Y-11494140D01*
X15113577Y-11508426D01*
X15056434Y-11508426D01*
X15027863Y-11522711D01*
X15013577Y-11536997D01*
X14999291Y-11565569D01*
X14999291Y-11622711D01*
X15013577Y-11651283D01*
X15027863Y-11665569D01*
X15056434Y-11679854D01*
X15113577Y-11679854D01*
X15142148Y-11665569D01*
X15156434Y-11651283D01*
X15170720Y-11622711D01*
X15170720Y-11565569D01*
X15156434Y-11536997D01*
X15142148Y-11522711D01*
X15113577Y-11508426D01*
X15285006Y-11379854D02*
X15285006Y-11436997D01*
X15399291Y-11379854D02*
X15399291Y-11436997D01*
X15842148Y-11794140D02*
X15827863Y-11779854D01*
X15799291Y-11736997D01*
X15785006Y-11708426D01*
X15770720Y-11665569D01*
X15756434Y-11594140D01*
X15756434Y-11536997D01*
X15770720Y-11465569D01*
X15785006Y-11422711D01*
X15799291Y-11394140D01*
X15827863Y-11351283D01*
X15842148Y-11336997D01*
X15942148Y-11408426D02*
X15956434Y-11394140D01*
X15985006Y-11379854D01*
X16056434Y-11379854D01*
X16085006Y-11394140D01*
X16099291Y-11408426D01*
X16113577Y-11436997D01*
X16113577Y-11465569D01*
X16099291Y-11508426D01*
X15927863Y-11679854D01*
X16113577Y-11679854D01*
X16385006Y-11379854D02*
X16242148Y-11379854D01*
X16227863Y-11522711D01*
X16242148Y-11508426D01*
X16270720Y-11494140D01*
X16342148Y-11494140D01*
X16370720Y-11508426D01*
X16385006Y-11522711D01*
X16399291Y-11551283D01*
X16399291Y-11622711D01*
X16385006Y-11651283D01*
X16370720Y-11665569D01*
X16342148Y-11679854D01*
X16270720Y-11679854D01*
X16242148Y-11665569D01*
X16227863Y-11651283D01*
X16756434Y-11679854D02*
X16756434Y-11379854D01*
X16885006Y-11679854D02*
X16885006Y-11522711D01*
X16870720Y-11494140D01*
X16842148Y-11479854D01*
X16799291Y-11479854D01*
X16770720Y-11494140D01*
X16756434Y-11508426D01*
X17070720Y-11679854D02*
X17042148Y-11665569D01*
X17027863Y-11651283D01*
X17013577Y-11622711D01*
X17013577Y-11536997D01*
X17027863Y-11508426D01*
X17042148Y-11494140D01*
X17070720Y-11479854D01*
X17113577Y-11479854D01*
X17142148Y-11494140D01*
X17156434Y-11508426D01*
X17170720Y-11536997D01*
X17170720Y-11622711D01*
X17156434Y-11651283D01*
X17142148Y-11665569D01*
X17113577Y-11679854D01*
X17070720Y-11679854D01*
X17342148Y-11679854D02*
X17313577Y-11665569D01*
X17299291Y-11636997D01*
X17299291Y-11379854D01*
X17570720Y-11665569D02*
X17542148Y-11679854D01*
X17485006Y-11679854D01*
X17456434Y-11665569D01*
X17442148Y-11636997D01*
X17442148Y-11522711D01*
X17456434Y-11494140D01*
X17485006Y-11479854D01*
X17542148Y-11479854D01*
X17570720Y-11494140D01*
X17585006Y-11522711D01*
X17585006Y-11551283D01*
X17442148Y-11579854D01*
X17699291Y-11665569D02*
X17727863Y-11679854D01*
X17785006Y-11679854D01*
X17813577Y-11665569D01*
X17827863Y-11636997D01*
X17827863Y-11622711D01*
X17813577Y-11594140D01*
X17785006Y-11579854D01*
X17742148Y-11579854D01*
X17713577Y-11565569D01*
X17699291Y-11536997D01*
X17699291Y-11522711D01*
X17713577Y-11494140D01*
X17742148Y-11479854D01*
X17785006Y-11479854D01*
X17813577Y-11494140D01*
X17927863Y-11794140D02*
X17942148Y-11779854D01*
X17970720Y-11736997D01*
X17985006Y-11708426D01*
X17999291Y-11665569D01*
X18013577Y-11594140D01*
X18013577Y-11536997D01*
X17999291Y-11465569D01*
X17985006Y-11422711D01*
X17970720Y-11394140D01*
X17942148Y-11351283D01*
X17927863Y-11336997D01*
X11155720Y-11940140D02*
G75*
G03X11155720Y-11940140I-15000J0D01*
G01*
X11499291Y-11775854D02*
X11527863Y-11775854D01*
X11556434Y-11790140D01*
X11570720Y-11804426D01*
X11585006Y-11832997D01*
X11599291Y-11890140D01*
X11599291Y-11961569D01*
X11585006Y-12018711D01*
X11570720Y-12047283D01*
X11556434Y-12061569D01*
X11527863Y-12075854D01*
X11499291Y-12075854D01*
X11470720Y-12061569D01*
X11456434Y-12047283D01*
X11442148Y-12018711D01*
X11427863Y-11961569D01*
X11427863Y-11890140D01*
X11442148Y-11832997D01*
X11456434Y-11804426D01*
X11470720Y-11790140D01*
X11499291Y-11775854D01*
X11727863Y-12047283D02*
X11742148Y-12061569D01*
X11727863Y-12075854D01*
X11713577Y-12061569D01*
X11727863Y-12047283D01*
X11727863Y-12075854D01*
X11842148Y-11775854D02*
X12027863Y-11775854D01*
X11927863Y-11890140D01*
X11970720Y-11890140D01*
X11999291Y-11904426D01*
X12013577Y-11918711D01*
X12027863Y-11947283D01*
X12027863Y-12018711D01*
X12013577Y-12047283D01*
X11999291Y-12061569D01*
X11970720Y-12075854D01*
X11885006Y-12075854D01*
X11856434Y-12061569D01*
X11842148Y-12047283D01*
X12213577Y-11775854D02*
X12242148Y-11775854D01*
X12270720Y-11790140D01*
X12285006Y-11804426D01*
X12299291Y-11832997D01*
X12313577Y-11890140D01*
X12313577Y-11961569D01*
X12299291Y-12018711D01*
X12285006Y-12047283D01*
X12270720Y-12061569D01*
X12242148Y-12075854D01*
X12213577Y-12075854D01*
X12185006Y-12061569D01*
X12170720Y-12047283D01*
X12156434Y-12018711D01*
X12142148Y-11961569D01*
X12142148Y-11890140D01*
X12156434Y-11832997D01*
X12170720Y-11804426D01*
X12185006Y-11790140D01*
X12213577Y-11775854D01*
X12442148Y-12075854D02*
X12442148Y-11875854D01*
X12442148Y-11904426D02*
X12456434Y-11890140D01*
X12485006Y-11875854D01*
X12527863Y-11875854D01*
X12556434Y-11890140D01*
X12570720Y-11918711D01*
X12570720Y-12075854D01*
X12570720Y-11918711D02*
X12585006Y-11890140D01*
X12613577Y-11875854D01*
X12656434Y-11875854D01*
X12685006Y-11890140D01*
X12699291Y-11918711D01*
X12699291Y-12075854D01*
X12842148Y-12075854D02*
X12842148Y-11875854D01*
X12842148Y-11904426D02*
X12856434Y-11890140D01*
X12885006Y-11875854D01*
X12927863Y-11875854D01*
X12956434Y-11890140D01*
X12970720Y-11918711D01*
X12970720Y-12075854D01*
X12970720Y-11918711D02*
X12985006Y-11890140D01*
X13013577Y-11875854D01*
X13056434Y-11875854D01*
X13085006Y-11890140D01*
X13099291Y-11918711D01*
X13099291Y-12075854D01*
X13685006Y-11761569D02*
X13427863Y-12147283D01*
X14070720Y-11775854D02*
X14099291Y-11775854D01*
X14127863Y-11790140D01*
X14142148Y-11804426D01*
X14156434Y-11832997D01*
X14170720Y-11890140D01*
X14170720Y-11961569D01*
X14156434Y-12018711D01*
X14142148Y-12047283D01*
X14127863Y-12061569D01*
X14099291Y-12075854D01*
X14070720Y-12075854D01*
X14042148Y-12061569D01*
X14027863Y-12047283D01*
X14013577Y-12018711D01*
X13999291Y-11961569D01*
X13999291Y-11890140D01*
X14013577Y-11832997D01*
X14027863Y-11804426D01*
X14042148Y-11790140D01*
X14070720Y-11775854D01*
X14299291Y-12047283D02*
X14313577Y-12061569D01*
X14299291Y-12075854D01*
X14285006Y-12061569D01*
X14299291Y-12047283D01*
X14299291Y-12075854D01*
X14499291Y-11775854D02*
X14527863Y-11775854D01*
X14556434Y-11790140D01*
X14570720Y-11804426D01*
X14585006Y-11832997D01*
X14599291Y-11890140D01*
X14599291Y-11961569D01*
X14585006Y-12018711D01*
X14570720Y-12047283D01*
X14556434Y-12061569D01*
X14527863Y-12075854D01*
X14499291Y-12075854D01*
X14470720Y-12061569D01*
X14456434Y-12047283D01*
X14442148Y-12018711D01*
X14427863Y-11961569D01*
X14427863Y-11890140D01*
X14442148Y-11832997D01*
X14456434Y-11804426D01*
X14470720Y-11790140D01*
X14499291Y-11775854D01*
X14885006Y-12075854D02*
X14713577Y-12075854D01*
X14799291Y-12075854D02*
X14799291Y-11775854D01*
X14770720Y-11818711D01*
X14742148Y-11847283D01*
X14713577Y-11861569D01*
X14999291Y-11804426D02*
X15013577Y-11790140D01*
X15042148Y-11775854D01*
X15113577Y-11775854D01*
X15142148Y-11790140D01*
X15156434Y-11804426D01*
X15170720Y-11832997D01*
X15170720Y-11861569D01*
X15156434Y-11904426D01*
X14985006Y-12075854D01*
X15170720Y-12075854D01*
X15285006Y-11775854D02*
X15285006Y-11832997D01*
X15399291Y-11775854D02*
X15399291Y-11832997D01*
X15842148Y-12190140D02*
X15827863Y-12175854D01*
X15799291Y-12132997D01*
X15785006Y-12104426D01*
X15770720Y-12061569D01*
X15756434Y-11990140D01*
X15756434Y-11932997D01*
X15770720Y-11861569D01*
X15785006Y-11818711D01*
X15799291Y-11790140D01*
X15827863Y-11747283D01*
X15842148Y-11732997D01*
X16113577Y-12075854D02*
X15942148Y-12075854D01*
X16027863Y-12075854D02*
X16027863Y-11775854D01*
X15999291Y-11818711D01*
X15970720Y-11847283D01*
X15942148Y-11861569D01*
X16213577Y-11775854D02*
X16399291Y-11775854D01*
X16299291Y-11890140D01*
X16342148Y-11890140D01*
X16370720Y-11904426D01*
X16385006Y-11918711D01*
X16399291Y-11947283D01*
X16399291Y-12018711D01*
X16385006Y-12047283D01*
X16370720Y-12061569D01*
X16342148Y-12075854D01*
X16256434Y-12075854D01*
X16227863Y-12061569D01*
X16213577Y-12047283D01*
X16542148Y-12075854D02*
X16599291Y-12075854D01*
X16627863Y-12061569D01*
X16642148Y-12047283D01*
X16670720Y-12004426D01*
X16685006Y-11947283D01*
X16685006Y-11832997D01*
X16670720Y-11804426D01*
X16656434Y-11790140D01*
X16627863Y-11775854D01*
X16570720Y-11775854D01*
X16542148Y-11790140D01*
X16527863Y-11804426D01*
X16513577Y-11832997D01*
X16513577Y-11904426D01*
X16527863Y-11932997D01*
X16542148Y-11947283D01*
X16570720Y-11961569D01*
X16627863Y-11961569D01*
X16656434Y-11947283D01*
X16670720Y-11932997D01*
X16685006Y-11904426D01*
X17042148Y-12075854D02*
X17042148Y-11775854D01*
X17170720Y-12075854D02*
X17170720Y-11918711D01*
X17156434Y-11890140D01*
X17127863Y-11875854D01*
X17085006Y-11875854D01*
X17056434Y-11890140D01*
X17042148Y-11904426D01*
X17356434Y-12075854D02*
X17327863Y-12061569D01*
X17313577Y-12047283D01*
X17299291Y-12018711D01*
X17299291Y-11932997D01*
X17313577Y-11904426D01*
X17327863Y-11890140D01*
X17356434Y-11875854D01*
X17399291Y-11875854D01*
X17427863Y-11890140D01*
X17442148Y-11904426D01*
X17456434Y-11932997D01*
X17456434Y-12018711D01*
X17442148Y-12047283D01*
X17427863Y-12061569D01*
X17399291Y-12075854D01*
X17356434Y-12075854D01*
X17627863Y-12075854D02*
X17599291Y-12061569D01*
X17585006Y-12032997D01*
X17585006Y-11775854D01*
X17856434Y-12061569D02*
X17827863Y-12075854D01*
X17770720Y-12075854D01*
X17742148Y-12061569D01*
X17727863Y-12032997D01*
X17727863Y-11918711D01*
X17742148Y-11890140D01*
X17770720Y-11875854D01*
X17827863Y-11875854D01*
X17856434Y-11890140D01*
X17870720Y-11918711D01*
X17870720Y-11947283D01*
X17727863Y-11975854D01*
X17985006Y-12061569D02*
X18013577Y-12075854D01*
X18070720Y-12075854D01*
X18099291Y-12061569D01*
X18113577Y-12032997D01*
X18113577Y-12018711D01*
X18099291Y-11990140D01*
X18070720Y-11975854D01*
X18027863Y-11975854D01*
X17999291Y-11961569D01*
X17985006Y-11932997D01*
X17985006Y-11918711D01*
X17999291Y-11890140D01*
X18027863Y-11875854D01*
X18070720Y-11875854D01*
X18099291Y-11890140D01*
X18213577Y-12190140D02*
X18227863Y-12175854D01*
X18256434Y-12132997D01*
X18270720Y-12104426D01*
X18285006Y-12061569D01*
X18299291Y-11990140D01*
X18299291Y-11932997D01*
X18285006Y-11861569D01*
X18270720Y-11818711D01*
X18256434Y-11790140D01*
X18227863Y-11747283D01*
X18213577Y-11732997D01*
X11135720Y-12316140D02*
X11135720Y-12356140D01*
X11115720Y-12336140D02*
X11155720Y-12336140D01*
X11499291Y-12171854D02*
X11527863Y-12171854D01*
X11556434Y-12186140D01*
X11570720Y-12200426D01*
X11585006Y-12228997D01*
X11599291Y-12286140D01*
X11599291Y-12357569D01*
X11585006Y-12414711D01*
X11570720Y-12443283D01*
X11556434Y-12457569D01*
X11527863Y-12471854D01*
X11499291Y-12471854D01*
X11470720Y-12457569D01*
X11456434Y-12443283D01*
X11442148Y-12414711D01*
X11427863Y-12357569D01*
X11427863Y-12286140D01*
X11442148Y-12228997D01*
X11456434Y-12200426D01*
X11470720Y-12186140D01*
X11499291Y-12171854D01*
X11727863Y-12443283D02*
X11742148Y-12457569D01*
X11727863Y-12471854D01*
X11713577Y-12457569D01*
X11727863Y-12443283D01*
X11727863Y-12471854D01*
X11999291Y-12271854D02*
X11999291Y-12471854D01*
X11927863Y-12157569D02*
X11856434Y-12371854D01*
X12042148Y-12371854D01*
X12213577Y-12171854D02*
X12242148Y-12171854D01*
X12270720Y-12186140D01*
X12285006Y-12200426D01*
X12299291Y-12228997D01*
X12313577Y-12286140D01*
X12313577Y-12357569D01*
X12299291Y-12414711D01*
X12285006Y-12443283D01*
X12270720Y-12457569D01*
X12242148Y-12471854D01*
X12213577Y-12471854D01*
X12185006Y-12457569D01*
X12170720Y-12443283D01*
X12156434Y-12414711D01*
X12142148Y-12357569D01*
X12142148Y-12286140D01*
X12156434Y-12228997D01*
X12170720Y-12200426D01*
X12185006Y-12186140D01*
X12213577Y-12171854D01*
X12442148Y-12471854D02*
X12442148Y-12271854D01*
X12442148Y-12300426D02*
X12456434Y-12286140D01*
X12485006Y-12271854D01*
X12527863Y-12271854D01*
X12556434Y-12286140D01*
X12570720Y-12314711D01*
X12570720Y-12471854D01*
X12570720Y-12314711D02*
X12585006Y-12286140D01*
X12613577Y-12271854D01*
X12656434Y-12271854D01*
X12685006Y-12286140D01*
X12699291Y-12314711D01*
X12699291Y-12471854D01*
X12842148Y-12471854D02*
X12842148Y-12271854D01*
X12842148Y-12300426D02*
X12856434Y-12286140D01*
X12885006Y-12271854D01*
X12927863Y-12271854D01*
X12956434Y-12286140D01*
X12970720Y-12314711D01*
X12970720Y-12471854D01*
X12970720Y-12314711D02*
X12985006Y-12286140D01*
X13013577Y-12271854D01*
X13056434Y-12271854D01*
X13085006Y-12286140D01*
X13099291Y-12314711D01*
X13099291Y-12471854D01*
X13685006Y-12157569D02*
X13427863Y-12543283D01*
X14070720Y-12171854D02*
X14099291Y-12171854D01*
X14127863Y-12186140D01*
X14142148Y-12200426D01*
X14156434Y-12228997D01*
X14170720Y-12286140D01*
X14170720Y-12357569D01*
X14156434Y-12414711D01*
X14142148Y-12443283D01*
X14127863Y-12457569D01*
X14099291Y-12471854D01*
X14070720Y-12471854D01*
X14042148Y-12457569D01*
X14027863Y-12443283D01*
X14013577Y-12414711D01*
X13999291Y-12357569D01*
X13999291Y-12286140D01*
X14013577Y-12228997D01*
X14027863Y-12200426D01*
X14042148Y-12186140D01*
X14070720Y-12171854D01*
X14299291Y-12443283D02*
X14313577Y-12457569D01*
X14299291Y-12471854D01*
X14285006Y-12457569D01*
X14299291Y-12443283D01*
X14299291Y-12471854D01*
X14499291Y-12171854D02*
X14527863Y-12171854D01*
X14556434Y-12186140D01*
X14570720Y-12200426D01*
X14585006Y-12228997D01*
X14599291Y-12286140D01*
X14599291Y-12357569D01*
X14585006Y-12414711D01*
X14570720Y-12443283D01*
X14556434Y-12457569D01*
X14527863Y-12471854D01*
X14499291Y-12471854D01*
X14470720Y-12457569D01*
X14456434Y-12443283D01*
X14442148Y-12414711D01*
X14427863Y-12357569D01*
X14427863Y-12286140D01*
X14442148Y-12228997D01*
X14456434Y-12200426D01*
X14470720Y-12186140D01*
X14499291Y-12171854D01*
X14885006Y-12471854D02*
X14713577Y-12471854D01*
X14799291Y-12471854D02*
X14799291Y-12171854D01*
X14770720Y-12214711D01*
X14742148Y-12243283D01*
X14713577Y-12257569D01*
X15142148Y-12171854D02*
X15085006Y-12171854D01*
X15056434Y-12186140D01*
X15042148Y-12200426D01*
X15013577Y-12243283D01*
X14999291Y-12300426D01*
X14999291Y-12414711D01*
X15013577Y-12443283D01*
X15027863Y-12457569D01*
X15056434Y-12471854D01*
X15113577Y-12471854D01*
X15142148Y-12457569D01*
X15156434Y-12443283D01*
X15170720Y-12414711D01*
X15170720Y-12343283D01*
X15156434Y-12314711D01*
X15142148Y-12300426D01*
X15113577Y-12286140D01*
X15056434Y-12286140D01*
X15027863Y-12300426D01*
X15013577Y-12314711D01*
X14999291Y-12343283D01*
X15285006Y-12171854D02*
X15285006Y-12228997D01*
X15399291Y-12171854D02*
X15399291Y-12228997D01*
X15842148Y-12586140D02*
X15827863Y-12571854D01*
X15799291Y-12528997D01*
X15785006Y-12500426D01*
X15770720Y-12457569D01*
X15756434Y-12386140D01*
X15756434Y-12328997D01*
X15770720Y-12257569D01*
X15785006Y-12214711D01*
X15799291Y-12186140D01*
X15827863Y-12143283D01*
X15842148Y-12128997D01*
X15942148Y-12200426D02*
X15956434Y-12186140D01*
X15985006Y-12171854D01*
X16056434Y-12171854D01*
X16085006Y-12186140D01*
X16099291Y-12200426D01*
X16113577Y-12228997D01*
X16113577Y-12257569D01*
X16099291Y-12300426D01*
X15927863Y-12471854D01*
X16113577Y-12471854D01*
X16213577Y-12171854D02*
X16399291Y-12171854D01*
X16299291Y-12286140D01*
X16342148Y-12286140D01*
X16370720Y-12300426D01*
X16385006Y-12314711D01*
X16399291Y-12343283D01*
X16399291Y-12414711D01*
X16385006Y-12443283D01*
X16370720Y-12457569D01*
X16342148Y-12471854D01*
X16256434Y-12471854D01*
X16227863Y-12457569D01*
X16213577Y-12443283D01*
X16756434Y-12471854D02*
X16756434Y-12171854D01*
X16885006Y-12471854D02*
X16885006Y-12314711D01*
X16870720Y-12286140D01*
X16842148Y-12271854D01*
X16799291Y-12271854D01*
X16770720Y-12286140D01*
X16756434Y-12300426D01*
X17070720Y-12471854D02*
X17042148Y-12457569D01*
X17027863Y-12443283D01*
X17013577Y-12414711D01*
X17013577Y-12328997D01*
X17027863Y-12300426D01*
X17042148Y-12286140D01*
X17070720Y-12271854D01*
X17113577Y-12271854D01*
X17142148Y-12286140D01*
X17156434Y-12300426D01*
X17170720Y-12328997D01*
X17170720Y-12414711D01*
X17156434Y-12443283D01*
X17142148Y-12457569D01*
X17113577Y-12471854D01*
X17070720Y-12471854D01*
X17342148Y-12471854D02*
X17313577Y-12457569D01*
X17299291Y-12428997D01*
X17299291Y-12171854D01*
X17570720Y-12457569D02*
X17542148Y-12471854D01*
X17485006Y-12471854D01*
X17456434Y-12457569D01*
X17442148Y-12428997D01*
X17442148Y-12314711D01*
X17456434Y-12286140D01*
X17485006Y-12271854D01*
X17542148Y-12271854D01*
X17570720Y-12286140D01*
X17585006Y-12314711D01*
X17585006Y-12343283D01*
X17442148Y-12371854D01*
X17699291Y-12457569D02*
X17727863Y-12471854D01*
X17785006Y-12471854D01*
X17813577Y-12457569D01*
X17827863Y-12428997D01*
X17827863Y-12414711D01*
X17813577Y-12386140D01*
X17785006Y-12371854D01*
X17742148Y-12371854D01*
X17713577Y-12357569D01*
X17699291Y-12328997D01*
X17699291Y-12314711D01*
X17713577Y-12286140D01*
X17742148Y-12271854D01*
X17785006Y-12271854D01*
X17813577Y-12286140D01*
X17927863Y-12586140D02*
X17942148Y-12571854D01*
X17970720Y-12528997D01*
X17985006Y-12500426D01*
X17999291Y-12457569D01*
X18013577Y-12386140D01*
X18013577Y-12328997D01*
X17999291Y-12257569D01*
X17985006Y-12214711D01*
X17970720Y-12186140D01*
X17942148Y-12143283D01*
X17927863Y-12128997D01*
X11148398Y-12749818D02*
X11148398Y-12714462D01*
X11113042Y-12714462D01*
X11113042Y-12749818D01*
X11148398Y-12749818D01*
X11499291Y-12567854D02*
X11527863Y-12567854D01*
X11556434Y-12582140D01*
X11570720Y-12596426D01*
X11585006Y-12624997D01*
X11599291Y-12682140D01*
X11599291Y-12753569D01*
X11585006Y-12810711D01*
X11570720Y-12839283D01*
X11556434Y-12853569D01*
X11527863Y-12867854D01*
X11499291Y-12867854D01*
X11470720Y-12853569D01*
X11456434Y-12839283D01*
X11442148Y-12810711D01*
X11427863Y-12753569D01*
X11427863Y-12682140D01*
X11442148Y-12624997D01*
X11456434Y-12596426D01*
X11470720Y-12582140D01*
X11499291Y-12567854D01*
X11727863Y-12839283D02*
X11742148Y-12853569D01*
X11727863Y-12867854D01*
X11713577Y-12853569D01*
X11727863Y-12839283D01*
X11727863Y-12867854D01*
X12013577Y-12567854D02*
X11870720Y-12567854D01*
X11856434Y-12710711D01*
X11870720Y-12696426D01*
X11899291Y-12682140D01*
X11970720Y-12682140D01*
X11999291Y-12696426D01*
X12013577Y-12710711D01*
X12027863Y-12739283D01*
X12027863Y-12810711D01*
X12013577Y-12839283D01*
X11999291Y-12853569D01*
X11970720Y-12867854D01*
X11899291Y-12867854D01*
X11870720Y-12853569D01*
X11856434Y-12839283D01*
X12213577Y-12567854D02*
X12242148Y-12567854D01*
X12270720Y-12582140D01*
X12285006Y-12596426D01*
X12299291Y-12624997D01*
X12313577Y-12682140D01*
X12313577Y-12753569D01*
X12299291Y-12810711D01*
X12285006Y-12839283D01*
X12270720Y-12853569D01*
X12242148Y-12867854D01*
X12213577Y-12867854D01*
X12185006Y-12853569D01*
X12170720Y-12839283D01*
X12156434Y-12810711D01*
X12142148Y-12753569D01*
X12142148Y-12682140D01*
X12156434Y-12624997D01*
X12170720Y-12596426D01*
X12185006Y-12582140D01*
X12213577Y-12567854D01*
X12442148Y-12867854D02*
X12442148Y-12667854D01*
X12442148Y-12696426D02*
X12456434Y-12682140D01*
X12485006Y-12667854D01*
X12527863Y-12667854D01*
X12556434Y-12682140D01*
X12570720Y-12710711D01*
X12570720Y-12867854D01*
X12570720Y-12710711D02*
X12585006Y-12682140D01*
X12613577Y-12667854D01*
X12656434Y-12667854D01*
X12685006Y-12682140D01*
X12699291Y-12710711D01*
X12699291Y-12867854D01*
X12842148Y-12867854D02*
X12842148Y-12667854D01*
X12842148Y-12696426D02*
X12856434Y-12682140D01*
X12885006Y-12667854D01*
X12927863Y-12667854D01*
X12956434Y-12682140D01*
X12970720Y-12710711D01*
X12970720Y-12867854D01*
X12970720Y-12710711D02*
X12985006Y-12682140D01*
X13013577Y-12667854D01*
X13056434Y-12667854D01*
X13085006Y-12682140D01*
X13099291Y-12710711D01*
X13099291Y-12867854D01*
X13685006Y-12553569D02*
X13427863Y-12939283D01*
X14070720Y-12567854D02*
X14099291Y-12567854D01*
X14127863Y-12582140D01*
X14142148Y-12596426D01*
X14156434Y-12624997D01*
X14170720Y-12682140D01*
X14170720Y-12753569D01*
X14156434Y-12810711D01*
X14142148Y-12839283D01*
X14127863Y-12853569D01*
X14099291Y-12867854D01*
X14070720Y-12867854D01*
X14042148Y-12853569D01*
X14027863Y-12839283D01*
X14013577Y-12810711D01*
X13999291Y-12753569D01*
X13999291Y-12682140D01*
X14013577Y-12624997D01*
X14027863Y-12596426D01*
X14042148Y-12582140D01*
X14070720Y-12567854D01*
X14299291Y-12839283D02*
X14313577Y-12853569D01*
X14299291Y-12867854D01*
X14285006Y-12853569D01*
X14299291Y-12839283D01*
X14299291Y-12867854D01*
X14499291Y-12567854D02*
X14527863Y-12567854D01*
X14556434Y-12582140D01*
X14570720Y-12596426D01*
X14585006Y-12624997D01*
X14599291Y-12682140D01*
X14599291Y-12753569D01*
X14585006Y-12810711D01*
X14570720Y-12839283D01*
X14556434Y-12853569D01*
X14527863Y-12867854D01*
X14499291Y-12867854D01*
X14470720Y-12853569D01*
X14456434Y-12839283D01*
X14442148Y-12810711D01*
X14427863Y-12753569D01*
X14427863Y-12682140D01*
X14442148Y-12624997D01*
X14456434Y-12596426D01*
X14470720Y-12582140D01*
X14499291Y-12567854D01*
X14713577Y-12596426D02*
X14727863Y-12582140D01*
X14756434Y-12567854D01*
X14827863Y-12567854D01*
X14856434Y-12582140D01*
X14870720Y-12596426D01*
X14885006Y-12624997D01*
X14885006Y-12653569D01*
X14870720Y-12696426D01*
X14699291Y-12867854D01*
X14885006Y-12867854D01*
X15070720Y-12567854D02*
X15099291Y-12567854D01*
X15127863Y-12582140D01*
X15142148Y-12596426D01*
X15156434Y-12624997D01*
X15170720Y-12682140D01*
X15170720Y-12753569D01*
X15156434Y-12810711D01*
X15142148Y-12839283D01*
X15127863Y-12853569D01*
X15099291Y-12867854D01*
X15070720Y-12867854D01*
X15042148Y-12853569D01*
X15027863Y-12839283D01*
X15013577Y-12810711D01*
X14999291Y-12753569D01*
X14999291Y-12682140D01*
X15013577Y-12624997D01*
X15027863Y-12596426D01*
X15042148Y-12582140D01*
X15070720Y-12567854D01*
X15285006Y-12567854D02*
X15285006Y-12624997D01*
X15399291Y-12567854D02*
X15399291Y-12624997D01*
X15842148Y-12982140D02*
X15827863Y-12967854D01*
X15799291Y-12924997D01*
X15785006Y-12896426D01*
X15770720Y-12853569D01*
X15756434Y-12782140D01*
X15756434Y-12724997D01*
X15770720Y-12653569D01*
X15785006Y-12610711D01*
X15799291Y-12582140D01*
X15827863Y-12539283D01*
X15842148Y-12524997D01*
X16113577Y-12867854D02*
X15942148Y-12867854D01*
X16027863Y-12867854D02*
X16027863Y-12567854D01*
X15999291Y-12610711D01*
X15970720Y-12639283D01*
X15942148Y-12653569D01*
X16370720Y-12667854D02*
X16370720Y-12867854D01*
X16299291Y-12553569D02*
X16227863Y-12767854D01*
X16413577Y-12767854D01*
X16756434Y-12867854D02*
X16756434Y-12567854D01*
X16885006Y-12867854D02*
X16885006Y-12710711D01*
X16870720Y-12682140D01*
X16842148Y-12667854D01*
X16799291Y-12667854D01*
X16770720Y-12682140D01*
X16756434Y-12696426D01*
X17070720Y-12867854D02*
X17042148Y-12853569D01*
X17027863Y-12839283D01*
X17013577Y-12810711D01*
X17013577Y-12724997D01*
X17027863Y-12696426D01*
X17042148Y-12682140D01*
X17070720Y-12667854D01*
X17113577Y-12667854D01*
X17142148Y-12682140D01*
X17156434Y-12696426D01*
X17170720Y-12724997D01*
X17170720Y-12810711D01*
X17156434Y-12839283D01*
X17142148Y-12853569D01*
X17113577Y-12867854D01*
X17070720Y-12867854D01*
X17342148Y-12867854D02*
X17313577Y-12853569D01*
X17299291Y-12824997D01*
X17299291Y-12567854D01*
X17570720Y-12853569D02*
X17542148Y-12867854D01*
X17485006Y-12867854D01*
X17456434Y-12853569D01*
X17442148Y-12824997D01*
X17442148Y-12710711D01*
X17456434Y-12682140D01*
X17485006Y-12667854D01*
X17542148Y-12667854D01*
X17570720Y-12682140D01*
X17585006Y-12710711D01*
X17585006Y-12739283D01*
X17442148Y-12767854D01*
X17699291Y-12853569D02*
X17727863Y-12867854D01*
X17785006Y-12867854D01*
X17813577Y-12853569D01*
X17827863Y-12824997D01*
X17827863Y-12810711D01*
X17813577Y-12782140D01*
X17785006Y-12767854D01*
X17742148Y-12767854D01*
X17713577Y-12753569D01*
X17699291Y-12724997D01*
X17699291Y-12710711D01*
X17713577Y-12682140D01*
X17742148Y-12667854D01*
X17785006Y-12667854D01*
X17813577Y-12682140D01*
X17927863Y-12982140D02*
X17942148Y-12967854D01*
X17970720Y-12924997D01*
X17985006Y-12896426D01*
X17999291Y-12853569D01*
X18013577Y-12782140D01*
X18013577Y-12724997D01*
X17999291Y-12653569D01*
X17985006Y-12610711D01*
X17970720Y-12582140D01*
X17942148Y-12539283D01*
X17927863Y-12524997D01*
X11125720Y-13158140D02*
X11155720Y-13128140D01*
X11125720Y-13098140D01*
X11095720Y-13128140D01*
X11125720Y-13158140D01*
X11499291Y-12963854D02*
X11527863Y-12963854D01*
X11556434Y-12978140D01*
X11570720Y-12992426D01*
X11585006Y-13020997D01*
X11599291Y-13078140D01*
X11599291Y-13149569D01*
X11585006Y-13206711D01*
X11570720Y-13235283D01*
X11556434Y-13249569D01*
X11527863Y-13263854D01*
X11499291Y-13263854D01*
X11470720Y-13249569D01*
X11456434Y-13235283D01*
X11442148Y-13206711D01*
X11427863Y-13149569D01*
X11427863Y-13078140D01*
X11442148Y-13020997D01*
X11456434Y-12992426D01*
X11470720Y-12978140D01*
X11499291Y-12963854D01*
X11727863Y-13235283D02*
X11742148Y-13249569D01*
X11727863Y-13263854D01*
X11713577Y-13249569D01*
X11727863Y-13235283D01*
X11727863Y-13263854D01*
X11999291Y-12963854D02*
X11942148Y-12963854D01*
X11913577Y-12978140D01*
X11899291Y-12992426D01*
X11870720Y-13035283D01*
X11856434Y-13092426D01*
X11856434Y-13206711D01*
X11870720Y-13235283D01*
X11885006Y-13249569D01*
X11913577Y-13263854D01*
X11970720Y-13263854D01*
X11999291Y-13249569D01*
X12013577Y-13235283D01*
X12027863Y-13206711D01*
X12027863Y-13135283D01*
X12013577Y-13106711D01*
X11999291Y-13092426D01*
X11970720Y-13078140D01*
X11913577Y-13078140D01*
X11885006Y-13092426D01*
X11870720Y-13106711D01*
X11856434Y-13135283D01*
X12213577Y-12963854D02*
X12242148Y-12963854D01*
X12270720Y-12978140D01*
X12285006Y-12992426D01*
X12299291Y-13020997D01*
X12313577Y-13078140D01*
X12313577Y-13149569D01*
X12299291Y-13206711D01*
X12285006Y-13235283D01*
X12270720Y-13249569D01*
X12242148Y-13263854D01*
X12213577Y-13263854D01*
X12185006Y-13249569D01*
X12170720Y-13235283D01*
X12156434Y-13206711D01*
X12142148Y-13149569D01*
X12142148Y-13078140D01*
X12156434Y-13020997D01*
X12170720Y-12992426D01*
X12185006Y-12978140D01*
X12213577Y-12963854D01*
X12442148Y-13263854D02*
X12442148Y-13063854D01*
X12442148Y-13092426D02*
X12456434Y-13078140D01*
X12485006Y-13063854D01*
X12527863Y-13063854D01*
X12556434Y-13078140D01*
X12570720Y-13106711D01*
X12570720Y-13263854D01*
X12570720Y-13106711D02*
X12585006Y-13078140D01*
X12613577Y-13063854D01*
X12656434Y-13063854D01*
X12685006Y-13078140D01*
X12699291Y-13106711D01*
X12699291Y-13263854D01*
X12842148Y-13263854D02*
X12842148Y-13063854D01*
X12842148Y-13092426D02*
X12856434Y-13078140D01*
X12885006Y-13063854D01*
X12927863Y-13063854D01*
X12956434Y-13078140D01*
X12970720Y-13106711D01*
X12970720Y-13263854D01*
X12970720Y-13106711D02*
X12985006Y-13078140D01*
X13013577Y-13063854D01*
X13056434Y-13063854D01*
X13085006Y-13078140D01*
X13099291Y-13106711D01*
X13099291Y-13263854D01*
X13685006Y-12949569D02*
X13427863Y-13335283D01*
X14070720Y-12963854D02*
X14099291Y-12963854D01*
X14127863Y-12978140D01*
X14142148Y-12992426D01*
X14156434Y-13020997D01*
X14170720Y-13078140D01*
X14170720Y-13149569D01*
X14156434Y-13206711D01*
X14142148Y-13235283D01*
X14127863Y-13249569D01*
X14099291Y-13263854D01*
X14070720Y-13263854D01*
X14042148Y-13249569D01*
X14027863Y-13235283D01*
X14013577Y-13206711D01*
X13999291Y-13149569D01*
X13999291Y-13078140D01*
X14013577Y-13020997D01*
X14027863Y-12992426D01*
X14042148Y-12978140D01*
X14070720Y-12963854D01*
X14299291Y-13235283D02*
X14313577Y-13249569D01*
X14299291Y-13263854D01*
X14285006Y-13249569D01*
X14299291Y-13235283D01*
X14299291Y-13263854D01*
X14499291Y-12963854D02*
X14527863Y-12963854D01*
X14556434Y-12978140D01*
X14570720Y-12992426D01*
X14585006Y-13020997D01*
X14599291Y-13078140D01*
X14599291Y-13149569D01*
X14585006Y-13206711D01*
X14570720Y-13235283D01*
X14556434Y-13249569D01*
X14527863Y-13263854D01*
X14499291Y-13263854D01*
X14470720Y-13249569D01*
X14456434Y-13235283D01*
X14442148Y-13206711D01*
X14427863Y-13149569D01*
X14427863Y-13078140D01*
X14442148Y-13020997D01*
X14456434Y-12992426D01*
X14470720Y-12978140D01*
X14499291Y-12963854D01*
X14713577Y-12992426D02*
X14727863Y-12978140D01*
X14756434Y-12963854D01*
X14827863Y-12963854D01*
X14856434Y-12978140D01*
X14870720Y-12992426D01*
X14885006Y-13020997D01*
X14885006Y-13049569D01*
X14870720Y-13092426D01*
X14699291Y-13263854D01*
X14885006Y-13263854D01*
X15142148Y-13063854D02*
X15142148Y-13263854D01*
X15070720Y-12949569D02*
X14999291Y-13163854D01*
X15185006Y-13163854D01*
X15285006Y-12963854D02*
X15285006Y-13020997D01*
X15399291Y-12963854D02*
X15399291Y-13020997D01*
X15842148Y-13378140D02*
X15827863Y-13363854D01*
X15799291Y-13320997D01*
X15785006Y-13292426D01*
X15770720Y-13249569D01*
X15756434Y-13178140D01*
X15756434Y-13120997D01*
X15770720Y-13049569D01*
X15785006Y-13006711D01*
X15799291Y-12978140D01*
X15827863Y-12935283D01*
X15842148Y-12920997D01*
X16013577Y-12963854D02*
X16042148Y-12963854D01*
X16070720Y-12978140D01*
X16085006Y-12992426D01*
X16099291Y-13020997D01*
X16113577Y-13078140D01*
X16113577Y-13149569D01*
X16099291Y-13206711D01*
X16085006Y-13235283D01*
X16070720Y-13249569D01*
X16042148Y-13263854D01*
X16013577Y-13263854D01*
X15985006Y-13249569D01*
X15970720Y-13235283D01*
X15956434Y-13206711D01*
X15942148Y-13149569D01*
X15942148Y-13078140D01*
X15956434Y-13020997D01*
X15970720Y-12992426D01*
X15985006Y-12978140D01*
X16013577Y-12963854D01*
X16470720Y-13263854D02*
X16470720Y-12963854D01*
X16599291Y-13263854D02*
X16599291Y-13106711D01*
X16585006Y-13078140D01*
X16556434Y-13063854D01*
X16513577Y-13063854D01*
X16485006Y-13078140D01*
X16470720Y-13092426D01*
X16785006Y-13263854D02*
X16756434Y-13249569D01*
X16742148Y-13235283D01*
X16727863Y-13206711D01*
X16727863Y-13120997D01*
X16742148Y-13092426D01*
X16756434Y-13078140D01*
X16785006Y-13063854D01*
X16827863Y-13063854D01*
X16856434Y-13078140D01*
X16870720Y-13092426D01*
X16885006Y-13120997D01*
X16885006Y-13206711D01*
X16870720Y-13235283D01*
X16856434Y-13249569D01*
X16827863Y-13263854D01*
X16785006Y-13263854D01*
X17056434Y-13263854D02*
X17027863Y-13249569D01*
X17013577Y-13220997D01*
X17013577Y-12963854D01*
X17285006Y-13249569D02*
X17256434Y-13263854D01*
X17199291Y-13263854D01*
X17170720Y-13249569D01*
X17156434Y-13220997D01*
X17156434Y-13106711D01*
X17170720Y-13078140D01*
X17199291Y-13063854D01*
X17256434Y-13063854D01*
X17285006Y-13078140D01*
X17299291Y-13106711D01*
X17299291Y-13135283D01*
X17156434Y-13163854D01*
X17413577Y-13249569D02*
X17442148Y-13263854D01*
X17499291Y-13263854D01*
X17527863Y-13249569D01*
X17542148Y-13220997D01*
X17542148Y-13206711D01*
X17527863Y-13178140D01*
X17499291Y-13163854D01*
X17456434Y-13163854D01*
X17427863Y-13149569D01*
X17413577Y-13120997D01*
X17413577Y-13106711D01*
X17427863Y-13078140D01*
X17456434Y-13063854D01*
X17499291Y-13063854D01*
X17527863Y-13078140D01*
X17899291Y-13149569D02*
X18127863Y-13149569D01*
X18013577Y-13263854D02*
X18013577Y-13035283D01*
X18627863Y-13063854D02*
X18627863Y-13263854D01*
X18556434Y-12949569D02*
X18485006Y-13163854D01*
X18670720Y-13163854D01*
X18999291Y-13249569D02*
X19027863Y-13263854D01*
X19085006Y-13263854D01*
X19113577Y-13249569D01*
X19127863Y-13220997D01*
X19127863Y-13206711D01*
X19113577Y-13178140D01*
X19085006Y-13163854D01*
X19042148Y-13163854D01*
X19013577Y-13149569D01*
X18999291Y-13120997D01*
X18999291Y-13106711D01*
X19013577Y-13078140D01*
X19042148Y-13063854D01*
X19085006Y-13063854D01*
X19113577Y-13078140D01*
X19299291Y-13263854D02*
X19270720Y-13249569D01*
X19256434Y-13220997D01*
X19256434Y-12963854D01*
X19456434Y-13263854D02*
X19427863Y-13249569D01*
X19413577Y-13235283D01*
X19399291Y-13206711D01*
X19399291Y-13120997D01*
X19413577Y-13092426D01*
X19427863Y-13078140D01*
X19456434Y-13063854D01*
X19499291Y-13063854D01*
X19527863Y-13078140D01*
X19542148Y-13092426D01*
X19556434Y-13120997D01*
X19556434Y-13206711D01*
X19542148Y-13235283D01*
X19527863Y-13249569D01*
X19499291Y-13263854D01*
X19456434Y-13263854D01*
X19642148Y-13063854D02*
X19756434Y-13063854D01*
X19685006Y-12963854D02*
X19685006Y-13220997D01*
X19699291Y-13249569D01*
X19727863Y-13263854D01*
X19756434Y-13263854D01*
X19842148Y-13249569D02*
X19870720Y-13263854D01*
X19927863Y-13263854D01*
X19956434Y-13249569D01*
X19970720Y-13220997D01*
X19970720Y-13206711D01*
X19956434Y-13178140D01*
X19927863Y-13163854D01*
X19885006Y-13163854D01*
X19856434Y-13149569D01*
X19842148Y-13120997D01*
X19842148Y-13106711D01*
X19856434Y-13078140D01*
X19885006Y-13063854D01*
X19927863Y-13063854D01*
X19956434Y-13078140D01*
X20070720Y-13378140D02*
X20085006Y-13363854D01*
X20113577Y-13320997D01*
X20127863Y-13292426D01*
X20142148Y-13249569D01*
X20156434Y-13178140D01*
X20156434Y-13120997D01*
X20142148Y-13049569D01*
X20127863Y-13006711D01*
X20113577Y-12978140D01*
X20085006Y-12935283D01*
X20070720Y-12920997D01*
X11075720Y-13484140D02*
X11155720Y-13564140D01*
X11155720Y-13484140D02*
X11075720Y-13564140D01*
X11155720Y-13524140D02*
G75*
G03X11155720Y-13524140I-40000J0D01*
G01*
X11499291Y-13359854D02*
X11527863Y-13359854D01*
X11556434Y-13374140D01*
X11570720Y-13388426D01*
X11585006Y-13416997D01*
X11599291Y-13474140D01*
X11599291Y-13545569D01*
X11585006Y-13602711D01*
X11570720Y-13631283D01*
X11556434Y-13645569D01*
X11527863Y-13659854D01*
X11499291Y-13659854D01*
X11470720Y-13645569D01*
X11456434Y-13631283D01*
X11442148Y-13602711D01*
X11427863Y-13545569D01*
X11427863Y-13474140D01*
X11442148Y-13416997D01*
X11456434Y-13388426D01*
X11470720Y-13374140D01*
X11499291Y-13359854D01*
X11727863Y-13631283D02*
X11742148Y-13645569D01*
X11727863Y-13659854D01*
X11713577Y-13645569D01*
X11727863Y-13631283D01*
X11727863Y-13659854D01*
X11913577Y-13488426D02*
X11885006Y-13474140D01*
X11870720Y-13459854D01*
X11856434Y-13431283D01*
X11856434Y-13416997D01*
X11870720Y-13388426D01*
X11885006Y-13374140D01*
X11913577Y-13359854D01*
X11970720Y-13359854D01*
X11999291Y-13374140D01*
X12013577Y-13388426D01*
X12027863Y-13416997D01*
X12027863Y-13431283D01*
X12013577Y-13459854D01*
X11999291Y-13474140D01*
X11970720Y-13488426D01*
X11913577Y-13488426D01*
X11885006Y-13502711D01*
X11870720Y-13516997D01*
X11856434Y-13545569D01*
X11856434Y-13602711D01*
X11870720Y-13631283D01*
X11885006Y-13645569D01*
X11913577Y-13659854D01*
X11970720Y-13659854D01*
X11999291Y-13645569D01*
X12013577Y-13631283D01*
X12027863Y-13602711D01*
X12027863Y-13545569D01*
X12013577Y-13516997D01*
X11999291Y-13502711D01*
X11970720Y-13488426D01*
X12213577Y-13359854D02*
X12242148Y-13359854D01*
X12270720Y-13374140D01*
X12285006Y-13388426D01*
X12299291Y-13416997D01*
X12313577Y-13474140D01*
X12313577Y-13545569D01*
X12299291Y-13602711D01*
X12285006Y-13631283D01*
X12270720Y-13645569D01*
X12242148Y-13659854D01*
X12213577Y-13659854D01*
X12185006Y-13645569D01*
X12170720Y-13631283D01*
X12156434Y-13602711D01*
X12142148Y-13545569D01*
X12142148Y-13474140D01*
X12156434Y-13416997D01*
X12170720Y-13388426D01*
X12185006Y-13374140D01*
X12213577Y-13359854D01*
X12442148Y-13659854D02*
X12442148Y-13459854D01*
X12442148Y-13488426D02*
X12456434Y-13474140D01*
X12485006Y-13459854D01*
X12527863Y-13459854D01*
X12556434Y-13474140D01*
X12570720Y-13502711D01*
X12570720Y-13659854D01*
X12570720Y-13502711D02*
X12585006Y-13474140D01*
X12613577Y-13459854D01*
X12656434Y-13459854D01*
X12685006Y-13474140D01*
X12699291Y-13502711D01*
X12699291Y-13659854D01*
X12842148Y-13659854D02*
X12842148Y-13459854D01*
X12842148Y-13488426D02*
X12856434Y-13474140D01*
X12885006Y-13459854D01*
X12927863Y-13459854D01*
X12956434Y-13474140D01*
X12970720Y-13502711D01*
X12970720Y-13659854D01*
X12970720Y-13502711D02*
X12985006Y-13474140D01*
X13013577Y-13459854D01*
X13056434Y-13459854D01*
X13085006Y-13474140D01*
X13099291Y-13502711D01*
X13099291Y-13659854D01*
X13685006Y-13345569D02*
X13427863Y-13731283D01*
X14070720Y-13359854D02*
X14099291Y-13359854D01*
X14127863Y-13374140D01*
X14142148Y-13388426D01*
X14156434Y-13416997D01*
X14170720Y-13474140D01*
X14170720Y-13545569D01*
X14156434Y-13602711D01*
X14142148Y-13631283D01*
X14127863Y-13645569D01*
X14099291Y-13659854D01*
X14070720Y-13659854D01*
X14042148Y-13645569D01*
X14027863Y-13631283D01*
X14013577Y-13602711D01*
X13999291Y-13545569D01*
X13999291Y-13474140D01*
X14013577Y-13416997D01*
X14027863Y-13388426D01*
X14042148Y-13374140D01*
X14070720Y-13359854D01*
X14299291Y-13631283D02*
X14313577Y-13645569D01*
X14299291Y-13659854D01*
X14285006Y-13645569D01*
X14299291Y-13631283D01*
X14299291Y-13659854D01*
X14499291Y-13359854D02*
X14527863Y-13359854D01*
X14556434Y-13374140D01*
X14570720Y-13388426D01*
X14585006Y-13416997D01*
X14599291Y-13474140D01*
X14599291Y-13545569D01*
X14585006Y-13602711D01*
X14570720Y-13631283D01*
X14556434Y-13645569D01*
X14527863Y-13659854D01*
X14499291Y-13659854D01*
X14470720Y-13645569D01*
X14456434Y-13631283D01*
X14442148Y-13602711D01*
X14427863Y-13545569D01*
X14427863Y-13474140D01*
X14442148Y-13416997D01*
X14456434Y-13388426D01*
X14470720Y-13374140D01*
X14499291Y-13359854D01*
X14699291Y-13359854D02*
X14885006Y-13359854D01*
X14785006Y-13474140D01*
X14827863Y-13474140D01*
X14856434Y-13488426D01*
X14870720Y-13502711D01*
X14885006Y-13531283D01*
X14885006Y-13602711D01*
X14870720Y-13631283D01*
X14856434Y-13645569D01*
X14827863Y-13659854D01*
X14742148Y-13659854D01*
X14713577Y-13645569D01*
X14699291Y-13631283D01*
X15170720Y-13659854D02*
X14999291Y-13659854D01*
X15085006Y-13659854D02*
X15085006Y-13359854D01*
X15056434Y-13402711D01*
X15027863Y-13431283D01*
X14999291Y-13445569D01*
X15285006Y-13359854D02*
X15285006Y-13416997D01*
X15399291Y-13359854D02*
X15399291Y-13416997D01*
X15842148Y-13774140D02*
X15827863Y-13759854D01*
X15799291Y-13716997D01*
X15785006Y-13688426D01*
X15770720Y-13645569D01*
X15756434Y-13574140D01*
X15756434Y-13516997D01*
X15770720Y-13445569D01*
X15785006Y-13402711D01*
X15799291Y-13374140D01*
X15827863Y-13331283D01*
X15842148Y-13316997D01*
X15927863Y-13359854D02*
X16113577Y-13359854D01*
X16013577Y-13474140D01*
X16056434Y-13474140D01*
X16085006Y-13488426D01*
X16099291Y-13502711D01*
X16113577Y-13531283D01*
X16113577Y-13602711D01*
X16099291Y-13631283D01*
X16085006Y-13645569D01*
X16056434Y-13659854D01*
X15970720Y-13659854D01*
X15942148Y-13645569D01*
X15927863Y-13631283D01*
X16285006Y-13488426D02*
X16256434Y-13474140D01*
X16242148Y-13459854D01*
X16227863Y-13431283D01*
X16227863Y-13416997D01*
X16242148Y-13388426D01*
X16256434Y-13374140D01*
X16285006Y-13359854D01*
X16342148Y-13359854D01*
X16370720Y-13374140D01*
X16385006Y-13388426D01*
X16399291Y-13416997D01*
X16399291Y-13431283D01*
X16385006Y-13459854D01*
X16370720Y-13474140D01*
X16342148Y-13488426D01*
X16285006Y-13488426D01*
X16256434Y-13502711D01*
X16242148Y-13516997D01*
X16227863Y-13545569D01*
X16227863Y-13602711D01*
X16242148Y-13631283D01*
X16256434Y-13645569D01*
X16285006Y-13659854D01*
X16342148Y-13659854D01*
X16370720Y-13645569D01*
X16385006Y-13631283D01*
X16399291Y-13602711D01*
X16399291Y-13545569D01*
X16385006Y-13516997D01*
X16370720Y-13502711D01*
X16342148Y-13488426D01*
X16756434Y-13659854D02*
X16756434Y-13359854D01*
X16885006Y-13659854D02*
X16885006Y-13502711D01*
X16870720Y-13474140D01*
X16842148Y-13459854D01*
X16799291Y-13459854D01*
X16770720Y-13474140D01*
X16756434Y-13488426D01*
X17070720Y-13659854D02*
X17042148Y-13645569D01*
X17027863Y-13631283D01*
X17013577Y-13602711D01*
X17013577Y-13516997D01*
X17027863Y-13488426D01*
X17042148Y-13474140D01*
X17070720Y-13459854D01*
X17113577Y-13459854D01*
X17142148Y-13474140D01*
X17156434Y-13488426D01*
X17170720Y-13516997D01*
X17170720Y-13602711D01*
X17156434Y-13631283D01*
X17142148Y-13645569D01*
X17113577Y-13659854D01*
X17070720Y-13659854D01*
X17342148Y-13659854D02*
X17313577Y-13645569D01*
X17299291Y-13616997D01*
X17299291Y-13359854D01*
X17570720Y-13645569D02*
X17542148Y-13659854D01*
X17485006Y-13659854D01*
X17456434Y-13645569D01*
X17442148Y-13616997D01*
X17442148Y-13502711D01*
X17456434Y-13474140D01*
X17485006Y-13459854D01*
X17542148Y-13459854D01*
X17570720Y-13474140D01*
X17585006Y-13502711D01*
X17585006Y-13531283D01*
X17442148Y-13559854D01*
X17699291Y-13645569D02*
X17727863Y-13659854D01*
X17785006Y-13659854D01*
X17813577Y-13645569D01*
X17827863Y-13616997D01*
X17827863Y-13602711D01*
X17813577Y-13574140D01*
X17785006Y-13559854D01*
X17742148Y-13559854D01*
X17713577Y-13545569D01*
X17699291Y-13516997D01*
X17699291Y-13502711D01*
X17713577Y-13474140D01*
X17742148Y-13459854D01*
X17785006Y-13459854D01*
X17813577Y-13474140D01*
X17927863Y-13774140D02*
X17942148Y-13759854D01*
X17970720Y-13716997D01*
X17985006Y-13688426D01*
X17999291Y-13645569D01*
X18013577Y-13574140D01*
X18013577Y-13516997D01*
X17999291Y-13445569D01*
X17985006Y-13402711D01*
X17970720Y-13374140D01*
X17942148Y-13331283D01*
X17927863Y-13316997D01*
X11060720Y-13872640D02*
X11155720Y-13967640D01*
X11155720Y-13872640D02*
X11060720Y-13967640D01*
X11108220Y-13872640D02*
X11108220Y-13967640D01*
X11060720Y-13920140D02*
X11155720Y-13920140D01*
X11499291Y-13755854D02*
X11527863Y-13755854D01*
X11556434Y-13770140D01*
X11570720Y-13784426D01*
X11585006Y-13812997D01*
X11599291Y-13870140D01*
X11599291Y-13941569D01*
X11585006Y-13998711D01*
X11570720Y-14027283D01*
X11556434Y-14041569D01*
X11527863Y-14055854D01*
X11499291Y-14055854D01*
X11470720Y-14041569D01*
X11456434Y-14027283D01*
X11442148Y-13998711D01*
X11427863Y-13941569D01*
X11427863Y-13870140D01*
X11442148Y-13812997D01*
X11456434Y-13784426D01*
X11470720Y-13770140D01*
X11499291Y-13755854D01*
X11727863Y-14027283D02*
X11742148Y-14041569D01*
X11727863Y-14055854D01*
X11713577Y-14041569D01*
X11727863Y-14027283D01*
X11727863Y-14055854D01*
X11885006Y-14055854D02*
X11942148Y-14055854D01*
X11970720Y-14041569D01*
X11985006Y-14027283D01*
X12013577Y-13984426D01*
X12027863Y-13927283D01*
X12027863Y-13812997D01*
X12013577Y-13784426D01*
X11999291Y-13770140D01*
X11970720Y-13755854D01*
X11913577Y-13755854D01*
X11885006Y-13770140D01*
X11870720Y-13784426D01*
X11856434Y-13812997D01*
X11856434Y-13884426D01*
X11870720Y-13912997D01*
X11885006Y-13927283D01*
X11913577Y-13941569D01*
X11970720Y-13941569D01*
X11999291Y-13927283D01*
X12013577Y-13912997D01*
X12027863Y-13884426D01*
X12299291Y-13755854D02*
X12156434Y-13755854D01*
X12142148Y-13898711D01*
X12156434Y-13884426D01*
X12185006Y-13870140D01*
X12256434Y-13870140D01*
X12285006Y-13884426D01*
X12299291Y-13898711D01*
X12313577Y-13927283D01*
X12313577Y-13998711D01*
X12299291Y-14027283D01*
X12285006Y-14041569D01*
X12256434Y-14055854D01*
X12185006Y-14055854D01*
X12156434Y-14041569D01*
X12142148Y-14027283D01*
X12442148Y-14055854D02*
X12442148Y-13855854D01*
X12442148Y-13884426D02*
X12456434Y-13870140D01*
X12485006Y-13855854D01*
X12527863Y-13855854D01*
X12556434Y-13870140D01*
X12570720Y-13898711D01*
X12570720Y-14055854D01*
X12570720Y-13898711D02*
X12585006Y-13870140D01*
X12613577Y-13855854D01*
X12656434Y-13855854D01*
X12685006Y-13870140D01*
X12699291Y-13898711D01*
X12699291Y-14055854D01*
X12842148Y-14055854D02*
X12842148Y-13855854D01*
X12842148Y-13884426D02*
X12856434Y-13870140D01*
X12885006Y-13855854D01*
X12927863Y-13855854D01*
X12956434Y-13870140D01*
X12970720Y-13898711D01*
X12970720Y-14055854D01*
X12970720Y-13898711D02*
X12985006Y-13870140D01*
X13013577Y-13855854D01*
X13056434Y-13855854D01*
X13085006Y-13870140D01*
X13099291Y-13898711D01*
X13099291Y-14055854D01*
X13685006Y-13741569D02*
X13427863Y-14127283D01*
X14070720Y-13755854D02*
X14099291Y-13755854D01*
X14127863Y-13770140D01*
X14142148Y-13784426D01*
X14156434Y-13812997D01*
X14170720Y-13870140D01*
X14170720Y-13941569D01*
X14156434Y-13998711D01*
X14142148Y-14027283D01*
X14127863Y-14041569D01*
X14099291Y-14055854D01*
X14070720Y-14055854D01*
X14042148Y-14041569D01*
X14027863Y-14027283D01*
X14013577Y-13998711D01*
X13999291Y-13941569D01*
X13999291Y-13870140D01*
X14013577Y-13812997D01*
X14027863Y-13784426D01*
X14042148Y-13770140D01*
X14070720Y-13755854D01*
X14299291Y-14027283D02*
X14313577Y-14041569D01*
X14299291Y-14055854D01*
X14285006Y-14041569D01*
X14299291Y-14027283D01*
X14299291Y-14055854D01*
X14499291Y-13755854D02*
X14527863Y-13755854D01*
X14556434Y-13770140D01*
X14570720Y-13784426D01*
X14585006Y-13812997D01*
X14599291Y-13870140D01*
X14599291Y-13941569D01*
X14585006Y-13998711D01*
X14570720Y-14027283D01*
X14556434Y-14041569D01*
X14527863Y-14055854D01*
X14499291Y-14055854D01*
X14470720Y-14041569D01*
X14456434Y-14027283D01*
X14442148Y-13998711D01*
X14427863Y-13941569D01*
X14427863Y-13870140D01*
X14442148Y-13812997D01*
X14456434Y-13784426D01*
X14470720Y-13770140D01*
X14499291Y-13755854D01*
X14699291Y-13755854D02*
X14885006Y-13755854D01*
X14785006Y-13870140D01*
X14827863Y-13870140D01*
X14856434Y-13884426D01*
X14870720Y-13898711D01*
X14885006Y-13927283D01*
X14885006Y-13998711D01*
X14870720Y-14027283D01*
X14856434Y-14041569D01*
X14827863Y-14055854D01*
X14742148Y-14055854D01*
X14713577Y-14041569D01*
X14699291Y-14027283D01*
X14985006Y-13755854D02*
X15185006Y-13755854D01*
X15056434Y-14055854D01*
X15285006Y-13755854D02*
X15285006Y-13812997D01*
X15399291Y-13755854D02*
X15399291Y-13812997D01*
X15842148Y-14170140D02*
X15827863Y-14155854D01*
X15799291Y-14112997D01*
X15785006Y-14084426D01*
X15770720Y-14041569D01*
X15756434Y-13970140D01*
X15756434Y-13912997D01*
X15770720Y-13841569D01*
X15785006Y-13798711D01*
X15799291Y-13770140D01*
X15827863Y-13727283D01*
X15842148Y-13712997D01*
X15970720Y-14055854D02*
X16027863Y-14055854D01*
X16056434Y-14041569D01*
X16070720Y-14027283D01*
X16099291Y-13984426D01*
X16113577Y-13927283D01*
X16113577Y-13812997D01*
X16099291Y-13784426D01*
X16085006Y-13770140D01*
X16056434Y-13755854D01*
X15999291Y-13755854D01*
X15970720Y-13770140D01*
X15956434Y-13784426D01*
X15942148Y-13812997D01*
X15942148Y-13884426D01*
X15956434Y-13912997D01*
X15970720Y-13927283D01*
X15999291Y-13941569D01*
X16056434Y-13941569D01*
X16085006Y-13927283D01*
X16099291Y-13912997D01*
X16113577Y-13884426D01*
X16470720Y-14055854D02*
X16470720Y-13755854D01*
X16599291Y-14055854D02*
X16599291Y-13898711D01*
X16585006Y-13870140D01*
X16556434Y-13855854D01*
X16513577Y-13855854D01*
X16485006Y-13870140D01*
X16470720Y-13884426D01*
X16785006Y-14055854D02*
X16756434Y-14041569D01*
X16742148Y-14027283D01*
X16727863Y-13998711D01*
X16727863Y-13912997D01*
X16742148Y-13884426D01*
X16756434Y-13870140D01*
X16785006Y-13855854D01*
X16827863Y-13855854D01*
X16856434Y-13870140D01*
X16870720Y-13884426D01*
X16885006Y-13912997D01*
X16885006Y-13998711D01*
X16870720Y-14027283D01*
X16856434Y-14041569D01*
X16827863Y-14055854D01*
X16785006Y-14055854D01*
X17056434Y-14055854D02*
X17027863Y-14041569D01*
X17013577Y-14012997D01*
X17013577Y-13755854D01*
X17285006Y-14041569D02*
X17256434Y-14055854D01*
X17199291Y-14055854D01*
X17170720Y-14041569D01*
X17156434Y-14012997D01*
X17156434Y-13898711D01*
X17170720Y-13870140D01*
X17199291Y-13855854D01*
X17256434Y-13855854D01*
X17285006Y-13870140D01*
X17299291Y-13898711D01*
X17299291Y-13927283D01*
X17156434Y-13955854D01*
X17413577Y-14041569D02*
X17442148Y-14055854D01*
X17499291Y-14055854D01*
X17527863Y-14041569D01*
X17542148Y-14012997D01*
X17542148Y-13998711D01*
X17527863Y-13970140D01*
X17499291Y-13955854D01*
X17456434Y-13955854D01*
X17427863Y-13941569D01*
X17413577Y-13912997D01*
X17413577Y-13898711D01*
X17427863Y-13870140D01*
X17456434Y-13855854D01*
X17499291Y-13855854D01*
X17527863Y-13870140D01*
X17642148Y-14170140D02*
X17656434Y-14155854D01*
X17685006Y-14112997D01*
X17699291Y-14084426D01*
X17713577Y-14041569D01*
X17727863Y-13970140D01*
X17727863Y-13912997D01*
X17713577Y-13841569D01*
X17699291Y-13798711D01*
X17685006Y-13770140D01*
X17656434Y-13727283D01*
X17642148Y-13712997D01*
X11055720Y-14266140D02*
X11155720Y-14366140D01*
X11155720Y-14266140D02*
X11055720Y-14366140D01*
X11141076Y-14351496D02*
X11141076Y-14280784D01*
X11070364Y-14280784D01*
X11070364Y-14351496D01*
X11141076Y-14351496D01*
X11599291Y-14451854D02*
X11427863Y-14451854D01*
X11513577Y-14451854D02*
X11513577Y-14151854D01*
X11485006Y-14194711D01*
X11456434Y-14223283D01*
X11427863Y-14237569D01*
X11727863Y-14423283D02*
X11742148Y-14437569D01*
X11727863Y-14451854D01*
X11713577Y-14437569D01*
X11727863Y-14423283D01*
X11727863Y-14451854D01*
X11927863Y-14151854D02*
X11956434Y-14151854D01*
X11985006Y-14166140D01*
X11999291Y-14180426D01*
X12013577Y-14208997D01*
X12027863Y-14266140D01*
X12027863Y-14337569D01*
X12013577Y-14394711D01*
X11999291Y-14423283D01*
X11985006Y-14437569D01*
X11956434Y-14451854D01*
X11927863Y-14451854D01*
X11899291Y-14437569D01*
X11885006Y-14423283D01*
X11870720Y-14394711D01*
X11856434Y-14337569D01*
X11856434Y-14266140D01*
X11870720Y-14208997D01*
X11885006Y-14180426D01*
X11899291Y-14166140D01*
X11927863Y-14151854D01*
X12213577Y-14151854D02*
X12242148Y-14151854D01*
X12270720Y-14166140D01*
X12285006Y-14180426D01*
X12299291Y-14208997D01*
X12313577Y-14266140D01*
X12313577Y-14337569D01*
X12299291Y-14394711D01*
X12285006Y-14423283D01*
X12270720Y-14437569D01*
X12242148Y-14451854D01*
X12213577Y-14451854D01*
X12185006Y-14437569D01*
X12170720Y-14423283D01*
X12156434Y-14394711D01*
X12142148Y-14337569D01*
X12142148Y-14266140D01*
X12156434Y-14208997D01*
X12170720Y-14180426D01*
X12185006Y-14166140D01*
X12213577Y-14151854D01*
X12442148Y-14451854D02*
X12442148Y-14251854D01*
X12442148Y-14280426D02*
X12456434Y-14266140D01*
X12485006Y-14251854D01*
X12527863Y-14251854D01*
X12556434Y-14266140D01*
X12570720Y-14294711D01*
X12570720Y-14451854D01*
X12570720Y-14294711D02*
X12585006Y-14266140D01*
X12613577Y-14251854D01*
X12656434Y-14251854D01*
X12685006Y-14266140D01*
X12699291Y-14294711D01*
X12699291Y-14451854D01*
X12842148Y-14451854D02*
X12842148Y-14251854D01*
X12842148Y-14280426D02*
X12856434Y-14266140D01*
X12885006Y-14251854D01*
X12927863Y-14251854D01*
X12956434Y-14266140D01*
X12970720Y-14294711D01*
X12970720Y-14451854D01*
X12970720Y-14294711D02*
X12985006Y-14266140D01*
X13013577Y-14251854D01*
X13056434Y-14251854D01*
X13085006Y-14266140D01*
X13099291Y-14294711D01*
X13099291Y-14451854D01*
X13685006Y-14137569D02*
X13427863Y-14523283D01*
X14070720Y-14151854D02*
X14099291Y-14151854D01*
X14127863Y-14166140D01*
X14142148Y-14180426D01*
X14156434Y-14208997D01*
X14170720Y-14266140D01*
X14170720Y-14337569D01*
X14156434Y-14394711D01*
X14142148Y-14423283D01*
X14127863Y-14437569D01*
X14099291Y-14451854D01*
X14070720Y-14451854D01*
X14042148Y-14437569D01*
X14027863Y-14423283D01*
X14013577Y-14394711D01*
X13999291Y-14337569D01*
X13999291Y-14266140D01*
X14013577Y-14208997D01*
X14027863Y-14180426D01*
X14042148Y-14166140D01*
X14070720Y-14151854D01*
X14299291Y-14423283D02*
X14313577Y-14437569D01*
X14299291Y-14451854D01*
X14285006Y-14437569D01*
X14299291Y-14423283D01*
X14299291Y-14451854D01*
X14499291Y-14151854D02*
X14527863Y-14151854D01*
X14556434Y-14166140D01*
X14570720Y-14180426D01*
X14585006Y-14208997D01*
X14599291Y-14266140D01*
X14599291Y-14337569D01*
X14585006Y-14394711D01*
X14570720Y-14423283D01*
X14556434Y-14437569D01*
X14527863Y-14451854D01*
X14499291Y-14451854D01*
X14470720Y-14437569D01*
X14456434Y-14423283D01*
X14442148Y-14394711D01*
X14427863Y-14337569D01*
X14427863Y-14266140D01*
X14442148Y-14208997D01*
X14456434Y-14180426D01*
X14470720Y-14166140D01*
X14499291Y-14151854D01*
X14699291Y-14151854D02*
X14885006Y-14151854D01*
X14785006Y-14266140D01*
X14827863Y-14266140D01*
X14856434Y-14280426D01*
X14870720Y-14294711D01*
X14885006Y-14323283D01*
X14885006Y-14394711D01*
X14870720Y-14423283D01*
X14856434Y-14437569D01*
X14827863Y-14451854D01*
X14742148Y-14451854D01*
X14713577Y-14437569D01*
X14699291Y-14423283D01*
X15027863Y-14451854D02*
X15085006Y-14451854D01*
X15113577Y-14437569D01*
X15127863Y-14423283D01*
X15156434Y-14380426D01*
X15170720Y-14323283D01*
X15170720Y-14208997D01*
X15156434Y-14180426D01*
X15142148Y-14166140D01*
X15113577Y-14151854D01*
X15056434Y-14151854D01*
X15027863Y-14166140D01*
X15013577Y-14180426D01*
X14999291Y-14208997D01*
X14999291Y-14280426D01*
X15013577Y-14308997D01*
X15027863Y-14323283D01*
X15056434Y-14337569D01*
X15113577Y-14337569D01*
X15142148Y-14323283D01*
X15156434Y-14308997D01*
X15170720Y-14280426D01*
X15285006Y-14151854D02*
X15285006Y-14208997D01*
X15399291Y-14151854D02*
X15399291Y-14208997D01*
X15842148Y-14566140D02*
X15827863Y-14551854D01*
X15799291Y-14508997D01*
X15785006Y-14480426D01*
X15770720Y-14437569D01*
X15756434Y-14366140D01*
X15756434Y-14308997D01*
X15770720Y-14237569D01*
X15785006Y-14194711D01*
X15799291Y-14166140D01*
X15827863Y-14123283D01*
X15842148Y-14108997D01*
X15999291Y-14280426D02*
X15970720Y-14266140D01*
X15956434Y-14251854D01*
X15942148Y-14223283D01*
X15942148Y-14208997D01*
X15956434Y-14180426D01*
X15970720Y-14166140D01*
X15999291Y-14151854D01*
X16056434Y-14151854D01*
X16085006Y-14166140D01*
X16099291Y-14180426D01*
X16113577Y-14208997D01*
X16113577Y-14223283D01*
X16099291Y-14251854D01*
X16085006Y-14266140D01*
X16056434Y-14280426D01*
X15999291Y-14280426D01*
X15970720Y-14294711D01*
X15956434Y-14308997D01*
X15942148Y-14337569D01*
X15942148Y-14394711D01*
X15956434Y-14423283D01*
X15970720Y-14437569D01*
X15999291Y-14451854D01*
X16056434Y-14451854D01*
X16085006Y-14437569D01*
X16099291Y-14423283D01*
X16113577Y-14394711D01*
X16113577Y-14337569D01*
X16099291Y-14308997D01*
X16085006Y-14294711D01*
X16056434Y-14280426D01*
X16470720Y-14451854D02*
X16470720Y-14151854D01*
X16599291Y-14451854D02*
X16599291Y-14294711D01*
X16585006Y-14266140D01*
X16556434Y-14251854D01*
X16513577Y-14251854D01*
X16485006Y-14266140D01*
X16470720Y-14280426D01*
X16785006Y-14451854D02*
X16756434Y-14437569D01*
X16742148Y-14423283D01*
X16727863Y-14394711D01*
X16727863Y-14308997D01*
X16742148Y-14280426D01*
X16756434Y-14266140D01*
X16785006Y-14251854D01*
X16827863Y-14251854D01*
X16856434Y-14266140D01*
X16870720Y-14280426D01*
X16885006Y-14308997D01*
X16885006Y-14394711D01*
X16870720Y-14423283D01*
X16856434Y-14437569D01*
X16827863Y-14451854D01*
X16785006Y-14451854D01*
X17056434Y-14451854D02*
X17027863Y-14437569D01*
X17013577Y-14408997D01*
X17013577Y-14151854D01*
X17285006Y-14437569D02*
X17256434Y-14451854D01*
X17199291Y-14451854D01*
X17170720Y-14437569D01*
X17156434Y-14408997D01*
X17156434Y-14294711D01*
X17170720Y-14266140D01*
X17199291Y-14251854D01*
X17256434Y-14251854D01*
X17285006Y-14266140D01*
X17299291Y-14294711D01*
X17299291Y-14323283D01*
X17156434Y-14351854D01*
X17413577Y-14437569D02*
X17442148Y-14451854D01*
X17499291Y-14451854D01*
X17527863Y-14437569D01*
X17542148Y-14408997D01*
X17542148Y-14394711D01*
X17527863Y-14366140D01*
X17499291Y-14351854D01*
X17456434Y-14351854D01*
X17427863Y-14337569D01*
X17413577Y-14308997D01*
X17413577Y-14294711D01*
X17427863Y-14266140D01*
X17456434Y-14251854D01*
X17499291Y-14251854D01*
X17527863Y-14266140D01*
X17642148Y-14566140D02*
X17656434Y-14551854D01*
X17685006Y-14508997D01*
X17699291Y-14480426D01*
X17713577Y-14437569D01*
X17727863Y-14366140D01*
X17727863Y-14308997D01*
X17713577Y-14237569D01*
X17699291Y-14194711D01*
X17685006Y-14166140D01*
X17656434Y-14123283D01*
X17642148Y-14108997D01*
M02*
