G04 #@! TF.GenerationSoftware,KiCad,Pcbnew,(5.1.0)-1*
G04 #@! TF.CreationDate,2019-05-23T13:16:01+05:30*
G04 #@! TF.ProjectId,typec,74797065-632e-46b6-9963-61645f706362,rev?*
G04 #@! TF.SameCoordinates,Original*
G04 #@! TF.FileFunction,Soldermask,Bot*
G04 #@! TF.FilePolarity,Negative*
%FSLAX46Y46*%
G04 Gerber Fmt 4.6, Leading zero omitted, Abs format (unit mm)*
G04 Created by KiCad (PCBNEW (5.1.0)-1) date 2019-05-23 13:16:01*
%MOMM*%
%LPD*%
G04 APERTURE LIST*
%ADD10C,0.100000*%
G04 APERTURE END LIST*
D10*
G36*
X163336680Y-105335780D02*
G01*
X161234680Y-105335780D01*
X161234680Y-103233780D01*
X163336680Y-103233780D01*
X163336680Y-105335780D01*
X163336680Y-105335780D01*
G37*
G36*
X180252823Y-100659713D02*
G01*
X180413242Y-100708376D01*
X180545906Y-100779286D01*
X180561078Y-100787396D01*
X180690659Y-100893741D01*
X180797004Y-101023322D01*
X180797005Y-101023324D01*
X180876024Y-101171158D01*
X180924687Y-101331577D01*
X180941117Y-101498400D01*
X180924687Y-101665223D01*
X180876024Y-101825642D01*
X180805114Y-101958306D01*
X180797004Y-101973478D01*
X180690659Y-102103059D01*
X180561078Y-102209404D01*
X180561076Y-102209405D01*
X180413242Y-102288424D01*
X180252823Y-102337087D01*
X180127804Y-102349400D01*
X180044196Y-102349400D01*
X179919177Y-102337087D01*
X179758758Y-102288424D01*
X179610924Y-102209405D01*
X179610922Y-102209404D01*
X179481341Y-102103059D01*
X179374996Y-101973478D01*
X179366886Y-101958306D01*
X179295976Y-101825642D01*
X179247313Y-101665223D01*
X179230883Y-101498400D01*
X179247313Y-101331577D01*
X179295976Y-101171158D01*
X179374995Y-101023324D01*
X179374996Y-101023322D01*
X179481341Y-100893741D01*
X179610922Y-100787396D01*
X179626094Y-100779286D01*
X179758758Y-100708376D01*
X179919177Y-100659713D01*
X180044196Y-100647400D01*
X180127804Y-100647400D01*
X180252823Y-100659713D01*
X180252823Y-100659713D01*
G37*
G36*
X177712823Y-100659713D02*
G01*
X177873242Y-100708376D01*
X178005906Y-100779286D01*
X178021078Y-100787396D01*
X178150659Y-100893741D01*
X178257004Y-101023322D01*
X178257005Y-101023324D01*
X178336024Y-101171158D01*
X178384687Y-101331577D01*
X178401117Y-101498400D01*
X178384687Y-101665223D01*
X178336024Y-101825642D01*
X178265114Y-101958306D01*
X178257004Y-101973478D01*
X178150659Y-102103059D01*
X178021078Y-102209404D01*
X178021076Y-102209405D01*
X177873242Y-102288424D01*
X177712823Y-102337087D01*
X177587804Y-102349400D01*
X177504196Y-102349400D01*
X177379177Y-102337087D01*
X177218758Y-102288424D01*
X177070924Y-102209405D01*
X177070922Y-102209404D01*
X176941341Y-102103059D01*
X176834996Y-101973478D01*
X176826886Y-101958306D01*
X176755976Y-101825642D01*
X176707313Y-101665223D01*
X176690883Y-101498400D01*
X176707313Y-101331577D01*
X176755976Y-101171158D01*
X176834995Y-101023324D01*
X176834996Y-101023322D01*
X176941341Y-100893741D01*
X177070922Y-100787396D01*
X177086094Y-100779286D01*
X177218758Y-100708376D01*
X177379177Y-100659713D01*
X177504196Y-100647400D01*
X177587804Y-100647400D01*
X177712823Y-100659713D01*
X177712823Y-100659713D01*
G37*
G36*
X175172823Y-100659713D02*
G01*
X175333242Y-100708376D01*
X175465906Y-100779286D01*
X175481078Y-100787396D01*
X175610659Y-100893741D01*
X175717004Y-101023322D01*
X175717005Y-101023324D01*
X175796024Y-101171158D01*
X175844687Y-101331577D01*
X175861117Y-101498400D01*
X175844687Y-101665223D01*
X175796024Y-101825642D01*
X175725114Y-101958306D01*
X175717004Y-101973478D01*
X175610659Y-102103059D01*
X175481078Y-102209404D01*
X175481076Y-102209405D01*
X175333242Y-102288424D01*
X175172823Y-102337087D01*
X175047804Y-102349400D01*
X174964196Y-102349400D01*
X174839177Y-102337087D01*
X174678758Y-102288424D01*
X174530924Y-102209405D01*
X174530922Y-102209404D01*
X174401341Y-102103059D01*
X174294996Y-101973478D01*
X174286886Y-101958306D01*
X174215976Y-101825642D01*
X174167313Y-101665223D01*
X174150883Y-101498400D01*
X174167313Y-101331577D01*
X174215976Y-101171158D01*
X174294995Y-101023324D01*
X174294996Y-101023322D01*
X174401341Y-100893741D01*
X174530922Y-100787396D01*
X174546094Y-100779286D01*
X174678758Y-100708376D01*
X174839177Y-100659713D01*
X174964196Y-100647400D01*
X175047804Y-100647400D01*
X175172823Y-100659713D01*
X175172823Y-100659713D01*
G37*
G36*
X172632823Y-100659713D02*
G01*
X172793242Y-100708376D01*
X172925906Y-100779286D01*
X172941078Y-100787396D01*
X173070659Y-100893741D01*
X173177004Y-101023322D01*
X173177005Y-101023324D01*
X173256024Y-101171158D01*
X173304687Y-101331577D01*
X173321117Y-101498400D01*
X173304687Y-101665223D01*
X173256024Y-101825642D01*
X173185114Y-101958306D01*
X173177004Y-101973478D01*
X173070659Y-102103059D01*
X172941078Y-102209404D01*
X172941076Y-102209405D01*
X172793242Y-102288424D01*
X172632823Y-102337087D01*
X172507804Y-102349400D01*
X172424196Y-102349400D01*
X172299177Y-102337087D01*
X172138758Y-102288424D01*
X171990924Y-102209405D01*
X171990922Y-102209404D01*
X171861341Y-102103059D01*
X171754996Y-101973478D01*
X171746886Y-101958306D01*
X171675976Y-101825642D01*
X171627313Y-101665223D01*
X171610883Y-101498400D01*
X171627313Y-101331577D01*
X171675976Y-101171158D01*
X171754995Y-101023324D01*
X171754996Y-101023322D01*
X171861341Y-100893741D01*
X171990922Y-100787396D01*
X172006094Y-100779286D01*
X172138758Y-100708376D01*
X172299177Y-100659713D01*
X172424196Y-100647400D01*
X172507804Y-100647400D01*
X172632823Y-100659713D01*
X172632823Y-100659713D01*
G37*
G36*
X167552823Y-100659713D02*
G01*
X167713242Y-100708376D01*
X167845906Y-100779286D01*
X167861078Y-100787396D01*
X167990659Y-100893741D01*
X168097004Y-101023322D01*
X168097005Y-101023324D01*
X168176024Y-101171158D01*
X168224687Y-101331577D01*
X168241117Y-101498400D01*
X168224687Y-101665223D01*
X168176024Y-101825642D01*
X168105114Y-101958306D01*
X168097004Y-101973478D01*
X167990659Y-102103059D01*
X167861078Y-102209404D01*
X167861076Y-102209405D01*
X167713242Y-102288424D01*
X167552823Y-102337087D01*
X167427804Y-102349400D01*
X167344196Y-102349400D01*
X167219177Y-102337087D01*
X167058758Y-102288424D01*
X166910924Y-102209405D01*
X166910922Y-102209404D01*
X166781341Y-102103059D01*
X166674996Y-101973478D01*
X166666886Y-101958306D01*
X166595976Y-101825642D01*
X166547313Y-101665223D01*
X166530883Y-101498400D01*
X166547313Y-101331577D01*
X166595976Y-101171158D01*
X166674995Y-101023324D01*
X166674996Y-101023322D01*
X166781341Y-100893741D01*
X166910922Y-100787396D01*
X166926094Y-100779286D01*
X167058758Y-100708376D01*
X167219177Y-100659713D01*
X167344196Y-100647400D01*
X167427804Y-100647400D01*
X167552823Y-100659713D01*
X167552823Y-100659713D01*
G37*
G36*
X170092823Y-100659713D02*
G01*
X170253242Y-100708376D01*
X170385906Y-100779286D01*
X170401078Y-100787396D01*
X170530659Y-100893741D01*
X170637004Y-101023322D01*
X170637005Y-101023324D01*
X170716024Y-101171158D01*
X170764687Y-101331577D01*
X170781117Y-101498400D01*
X170764687Y-101665223D01*
X170716024Y-101825642D01*
X170645114Y-101958306D01*
X170637004Y-101973478D01*
X170530659Y-102103059D01*
X170401078Y-102209404D01*
X170401076Y-102209405D01*
X170253242Y-102288424D01*
X170092823Y-102337087D01*
X169967804Y-102349400D01*
X169884196Y-102349400D01*
X169759177Y-102337087D01*
X169598758Y-102288424D01*
X169450924Y-102209405D01*
X169450922Y-102209404D01*
X169321341Y-102103059D01*
X169214996Y-101973478D01*
X169206886Y-101958306D01*
X169135976Y-101825642D01*
X169087313Y-101665223D01*
X169070883Y-101498400D01*
X169087313Y-101331577D01*
X169135976Y-101171158D01*
X169214995Y-101023324D01*
X169214996Y-101023322D01*
X169321341Y-100893741D01*
X169450922Y-100787396D01*
X169466094Y-100779286D01*
X169598758Y-100708376D01*
X169759177Y-100659713D01*
X169884196Y-100647400D01*
X169967804Y-100647400D01*
X170092823Y-100659713D01*
X170092823Y-100659713D01*
G37*
G36*
X162472823Y-100659713D02*
G01*
X162633242Y-100708376D01*
X162765906Y-100779286D01*
X162781078Y-100787396D01*
X162910659Y-100893741D01*
X163017004Y-101023322D01*
X163017005Y-101023324D01*
X163096024Y-101171158D01*
X163144687Y-101331577D01*
X163161117Y-101498400D01*
X163144687Y-101665223D01*
X163096024Y-101825642D01*
X163025114Y-101958306D01*
X163017004Y-101973478D01*
X162910659Y-102103059D01*
X162781078Y-102209404D01*
X162781076Y-102209405D01*
X162633242Y-102288424D01*
X162472823Y-102337087D01*
X162347804Y-102349400D01*
X162264196Y-102349400D01*
X162139177Y-102337087D01*
X161978758Y-102288424D01*
X161830924Y-102209405D01*
X161830922Y-102209404D01*
X161701341Y-102103059D01*
X161594996Y-101973478D01*
X161586886Y-101958306D01*
X161515976Y-101825642D01*
X161467313Y-101665223D01*
X161450883Y-101498400D01*
X161467313Y-101331577D01*
X161515976Y-101171158D01*
X161594995Y-101023324D01*
X161594996Y-101023322D01*
X161701341Y-100893741D01*
X161830922Y-100787396D01*
X161846094Y-100779286D01*
X161978758Y-100708376D01*
X162139177Y-100659713D01*
X162264196Y-100647400D01*
X162347804Y-100647400D01*
X162472823Y-100659713D01*
X162472823Y-100659713D01*
G37*
G36*
X165012823Y-100659713D02*
G01*
X165173242Y-100708376D01*
X165305906Y-100779286D01*
X165321078Y-100787396D01*
X165450659Y-100893741D01*
X165557004Y-101023322D01*
X165557005Y-101023324D01*
X165636024Y-101171158D01*
X165684687Y-101331577D01*
X165701117Y-101498400D01*
X165684687Y-101665223D01*
X165636024Y-101825642D01*
X165565114Y-101958306D01*
X165557004Y-101973478D01*
X165450659Y-102103059D01*
X165321078Y-102209404D01*
X165321076Y-102209405D01*
X165173242Y-102288424D01*
X165012823Y-102337087D01*
X164887804Y-102349400D01*
X164804196Y-102349400D01*
X164679177Y-102337087D01*
X164518758Y-102288424D01*
X164370924Y-102209405D01*
X164370922Y-102209404D01*
X164241341Y-102103059D01*
X164134996Y-101973478D01*
X164126886Y-101958306D01*
X164055976Y-101825642D01*
X164007313Y-101665223D01*
X163990883Y-101498400D01*
X164007313Y-101331577D01*
X164055976Y-101171158D01*
X164134995Y-101023324D01*
X164134996Y-101023322D01*
X164241341Y-100893741D01*
X164370922Y-100787396D01*
X164386094Y-100779286D01*
X164518758Y-100708376D01*
X164679177Y-100659713D01*
X164804196Y-100647400D01*
X164887804Y-100647400D01*
X165012823Y-100659713D01*
X165012823Y-100659713D01*
G37*
G36*
X156709712Y-94441287D02*
G01*
X156799439Y-94468506D01*
X156882131Y-94512706D01*
X156954611Y-94572189D01*
X157014094Y-94644669D01*
X157058294Y-94727361D01*
X157085513Y-94817088D01*
X157094703Y-94910400D01*
X157085513Y-95003712D01*
X157058294Y-95093439D01*
X157014094Y-95176131D01*
X156969794Y-95230111D01*
X156956186Y-95250477D01*
X156946808Y-95273116D01*
X156942028Y-95297149D01*
X156942028Y-95321653D01*
X156946808Y-95345686D01*
X156956186Y-95368325D01*
X156969800Y-95388700D01*
X156987127Y-95406027D01*
X157007501Y-95419640D01*
X157030140Y-95429018D01*
X157066425Y-95434400D01*
X157092400Y-95434400D01*
X157092400Y-96386400D01*
X156140400Y-96386400D01*
X156140400Y-95434400D01*
X156166375Y-95434400D01*
X156190761Y-95431998D01*
X156214210Y-95424885D01*
X156235821Y-95413334D01*
X156254763Y-95397789D01*
X156270308Y-95378847D01*
X156281859Y-95357236D01*
X156288972Y-95333787D01*
X156291374Y-95309401D01*
X156288972Y-95285015D01*
X156281859Y-95261566D01*
X156263004Y-95230108D01*
X156218706Y-95176131D01*
X156174506Y-95093439D01*
X156147287Y-95003712D01*
X156138097Y-94910400D01*
X156147287Y-94817088D01*
X156174506Y-94727361D01*
X156218706Y-94644669D01*
X156278189Y-94572189D01*
X156350669Y-94512706D01*
X156433361Y-94468506D01*
X156523088Y-94441287D01*
X156593016Y-94434400D01*
X156639784Y-94434400D01*
X156709712Y-94441287D01*
X156709712Y-94441287D01*
G37*
G36*
X177712823Y-93039713D02*
G01*
X177873242Y-93088376D01*
X178005906Y-93159286D01*
X178021078Y-93167396D01*
X178150659Y-93273741D01*
X178257004Y-93403322D01*
X178257005Y-93403324D01*
X178336024Y-93551158D01*
X178384687Y-93711577D01*
X178401117Y-93878400D01*
X178384687Y-94045223D01*
X178336024Y-94205642D01*
X178265114Y-94338306D01*
X178257004Y-94353478D01*
X178150659Y-94483059D01*
X178021078Y-94589404D01*
X178021076Y-94589405D01*
X177873242Y-94668424D01*
X177712823Y-94717087D01*
X177587804Y-94729400D01*
X177504196Y-94729400D01*
X177379177Y-94717087D01*
X177218758Y-94668424D01*
X177070924Y-94589405D01*
X177070922Y-94589404D01*
X176941341Y-94483059D01*
X176834996Y-94353478D01*
X176826886Y-94338306D01*
X176755976Y-94205642D01*
X176707313Y-94045223D01*
X176690883Y-93878400D01*
X176707313Y-93711577D01*
X176755976Y-93551158D01*
X176834995Y-93403324D01*
X176834996Y-93403322D01*
X176941341Y-93273741D01*
X177070922Y-93167396D01*
X177086094Y-93159286D01*
X177218758Y-93088376D01*
X177379177Y-93039713D01*
X177504196Y-93027400D01*
X177587804Y-93027400D01*
X177712823Y-93039713D01*
X177712823Y-93039713D01*
G37*
G36*
X180937000Y-94729400D02*
G01*
X179235000Y-94729400D01*
X179235000Y-93027400D01*
X180937000Y-93027400D01*
X180937000Y-94729400D01*
X180937000Y-94729400D01*
G37*
G36*
X162472823Y-93039713D02*
G01*
X162633242Y-93088376D01*
X162765906Y-93159286D01*
X162781078Y-93167396D01*
X162910659Y-93273741D01*
X163017004Y-93403322D01*
X163017005Y-93403324D01*
X163096024Y-93551158D01*
X163144687Y-93711577D01*
X163161117Y-93878400D01*
X163144687Y-94045223D01*
X163096024Y-94205642D01*
X163025114Y-94338306D01*
X163017004Y-94353478D01*
X162910659Y-94483059D01*
X162781078Y-94589404D01*
X162781076Y-94589405D01*
X162633242Y-94668424D01*
X162472823Y-94717087D01*
X162347804Y-94729400D01*
X162264196Y-94729400D01*
X162139177Y-94717087D01*
X161978758Y-94668424D01*
X161830924Y-94589405D01*
X161830922Y-94589404D01*
X161701341Y-94483059D01*
X161594996Y-94353478D01*
X161586886Y-94338306D01*
X161515976Y-94205642D01*
X161467313Y-94045223D01*
X161450883Y-93878400D01*
X161467313Y-93711577D01*
X161515976Y-93551158D01*
X161594995Y-93403324D01*
X161594996Y-93403322D01*
X161701341Y-93273741D01*
X161830922Y-93167396D01*
X161846094Y-93159286D01*
X161978758Y-93088376D01*
X162139177Y-93039713D01*
X162264196Y-93027400D01*
X162347804Y-93027400D01*
X162472823Y-93039713D01*
X162472823Y-93039713D01*
G37*
G36*
X175172823Y-93039713D02*
G01*
X175333242Y-93088376D01*
X175465906Y-93159286D01*
X175481078Y-93167396D01*
X175610659Y-93273741D01*
X175717004Y-93403322D01*
X175717005Y-93403324D01*
X175796024Y-93551158D01*
X175844687Y-93711577D01*
X175861117Y-93878400D01*
X175844687Y-94045223D01*
X175796024Y-94205642D01*
X175725114Y-94338306D01*
X175717004Y-94353478D01*
X175610659Y-94483059D01*
X175481078Y-94589404D01*
X175481076Y-94589405D01*
X175333242Y-94668424D01*
X175172823Y-94717087D01*
X175047804Y-94729400D01*
X174964196Y-94729400D01*
X174839177Y-94717087D01*
X174678758Y-94668424D01*
X174530924Y-94589405D01*
X174530922Y-94589404D01*
X174401341Y-94483059D01*
X174294996Y-94353478D01*
X174286886Y-94338306D01*
X174215976Y-94205642D01*
X174167313Y-94045223D01*
X174150883Y-93878400D01*
X174167313Y-93711577D01*
X174215976Y-93551158D01*
X174294995Y-93403324D01*
X174294996Y-93403322D01*
X174401341Y-93273741D01*
X174530922Y-93167396D01*
X174546094Y-93159286D01*
X174678758Y-93088376D01*
X174839177Y-93039713D01*
X174964196Y-93027400D01*
X175047804Y-93027400D01*
X175172823Y-93039713D01*
X175172823Y-93039713D01*
G37*
G36*
X165012823Y-93039713D02*
G01*
X165173242Y-93088376D01*
X165305906Y-93159286D01*
X165321078Y-93167396D01*
X165450659Y-93273741D01*
X165557004Y-93403322D01*
X165557005Y-93403324D01*
X165636024Y-93551158D01*
X165684687Y-93711577D01*
X165701117Y-93878400D01*
X165684687Y-94045223D01*
X165636024Y-94205642D01*
X165565114Y-94338306D01*
X165557004Y-94353478D01*
X165450659Y-94483059D01*
X165321078Y-94589404D01*
X165321076Y-94589405D01*
X165173242Y-94668424D01*
X165012823Y-94717087D01*
X164887804Y-94729400D01*
X164804196Y-94729400D01*
X164679177Y-94717087D01*
X164518758Y-94668424D01*
X164370924Y-94589405D01*
X164370922Y-94589404D01*
X164241341Y-94483059D01*
X164134996Y-94353478D01*
X164126886Y-94338306D01*
X164055976Y-94205642D01*
X164007313Y-94045223D01*
X163990883Y-93878400D01*
X164007313Y-93711577D01*
X164055976Y-93551158D01*
X164134995Y-93403324D01*
X164134996Y-93403322D01*
X164241341Y-93273741D01*
X164370922Y-93167396D01*
X164386094Y-93159286D01*
X164518758Y-93088376D01*
X164679177Y-93039713D01*
X164804196Y-93027400D01*
X164887804Y-93027400D01*
X165012823Y-93039713D01*
X165012823Y-93039713D01*
G37*
G36*
X172632823Y-93039713D02*
G01*
X172793242Y-93088376D01*
X172925906Y-93159286D01*
X172941078Y-93167396D01*
X173070659Y-93273741D01*
X173177004Y-93403322D01*
X173177005Y-93403324D01*
X173256024Y-93551158D01*
X173304687Y-93711577D01*
X173321117Y-93878400D01*
X173304687Y-94045223D01*
X173256024Y-94205642D01*
X173185114Y-94338306D01*
X173177004Y-94353478D01*
X173070659Y-94483059D01*
X172941078Y-94589404D01*
X172941076Y-94589405D01*
X172793242Y-94668424D01*
X172632823Y-94717087D01*
X172507804Y-94729400D01*
X172424196Y-94729400D01*
X172299177Y-94717087D01*
X172138758Y-94668424D01*
X171990924Y-94589405D01*
X171990922Y-94589404D01*
X171861341Y-94483059D01*
X171754996Y-94353478D01*
X171746886Y-94338306D01*
X171675976Y-94205642D01*
X171627313Y-94045223D01*
X171610883Y-93878400D01*
X171627313Y-93711577D01*
X171675976Y-93551158D01*
X171754995Y-93403324D01*
X171754996Y-93403322D01*
X171861341Y-93273741D01*
X171990922Y-93167396D01*
X172006094Y-93159286D01*
X172138758Y-93088376D01*
X172299177Y-93039713D01*
X172424196Y-93027400D01*
X172507804Y-93027400D01*
X172632823Y-93039713D01*
X172632823Y-93039713D01*
G37*
G36*
X167552823Y-93039713D02*
G01*
X167713242Y-93088376D01*
X167845906Y-93159286D01*
X167861078Y-93167396D01*
X167990659Y-93273741D01*
X168097004Y-93403322D01*
X168097005Y-93403324D01*
X168176024Y-93551158D01*
X168224687Y-93711577D01*
X168241117Y-93878400D01*
X168224687Y-94045223D01*
X168176024Y-94205642D01*
X168105114Y-94338306D01*
X168097004Y-94353478D01*
X167990659Y-94483059D01*
X167861078Y-94589404D01*
X167861076Y-94589405D01*
X167713242Y-94668424D01*
X167552823Y-94717087D01*
X167427804Y-94729400D01*
X167344196Y-94729400D01*
X167219177Y-94717087D01*
X167058758Y-94668424D01*
X166910924Y-94589405D01*
X166910922Y-94589404D01*
X166781341Y-94483059D01*
X166674996Y-94353478D01*
X166666886Y-94338306D01*
X166595976Y-94205642D01*
X166547313Y-94045223D01*
X166530883Y-93878400D01*
X166547313Y-93711577D01*
X166595976Y-93551158D01*
X166674995Y-93403324D01*
X166674996Y-93403322D01*
X166781341Y-93273741D01*
X166910922Y-93167396D01*
X166926094Y-93159286D01*
X167058758Y-93088376D01*
X167219177Y-93039713D01*
X167344196Y-93027400D01*
X167427804Y-93027400D01*
X167552823Y-93039713D01*
X167552823Y-93039713D01*
G37*
G36*
X170092823Y-93039713D02*
G01*
X170253242Y-93088376D01*
X170385906Y-93159286D01*
X170401078Y-93167396D01*
X170530659Y-93273741D01*
X170637004Y-93403322D01*
X170637005Y-93403324D01*
X170716024Y-93551158D01*
X170764687Y-93711577D01*
X170781117Y-93878400D01*
X170764687Y-94045223D01*
X170716024Y-94205642D01*
X170645114Y-94338306D01*
X170637004Y-94353478D01*
X170530659Y-94483059D01*
X170401078Y-94589404D01*
X170401076Y-94589405D01*
X170253242Y-94668424D01*
X170092823Y-94717087D01*
X169967804Y-94729400D01*
X169884196Y-94729400D01*
X169759177Y-94717087D01*
X169598758Y-94668424D01*
X169450924Y-94589405D01*
X169450922Y-94589404D01*
X169321341Y-94483059D01*
X169214996Y-94353478D01*
X169206886Y-94338306D01*
X169135976Y-94205642D01*
X169087313Y-94045223D01*
X169070883Y-93878400D01*
X169087313Y-93711577D01*
X169135976Y-93551158D01*
X169214995Y-93403324D01*
X169214996Y-93403322D01*
X169321341Y-93273741D01*
X169450922Y-93167396D01*
X169466094Y-93159286D01*
X169598758Y-93088376D01*
X169759177Y-93039713D01*
X169884196Y-93027400D01*
X169967804Y-93027400D01*
X170092823Y-93039713D01*
X170092823Y-93039713D01*
G37*
G36*
X129121860Y-90083520D02*
G01*
X127019860Y-90083520D01*
X127019860Y-87981520D01*
X129121860Y-87981520D01*
X129121860Y-90083520D01*
X129121860Y-90083520D01*
G37*
G36*
X170270623Y-83819513D02*
G01*
X170431042Y-83868176D01*
X170563706Y-83939086D01*
X170578878Y-83947196D01*
X170708459Y-84053541D01*
X170814804Y-84183122D01*
X170814805Y-84183124D01*
X170893824Y-84330958D01*
X170942487Y-84491377D01*
X170958917Y-84658200D01*
X170942487Y-84825023D01*
X170893824Y-84985442D01*
X170822914Y-85118106D01*
X170814804Y-85133278D01*
X170708459Y-85262859D01*
X170578878Y-85369204D01*
X170578876Y-85369205D01*
X170431042Y-85448224D01*
X170270623Y-85496887D01*
X170145604Y-85509200D01*
X170061996Y-85509200D01*
X169936977Y-85496887D01*
X169776558Y-85448224D01*
X169628724Y-85369205D01*
X169628722Y-85369204D01*
X169499141Y-85262859D01*
X169392796Y-85133278D01*
X169384686Y-85118106D01*
X169313776Y-84985442D01*
X169265113Y-84825023D01*
X169248683Y-84658200D01*
X169265113Y-84491377D01*
X169313776Y-84330958D01*
X169392795Y-84183124D01*
X169392796Y-84183122D01*
X169499141Y-84053541D01*
X169628722Y-83947196D01*
X169643894Y-83939086D01*
X169776558Y-83868176D01*
X169936977Y-83819513D01*
X170061996Y-83807200D01*
X170145604Y-83807200D01*
X170270623Y-83819513D01*
X170270623Y-83819513D01*
G37*
G36*
X162650623Y-83819513D02*
G01*
X162811042Y-83868176D01*
X162943706Y-83939086D01*
X162958878Y-83947196D01*
X163088459Y-84053541D01*
X163194804Y-84183122D01*
X163194805Y-84183124D01*
X163273824Y-84330958D01*
X163322487Y-84491377D01*
X163338917Y-84658200D01*
X163322487Y-84825023D01*
X163273824Y-84985442D01*
X163202914Y-85118106D01*
X163194804Y-85133278D01*
X163088459Y-85262859D01*
X162958878Y-85369204D01*
X162958876Y-85369205D01*
X162811042Y-85448224D01*
X162650623Y-85496887D01*
X162525604Y-85509200D01*
X162441996Y-85509200D01*
X162316977Y-85496887D01*
X162156558Y-85448224D01*
X162008724Y-85369205D01*
X162008722Y-85369204D01*
X161879141Y-85262859D01*
X161772796Y-85133278D01*
X161764686Y-85118106D01*
X161693776Y-84985442D01*
X161645113Y-84825023D01*
X161628683Y-84658200D01*
X161645113Y-84491377D01*
X161693776Y-84330958D01*
X161772795Y-84183124D01*
X161772796Y-84183122D01*
X161879141Y-84053541D01*
X162008722Y-83947196D01*
X162023894Y-83939086D01*
X162156558Y-83868176D01*
X162316977Y-83819513D01*
X162441996Y-83807200D01*
X162525604Y-83807200D01*
X162650623Y-83819513D01*
X162650623Y-83819513D01*
G37*
G36*
X162650623Y-81279513D02*
G01*
X162811042Y-81328176D01*
X162943706Y-81399086D01*
X162958878Y-81407196D01*
X163088459Y-81513541D01*
X163194804Y-81643122D01*
X163194805Y-81643124D01*
X163273824Y-81790958D01*
X163322487Y-81951377D01*
X163338917Y-82118200D01*
X163322487Y-82285023D01*
X163273824Y-82445442D01*
X163202914Y-82578106D01*
X163194804Y-82593278D01*
X163088459Y-82722859D01*
X162958878Y-82829204D01*
X162958876Y-82829205D01*
X162811042Y-82908224D01*
X162650623Y-82956887D01*
X162525604Y-82969200D01*
X162441996Y-82969200D01*
X162316977Y-82956887D01*
X162156558Y-82908224D01*
X162008724Y-82829205D01*
X162008722Y-82829204D01*
X161879141Y-82722859D01*
X161772796Y-82593278D01*
X161764686Y-82578106D01*
X161693776Y-82445442D01*
X161645113Y-82285023D01*
X161628683Y-82118200D01*
X161645113Y-81951377D01*
X161693776Y-81790958D01*
X161772795Y-81643124D01*
X161772796Y-81643122D01*
X161879141Y-81513541D01*
X162008722Y-81407196D01*
X162023894Y-81399086D01*
X162156558Y-81328176D01*
X162316977Y-81279513D01*
X162441996Y-81267200D01*
X162525604Y-81267200D01*
X162650623Y-81279513D01*
X162650623Y-81279513D01*
G37*
G36*
X170270623Y-81279513D02*
G01*
X170431042Y-81328176D01*
X170563706Y-81399086D01*
X170578878Y-81407196D01*
X170708459Y-81513541D01*
X170814804Y-81643122D01*
X170814805Y-81643124D01*
X170893824Y-81790958D01*
X170942487Y-81951377D01*
X170958917Y-82118200D01*
X170942487Y-82285023D01*
X170893824Y-82445442D01*
X170822914Y-82578106D01*
X170814804Y-82593278D01*
X170708459Y-82722859D01*
X170578878Y-82829204D01*
X170578876Y-82829205D01*
X170431042Y-82908224D01*
X170270623Y-82956887D01*
X170145604Y-82969200D01*
X170061996Y-82969200D01*
X169936977Y-82956887D01*
X169776558Y-82908224D01*
X169628724Y-82829205D01*
X169628722Y-82829204D01*
X169499141Y-82722859D01*
X169392796Y-82593278D01*
X169384686Y-82578106D01*
X169313776Y-82445442D01*
X169265113Y-82285023D01*
X169248683Y-82118200D01*
X169265113Y-81951377D01*
X169313776Y-81790958D01*
X169392795Y-81643124D01*
X169392796Y-81643122D01*
X169499141Y-81513541D01*
X169628722Y-81407196D01*
X169643894Y-81399086D01*
X169776558Y-81328176D01*
X169936977Y-81279513D01*
X170061996Y-81267200D01*
X170145604Y-81267200D01*
X170270623Y-81279513D01*
X170270623Y-81279513D01*
G37*
G36*
X179460600Y-82788200D02*
G01*
X177358600Y-82788200D01*
X177358600Y-80686200D01*
X179460600Y-80686200D01*
X179460600Y-82788200D01*
X179460600Y-82788200D01*
G37*
G36*
X162650623Y-78739513D02*
G01*
X162811042Y-78788176D01*
X162943706Y-78859086D01*
X162958878Y-78867196D01*
X163088459Y-78973541D01*
X163194804Y-79103122D01*
X163194805Y-79103124D01*
X163273824Y-79250958D01*
X163322487Y-79411377D01*
X163338917Y-79578200D01*
X163322487Y-79745023D01*
X163273824Y-79905442D01*
X163202914Y-80038106D01*
X163194804Y-80053278D01*
X163088459Y-80182859D01*
X162958878Y-80289204D01*
X162958876Y-80289205D01*
X162811042Y-80368224D01*
X162650623Y-80416887D01*
X162525604Y-80429200D01*
X162441996Y-80429200D01*
X162316977Y-80416887D01*
X162156558Y-80368224D01*
X162008724Y-80289205D01*
X162008722Y-80289204D01*
X161879141Y-80182859D01*
X161772796Y-80053278D01*
X161764686Y-80038106D01*
X161693776Y-79905442D01*
X161645113Y-79745023D01*
X161628683Y-79578200D01*
X161645113Y-79411377D01*
X161693776Y-79250958D01*
X161772795Y-79103124D01*
X161772796Y-79103122D01*
X161879141Y-78973541D01*
X162008722Y-78867196D01*
X162023894Y-78859086D01*
X162156558Y-78788176D01*
X162316977Y-78739513D01*
X162441996Y-78727200D01*
X162525604Y-78727200D01*
X162650623Y-78739513D01*
X162650623Y-78739513D01*
G37*
G36*
X170270623Y-78739513D02*
G01*
X170431042Y-78788176D01*
X170563706Y-78859086D01*
X170578878Y-78867196D01*
X170708459Y-78973541D01*
X170814804Y-79103122D01*
X170814805Y-79103124D01*
X170893824Y-79250958D01*
X170942487Y-79411377D01*
X170958917Y-79578200D01*
X170942487Y-79745023D01*
X170893824Y-79905442D01*
X170822914Y-80038106D01*
X170814804Y-80053278D01*
X170708459Y-80182859D01*
X170578878Y-80289204D01*
X170578876Y-80289205D01*
X170431042Y-80368224D01*
X170270623Y-80416887D01*
X170145604Y-80429200D01*
X170061996Y-80429200D01*
X169936977Y-80416887D01*
X169776558Y-80368224D01*
X169628724Y-80289205D01*
X169628722Y-80289204D01*
X169499141Y-80182859D01*
X169392796Y-80053278D01*
X169384686Y-80038106D01*
X169313776Y-79905442D01*
X169265113Y-79745023D01*
X169248683Y-79578200D01*
X169265113Y-79411377D01*
X169313776Y-79250958D01*
X169392795Y-79103124D01*
X169392796Y-79103122D01*
X169499141Y-78973541D01*
X169628722Y-78867196D01*
X169643894Y-78859086D01*
X169776558Y-78788176D01*
X169936977Y-78739513D01*
X170061996Y-78727200D01*
X170145604Y-78727200D01*
X170270623Y-78739513D01*
X170270623Y-78739513D01*
G37*
G36*
X162650623Y-76199513D02*
G01*
X162811042Y-76248176D01*
X162943706Y-76319086D01*
X162958878Y-76327196D01*
X163088459Y-76433541D01*
X163194804Y-76563122D01*
X163194805Y-76563124D01*
X163273824Y-76710958D01*
X163322487Y-76871377D01*
X163338917Y-77038200D01*
X163322487Y-77205023D01*
X163273824Y-77365442D01*
X163202914Y-77498106D01*
X163194804Y-77513278D01*
X163088459Y-77642859D01*
X162958878Y-77749204D01*
X162958876Y-77749205D01*
X162811042Y-77828224D01*
X162650623Y-77876887D01*
X162525604Y-77889200D01*
X162441996Y-77889200D01*
X162316977Y-77876887D01*
X162156558Y-77828224D01*
X162008724Y-77749205D01*
X162008722Y-77749204D01*
X161879141Y-77642859D01*
X161772796Y-77513278D01*
X161764686Y-77498106D01*
X161693776Y-77365442D01*
X161645113Y-77205023D01*
X161628683Y-77038200D01*
X161645113Y-76871377D01*
X161693776Y-76710958D01*
X161772795Y-76563124D01*
X161772796Y-76563122D01*
X161879141Y-76433541D01*
X162008722Y-76327196D01*
X162023894Y-76319086D01*
X162156558Y-76248176D01*
X162316977Y-76199513D01*
X162441996Y-76187200D01*
X162525604Y-76187200D01*
X162650623Y-76199513D01*
X162650623Y-76199513D01*
G37*
G36*
X170270623Y-76199513D02*
G01*
X170431042Y-76248176D01*
X170563706Y-76319086D01*
X170578878Y-76327196D01*
X170708459Y-76433541D01*
X170814804Y-76563122D01*
X170814805Y-76563124D01*
X170893824Y-76710958D01*
X170942487Y-76871377D01*
X170958917Y-77038200D01*
X170942487Y-77205023D01*
X170893824Y-77365442D01*
X170822914Y-77498106D01*
X170814804Y-77513278D01*
X170708459Y-77642859D01*
X170578878Y-77749204D01*
X170578876Y-77749205D01*
X170431042Y-77828224D01*
X170270623Y-77876887D01*
X170145604Y-77889200D01*
X170061996Y-77889200D01*
X169936977Y-77876887D01*
X169776558Y-77828224D01*
X169628724Y-77749205D01*
X169628722Y-77749204D01*
X169499141Y-77642859D01*
X169392796Y-77513278D01*
X169384686Y-77498106D01*
X169313776Y-77365442D01*
X169265113Y-77205023D01*
X169248683Y-77038200D01*
X169265113Y-76871377D01*
X169313776Y-76710958D01*
X169392795Y-76563124D01*
X169392796Y-76563122D01*
X169499141Y-76433541D01*
X169628722Y-76327196D01*
X169643894Y-76319086D01*
X169776558Y-76248176D01*
X169936977Y-76199513D01*
X170061996Y-76187200D01*
X170145604Y-76187200D01*
X170270623Y-76199513D01*
X170270623Y-76199513D01*
G37*
G36*
X170270623Y-73659513D02*
G01*
X170431042Y-73708176D01*
X170563706Y-73779086D01*
X170578878Y-73787196D01*
X170708459Y-73893541D01*
X170814804Y-74023122D01*
X170814805Y-74023124D01*
X170893824Y-74170958D01*
X170942487Y-74331377D01*
X170958917Y-74498200D01*
X170942487Y-74665023D01*
X170893824Y-74825442D01*
X170822914Y-74958106D01*
X170814804Y-74973278D01*
X170708459Y-75102859D01*
X170578878Y-75209204D01*
X170578876Y-75209205D01*
X170431042Y-75288224D01*
X170270623Y-75336887D01*
X170145604Y-75349200D01*
X170061996Y-75349200D01*
X169936977Y-75336887D01*
X169776558Y-75288224D01*
X169628724Y-75209205D01*
X169628722Y-75209204D01*
X169499141Y-75102859D01*
X169392796Y-74973278D01*
X169384686Y-74958106D01*
X169313776Y-74825442D01*
X169265113Y-74665023D01*
X169248683Y-74498200D01*
X169265113Y-74331377D01*
X169313776Y-74170958D01*
X169392795Y-74023124D01*
X169392796Y-74023122D01*
X169499141Y-73893541D01*
X169628722Y-73787196D01*
X169643894Y-73779086D01*
X169776558Y-73708176D01*
X169936977Y-73659513D01*
X170061996Y-73647200D01*
X170145604Y-73647200D01*
X170270623Y-73659513D01*
X170270623Y-73659513D01*
G37*
G36*
X162650623Y-73659513D02*
G01*
X162811042Y-73708176D01*
X162943706Y-73779086D01*
X162958878Y-73787196D01*
X163088459Y-73893541D01*
X163194804Y-74023122D01*
X163194805Y-74023124D01*
X163273824Y-74170958D01*
X163322487Y-74331377D01*
X163338917Y-74498200D01*
X163322487Y-74665023D01*
X163273824Y-74825442D01*
X163202914Y-74958106D01*
X163194804Y-74973278D01*
X163088459Y-75102859D01*
X162958878Y-75209204D01*
X162958876Y-75209205D01*
X162811042Y-75288224D01*
X162650623Y-75336887D01*
X162525604Y-75349200D01*
X162441996Y-75349200D01*
X162316977Y-75336887D01*
X162156558Y-75288224D01*
X162008724Y-75209205D01*
X162008722Y-75209204D01*
X161879141Y-75102859D01*
X161772796Y-74973278D01*
X161764686Y-74958106D01*
X161693776Y-74825442D01*
X161645113Y-74665023D01*
X161628683Y-74498200D01*
X161645113Y-74331377D01*
X161693776Y-74170958D01*
X161772795Y-74023124D01*
X161772796Y-74023122D01*
X161879141Y-73893541D01*
X162008722Y-73787196D01*
X162023894Y-73779086D01*
X162156558Y-73708176D01*
X162316977Y-73659513D01*
X162441996Y-73647200D01*
X162525604Y-73647200D01*
X162650623Y-73659513D01*
X162650623Y-73659513D01*
G37*
G36*
X170270623Y-71119513D02*
G01*
X170431042Y-71168176D01*
X170563706Y-71239086D01*
X170578878Y-71247196D01*
X170708459Y-71353541D01*
X170814804Y-71483122D01*
X170814805Y-71483124D01*
X170893824Y-71630958D01*
X170942487Y-71791377D01*
X170958917Y-71958200D01*
X170942487Y-72125023D01*
X170893824Y-72285442D01*
X170822914Y-72418106D01*
X170814804Y-72433278D01*
X170708459Y-72562859D01*
X170578878Y-72669204D01*
X170578876Y-72669205D01*
X170431042Y-72748224D01*
X170270623Y-72796887D01*
X170145604Y-72809200D01*
X170061996Y-72809200D01*
X169936977Y-72796887D01*
X169776558Y-72748224D01*
X169628724Y-72669205D01*
X169628722Y-72669204D01*
X169499141Y-72562859D01*
X169392796Y-72433278D01*
X169384686Y-72418106D01*
X169313776Y-72285442D01*
X169265113Y-72125023D01*
X169248683Y-71958200D01*
X169265113Y-71791377D01*
X169313776Y-71630958D01*
X169392795Y-71483124D01*
X169392796Y-71483122D01*
X169499141Y-71353541D01*
X169628722Y-71247196D01*
X169643894Y-71239086D01*
X169776558Y-71168176D01*
X169936977Y-71119513D01*
X170061996Y-71107200D01*
X170145604Y-71107200D01*
X170270623Y-71119513D01*
X170270623Y-71119513D01*
G37*
G36*
X163334800Y-72809200D02*
G01*
X161632800Y-72809200D01*
X161632800Y-71107200D01*
X163334800Y-71107200D01*
X163334800Y-72809200D01*
X163334800Y-72809200D01*
G37*
G36*
X162764923Y-66186833D02*
G01*
X162925342Y-66235496D01*
X163058006Y-66306406D01*
X163073178Y-66314516D01*
X163202759Y-66420861D01*
X163309104Y-66550442D01*
X163309105Y-66550444D01*
X163388124Y-66698278D01*
X163436787Y-66858697D01*
X163453217Y-67025520D01*
X163436787Y-67192343D01*
X163388124Y-67352762D01*
X163317214Y-67485426D01*
X163309104Y-67500598D01*
X163202759Y-67630179D01*
X163073178Y-67736524D01*
X163073176Y-67736525D01*
X162925342Y-67815544D01*
X162764923Y-67864207D01*
X162639904Y-67876520D01*
X162556296Y-67876520D01*
X162431277Y-67864207D01*
X162270858Y-67815544D01*
X162123024Y-67736525D01*
X162123022Y-67736524D01*
X161993441Y-67630179D01*
X161887096Y-67500598D01*
X161878986Y-67485426D01*
X161808076Y-67352762D01*
X161759413Y-67192343D01*
X161742983Y-67025520D01*
X161759413Y-66858697D01*
X161808076Y-66698278D01*
X161887095Y-66550444D01*
X161887096Y-66550442D01*
X161993441Y-66420861D01*
X162123022Y-66314516D01*
X162138194Y-66306406D01*
X162270858Y-66235496D01*
X162431277Y-66186833D01*
X162556296Y-66174520D01*
X162639904Y-66174520D01*
X162764923Y-66186833D01*
X162764923Y-66186833D01*
G37*
G36*
X170384923Y-66186833D02*
G01*
X170545342Y-66235496D01*
X170678006Y-66306406D01*
X170693178Y-66314516D01*
X170822759Y-66420861D01*
X170929104Y-66550442D01*
X170929105Y-66550444D01*
X171008124Y-66698278D01*
X171056787Y-66858697D01*
X171073217Y-67025520D01*
X171056787Y-67192343D01*
X171008124Y-67352762D01*
X170937214Y-67485426D01*
X170929104Y-67500598D01*
X170822759Y-67630179D01*
X170693178Y-67736524D01*
X170693176Y-67736525D01*
X170545342Y-67815544D01*
X170384923Y-67864207D01*
X170259904Y-67876520D01*
X170176296Y-67876520D01*
X170051277Y-67864207D01*
X169890858Y-67815544D01*
X169743024Y-67736525D01*
X169743022Y-67736524D01*
X169613441Y-67630179D01*
X169507096Y-67500598D01*
X169498986Y-67485426D01*
X169428076Y-67352762D01*
X169379413Y-67192343D01*
X169362983Y-67025520D01*
X169379413Y-66858697D01*
X169428076Y-66698278D01*
X169507095Y-66550444D01*
X169507096Y-66550442D01*
X169613441Y-66420861D01*
X169743022Y-66314516D01*
X169758194Y-66306406D01*
X169890858Y-66235496D01*
X170051277Y-66186833D01*
X170176296Y-66174520D01*
X170259904Y-66174520D01*
X170384923Y-66186833D01*
X170384923Y-66186833D01*
G37*
G36*
X162764923Y-63646833D02*
G01*
X162925342Y-63695496D01*
X163058006Y-63766406D01*
X163073178Y-63774516D01*
X163202759Y-63880861D01*
X163309104Y-64010442D01*
X163309105Y-64010444D01*
X163388124Y-64158278D01*
X163436787Y-64318697D01*
X163453217Y-64485520D01*
X163436787Y-64652343D01*
X163388124Y-64812762D01*
X163317214Y-64945426D01*
X163309104Y-64960598D01*
X163202759Y-65090179D01*
X163073178Y-65196524D01*
X163073176Y-65196525D01*
X162925342Y-65275544D01*
X162764923Y-65324207D01*
X162639904Y-65336520D01*
X162556296Y-65336520D01*
X162431277Y-65324207D01*
X162270858Y-65275544D01*
X162123024Y-65196525D01*
X162123022Y-65196524D01*
X161993441Y-65090179D01*
X161887096Y-64960598D01*
X161878986Y-64945426D01*
X161808076Y-64812762D01*
X161759413Y-64652343D01*
X161742983Y-64485520D01*
X161759413Y-64318697D01*
X161808076Y-64158278D01*
X161887095Y-64010444D01*
X161887096Y-64010442D01*
X161993441Y-63880861D01*
X162123022Y-63774516D01*
X162138194Y-63766406D01*
X162270858Y-63695496D01*
X162431277Y-63646833D01*
X162556296Y-63634520D01*
X162639904Y-63634520D01*
X162764923Y-63646833D01*
X162764923Y-63646833D01*
G37*
G36*
X170384923Y-63646833D02*
G01*
X170545342Y-63695496D01*
X170678006Y-63766406D01*
X170693178Y-63774516D01*
X170822759Y-63880861D01*
X170929104Y-64010442D01*
X170929105Y-64010444D01*
X171008124Y-64158278D01*
X171056787Y-64318697D01*
X171073217Y-64485520D01*
X171056787Y-64652343D01*
X171008124Y-64812762D01*
X170937214Y-64945426D01*
X170929104Y-64960598D01*
X170822759Y-65090179D01*
X170693178Y-65196524D01*
X170693176Y-65196525D01*
X170545342Y-65275544D01*
X170384923Y-65324207D01*
X170259904Y-65336520D01*
X170176296Y-65336520D01*
X170051277Y-65324207D01*
X169890858Y-65275544D01*
X169743024Y-65196525D01*
X169743022Y-65196524D01*
X169613441Y-65090179D01*
X169507096Y-64960598D01*
X169498986Y-64945426D01*
X169428076Y-64812762D01*
X169379413Y-64652343D01*
X169362983Y-64485520D01*
X169379413Y-64318697D01*
X169428076Y-64158278D01*
X169507095Y-64010444D01*
X169507096Y-64010442D01*
X169613441Y-63880861D01*
X169743022Y-63774516D01*
X169758194Y-63766406D01*
X169890858Y-63695496D01*
X170051277Y-63646833D01*
X170176296Y-63634520D01*
X170259904Y-63634520D01*
X170384923Y-63646833D01*
X170384923Y-63646833D01*
G37*
G36*
X145676712Y-63411887D02*
G01*
X145766439Y-63439106D01*
X145849131Y-63483306D01*
X145903111Y-63527606D01*
X145923477Y-63541214D01*
X145946116Y-63550592D01*
X145970149Y-63555372D01*
X145994653Y-63555372D01*
X146018686Y-63550592D01*
X146041325Y-63541214D01*
X146061700Y-63527600D01*
X146079027Y-63510273D01*
X146092640Y-63489899D01*
X146102018Y-63467260D01*
X146107400Y-63430975D01*
X146107400Y-63405000D01*
X147059400Y-63405000D01*
X147059400Y-64357000D01*
X146107400Y-64357000D01*
X146107400Y-64331025D01*
X146104998Y-64306639D01*
X146097885Y-64283190D01*
X146086334Y-64261579D01*
X146070789Y-64242637D01*
X146051847Y-64227092D01*
X146030236Y-64215541D01*
X146006787Y-64208428D01*
X145982401Y-64206026D01*
X145958015Y-64208428D01*
X145934566Y-64215541D01*
X145903108Y-64234396D01*
X145849131Y-64278694D01*
X145766439Y-64322894D01*
X145676712Y-64350113D01*
X145606784Y-64357000D01*
X145560016Y-64357000D01*
X145490088Y-64350113D01*
X145400361Y-64322894D01*
X145317669Y-64278694D01*
X145245189Y-64219211D01*
X145185706Y-64146731D01*
X145141506Y-64064039D01*
X145114287Y-63974312D01*
X145105097Y-63881000D01*
X145114287Y-63787688D01*
X145141506Y-63697961D01*
X145185706Y-63615269D01*
X145245189Y-63542789D01*
X145317669Y-63483306D01*
X145400361Y-63439106D01*
X145490088Y-63411887D01*
X145560016Y-63405000D01*
X145606784Y-63405000D01*
X145676712Y-63411887D01*
X145676712Y-63411887D01*
G37*
G36*
X150553512Y-62903887D02*
G01*
X150643239Y-62931106D01*
X150725931Y-62975306D01*
X150779911Y-63019606D01*
X150800277Y-63033214D01*
X150822916Y-63042592D01*
X150846949Y-63047372D01*
X150871453Y-63047372D01*
X150895486Y-63042592D01*
X150918125Y-63033214D01*
X150938500Y-63019600D01*
X150955827Y-63002273D01*
X150969440Y-62981899D01*
X150978818Y-62959260D01*
X150984200Y-62922975D01*
X150984200Y-62897000D01*
X151936200Y-62897000D01*
X151936200Y-63849000D01*
X150984200Y-63849000D01*
X150984200Y-63823025D01*
X150981798Y-63798639D01*
X150974685Y-63775190D01*
X150963134Y-63753579D01*
X150947589Y-63734637D01*
X150928647Y-63719092D01*
X150907036Y-63707541D01*
X150883587Y-63700428D01*
X150859201Y-63698026D01*
X150834815Y-63700428D01*
X150811366Y-63707541D01*
X150779908Y-63726396D01*
X150725931Y-63770694D01*
X150643239Y-63814894D01*
X150553512Y-63842113D01*
X150483584Y-63849000D01*
X150436816Y-63849000D01*
X150366888Y-63842113D01*
X150277161Y-63814894D01*
X150194469Y-63770694D01*
X150121989Y-63711211D01*
X150062506Y-63638731D01*
X150018306Y-63556039D01*
X149991087Y-63466312D01*
X149981897Y-63373000D01*
X149991087Y-63279688D01*
X150018306Y-63189961D01*
X150062506Y-63107269D01*
X150121989Y-63034789D01*
X150194469Y-62975306D01*
X150277161Y-62931106D01*
X150366888Y-62903887D01*
X150436816Y-62897000D01*
X150483584Y-62897000D01*
X150553512Y-62903887D01*
X150553512Y-62903887D01*
G37*
G36*
X162764923Y-61106833D02*
G01*
X162925342Y-61155496D01*
X163058006Y-61226406D01*
X163073178Y-61234516D01*
X163202759Y-61340861D01*
X163309104Y-61470442D01*
X163309105Y-61470444D01*
X163388124Y-61618278D01*
X163436787Y-61778697D01*
X163453217Y-61945520D01*
X163436787Y-62112343D01*
X163388124Y-62272762D01*
X163317214Y-62405426D01*
X163309104Y-62420598D01*
X163202759Y-62550179D01*
X163073178Y-62656524D01*
X163073176Y-62656525D01*
X162925342Y-62735544D01*
X162764923Y-62784207D01*
X162639904Y-62796520D01*
X162556296Y-62796520D01*
X162431277Y-62784207D01*
X162270858Y-62735544D01*
X162123024Y-62656525D01*
X162123022Y-62656524D01*
X161993441Y-62550179D01*
X161887096Y-62420598D01*
X161878986Y-62405426D01*
X161808076Y-62272762D01*
X161759413Y-62112343D01*
X161742983Y-61945520D01*
X161759413Y-61778697D01*
X161808076Y-61618278D01*
X161887095Y-61470444D01*
X161887096Y-61470442D01*
X161993441Y-61340861D01*
X162123022Y-61234516D01*
X162138194Y-61226406D01*
X162270858Y-61155496D01*
X162431277Y-61106833D01*
X162556296Y-61094520D01*
X162639904Y-61094520D01*
X162764923Y-61106833D01*
X162764923Y-61106833D01*
G37*
G36*
X170384923Y-61106833D02*
G01*
X170545342Y-61155496D01*
X170678006Y-61226406D01*
X170693178Y-61234516D01*
X170822759Y-61340861D01*
X170929104Y-61470442D01*
X170929105Y-61470444D01*
X171008124Y-61618278D01*
X171056787Y-61778697D01*
X171073217Y-61945520D01*
X171056787Y-62112343D01*
X171008124Y-62272762D01*
X170937214Y-62405426D01*
X170929104Y-62420598D01*
X170822759Y-62550179D01*
X170693178Y-62656524D01*
X170693176Y-62656525D01*
X170545342Y-62735544D01*
X170384923Y-62784207D01*
X170259904Y-62796520D01*
X170176296Y-62796520D01*
X170051277Y-62784207D01*
X169890858Y-62735544D01*
X169743024Y-62656525D01*
X169743022Y-62656524D01*
X169613441Y-62550179D01*
X169507096Y-62420598D01*
X169498986Y-62405426D01*
X169428076Y-62272762D01*
X169379413Y-62112343D01*
X169362983Y-61945520D01*
X169379413Y-61778697D01*
X169428076Y-61618278D01*
X169507095Y-61470444D01*
X169507096Y-61470442D01*
X169613441Y-61340861D01*
X169743022Y-61234516D01*
X169758194Y-61226406D01*
X169890858Y-61155496D01*
X170051277Y-61106833D01*
X170176296Y-61094520D01*
X170259904Y-61094520D01*
X170384923Y-61106833D01*
X170384923Y-61106833D01*
G37*
G36*
X148073712Y-59922687D02*
G01*
X148163439Y-59949906D01*
X148246131Y-59994106D01*
X148318611Y-60053589D01*
X148378094Y-60126069D01*
X148422294Y-60208761D01*
X148449513Y-60298488D01*
X148458703Y-60391800D01*
X148449513Y-60485112D01*
X148422294Y-60574839D01*
X148378094Y-60657531D01*
X148333794Y-60711511D01*
X148320186Y-60731877D01*
X148310808Y-60754516D01*
X148306028Y-60778549D01*
X148306028Y-60803053D01*
X148310808Y-60827086D01*
X148320186Y-60849725D01*
X148333800Y-60870100D01*
X148351127Y-60887427D01*
X148371501Y-60901040D01*
X148394140Y-60910418D01*
X148430425Y-60915800D01*
X148456400Y-60915800D01*
X148456400Y-61867800D01*
X147504400Y-61867800D01*
X147504400Y-60915800D01*
X147530375Y-60915800D01*
X147554761Y-60913398D01*
X147578210Y-60906285D01*
X147599821Y-60894734D01*
X147618763Y-60879189D01*
X147634308Y-60860247D01*
X147645859Y-60838636D01*
X147652972Y-60815187D01*
X147655374Y-60790801D01*
X147652972Y-60766415D01*
X147645859Y-60742966D01*
X147627004Y-60711508D01*
X147582706Y-60657531D01*
X147538506Y-60574839D01*
X147511287Y-60485112D01*
X147502097Y-60391800D01*
X147511287Y-60298488D01*
X147538506Y-60208761D01*
X147582706Y-60126069D01*
X147642189Y-60053589D01*
X147714669Y-59994106D01*
X147797361Y-59949906D01*
X147887088Y-59922687D01*
X147957016Y-59915800D01*
X148003784Y-59915800D01*
X148073712Y-59922687D01*
X148073712Y-59922687D01*
G37*
G36*
X130961840Y-61538560D02*
G01*
X128859840Y-61538560D01*
X128859840Y-59436560D01*
X130961840Y-59436560D01*
X130961840Y-61538560D01*
X130961840Y-61538560D01*
G37*
G36*
X150943912Y-59186087D02*
G01*
X151033639Y-59213306D01*
X151116331Y-59257506D01*
X151188811Y-59316989D01*
X151248294Y-59389469D01*
X151292494Y-59472161D01*
X151319713Y-59561888D01*
X151328903Y-59655200D01*
X151319713Y-59748512D01*
X151292494Y-59838239D01*
X151248294Y-59920931D01*
X151203994Y-59974911D01*
X151190386Y-59995277D01*
X151181008Y-60017916D01*
X151176228Y-60041949D01*
X151176228Y-60066453D01*
X151181008Y-60090486D01*
X151190386Y-60113125D01*
X151204000Y-60133500D01*
X151221327Y-60150827D01*
X151241701Y-60164440D01*
X151264340Y-60173818D01*
X151300625Y-60179200D01*
X151326600Y-60179200D01*
X151326600Y-61131200D01*
X150374600Y-61131200D01*
X150374600Y-60179200D01*
X150400575Y-60179200D01*
X150424961Y-60176798D01*
X150448410Y-60169685D01*
X150470021Y-60158134D01*
X150488963Y-60142589D01*
X150504508Y-60123647D01*
X150516059Y-60102036D01*
X150523172Y-60078587D01*
X150525574Y-60054201D01*
X150523172Y-60029815D01*
X150516059Y-60006366D01*
X150497204Y-59974908D01*
X150452906Y-59920931D01*
X150408706Y-59838239D01*
X150381487Y-59748512D01*
X150372297Y-59655200D01*
X150381487Y-59561888D01*
X150408706Y-59472161D01*
X150452906Y-59389469D01*
X150512389Y-59316989D01*
X150584869Y-59257506D01*
X150667561Y-59213306D01*
X150757288Y-59186087D01*
X150827216Y-59179200D01*
X150873984Y-59179200D01*
X150943912Y-59186087D01*
X150943912Y-59186087D01*
G37*
G36*
X170384923Y-58566833D02*
G01*
X170545342Y-58615496D01*
X170678006Y-58686406D01*
X170693178Y-58694516D01*
X170822759Y-58800861D01*
X170929104Y-58930442D01*
X170929105Y-58930444D01*
X171008124Y-59078278D01*
X171056787Y-59238697D01*
X171073217Y-59405520D01*
X171056787Y-59572343D01*
X171008124Y-59732762D01*
X170999705Y-59748512D01*
X170929104Y-59880598D01*
X170822759Y-60010179D01*
X170693178Y-60116524D01*
X170693176Y-60116525D01*
X170545342Y-60195544D01*
X170384923Y-60244207D01*
X170259904Y-60256520D01*
X170176296Y-60256520D01*
X170051277Y-60244207D01*
X169890858Y-60195544D01*
X169743024Y-60116525D01*
X169743022Y-60116524D01*
X169613441Y-60010179D01*
X169507096Y-59880598D01*
X169436495Y-59748512D01*
X169428076Y-59732762D01*
X169379413Y-59572343D01*
X169362983Y-59405520D01*
X169379413Y-59238697D01*
X169428076Y-59078278D01*
X169507095Y-58930444D01*
X169507096Y-58930442D01*
X169613441Y-58800861D01*
X169743022Y-58694516D01*
X169758194Y-58686406D01*
X169890858Y-58615496D01*
X170051277Y-58566833D01*
X170176296Y-58554520D01*
X170259904Y-58554520D01*
X170384923Y-58566833D01*
X170384923Y-58566833D01*
G37*
G36*
X163449100Y-60256520D02*
G01*
X161747100Y-60256520D01*
X161747100Y-58554520D01*
X163449100Y-58554520D01*
X163449100Y-60256520D01*
X163449100Y-60256520D01*
G37*
G36*
X163153543Y-54495213D02*
G01*
X163313962Y-54543876D01*
X163446626Y-54614786D01*
X163461798Y-54622896D01*
X163591379Y-54729241D01*
X163697724Y-54858822D01*
X163697725Y-54858824D01*
X163776744Y-55006658D01*
X163825407Y-55167077D01*
X163841837Y-55333900D01*
X163825407Y-55500723D01*
X163776744Y-55661142D01*
X163705834Y-55793806D01*
X163697724Y-55808978D01*
X163591379Y-55938559D01*
X163461798Y-56044904D01*
X163461796Y-56044905D01*
X163313962Y-56123924D01*
X163153543Y-56172587D01*
X163028524Y-56184900D01*
X162944916Y-56184900D01*
X162819897Y-56172587D01*
X162659478Y-56123924D01*
X162511644Y-56044905D01*
X162511642Y-56044904D01*
X162382061Y-55938559D01*
X162275716Y-55808978D01*
X162267606Y-55793806D01*
X162196696Y-55661142D01*
X162148033Y-55500723D01*
X162131603Y-55333900D01*
X162148033Y-55167077D01*
X162196696Y-55006658D01*
X162275715Y-54858824D01*
X162275716Y-54858822D01*
X162382061Y-54729241D01*
X162511642Y-54622896D01*
X162526814Y-54614786D01*
X162659478Y-54543876D01*
X162819897Y-54495213D01*
X162944916Y-54482900D01*
X163028524Y-54482900D01*
X163153543Y-54495213D01*
X163153543Y-54495213D01*
G37*
G36*
X126239980Y-52125320D02*
G01*
X124137980Y-52125320D01*
X124137980Y-50023320D01*
X126239980Y-50023320D01*
X126239980Y-52125320D01*
X126239980Y-52125320D01*
G37*
G36*
X153912240Y-49317660D02*
G01*
X153886265Y-49317660D01*
X153861879Y-49320062D01*
X153838430Y-49327175D01*
X153816819Y-49338726D01*
X153797877Y-49354271D01*
X153782332Y-49373213D01*
X153770781Y-49394824D01*
X153763668Y-49418273D01*
X153761266Y-49442659D01*
X153763668Y-49467045D01*
X153770781Y-49490494D01*
X153789636Y-49521952D01*
X153833934Y-49575929D01*
X153878134Y-49658621D01*
X153905353Y-49748348D01*
X153914543Y-49841660D01*
X153905353Y-49934972D01*
X153878134Y-50024699D01*
X153833934Y-50107391D01*
X153774451Y-50179871D01*
X153701971Y-50239354D01*
X153619279Y-50283554D01*
X153529552Y-50310773D01*
X153459624Y-50317660D01*
X153412856Y-50317660D01*
X153342928Y-50310773D01*
X153253201Y-50283554D01*
X153170509Y-50239354D01*
X153098029Y-50179871D01*
X153038546Y-50107391D01*
X152994346Y-50024699D01*
X152967127Y-49934972D01*
X152957937Y-49841660D01*
X152967127Y-49748348D01*
X152994346Y-49658621D01*
X153038546Y-49575929D01*
X153082846Y-49521949D01*
X153096454Y-49501583D01*
X153105832Y-49478944D01*
X153110612Y-49454911D01*
X153110612Y-49430407D01*
X153105832Y-49406374D01*
X153096454Y-49383735D01*
X153082840Y-49363360D01*
X153065513Y-49346033D01*
X153045139Y-49332420D01*
X153022500Y-49323042D01*
X152986215Y-49317660D01*
X152960240Y-49317660D01*
X152960240Y-48365660D01*
X153912240Y-48365660D01*
X153912240Y-49317660D01*
X153912240Y-49317660D01*
G37*
G36*
X158872940Y-48267175D02*
G01*
X158875342Y-48291561D01*
X158882455Y-48315010D01*
X158894006Y-48336621D01*
X158909551Y-48355563D01*
X158928493Y-48371108D01*
X158950104Y-48382659D01*
X158973553Y-48389772D01*
X158997939Y-48392174D01*
X159022325Y-48389772D01*
X159045774Y-48382659D01*
X159077232Y-48363804D01*
X159131209Y-48319506D01*
X159213901Y-48275306D01*
X159303628Y-48248087D01*
X159373556Y-48241200D01*
X159420324Y-48241200D01*
X159490252Y-48248087D01*
X159579979Y-48275306D01*
X159662671Y-48319506D01*
X159735151Y-48378989D01*
X159794634Y-48451469D01*
X159838834Y-48534161D01*
X159866053Y-48623888D01*
X159875243Y-48717200D01*
X159866053Y-48810512D01*
X159838834Y-48900239D01*
X159794634Y-48982931D01*
X159735151Y-49055411D01*
X159662671Y-49114894D01*
X159579979Y-49159094D01*
X159490252Y-49186313D01*
X159420324Y-49193200D01*
X159373556Y-49193200D01*
X159303628Y-49186313D01*
X159213901Y-49159094D01*
X159131209Y-49114894D01*
X159077229Y-49070594D01*
X159056863Y-49056986D01*
X159034224Y-49047608D01*
X159010191Y-49042828D01*
X158985687Y-49042828D01*
X158961654Y-49047608D01*
X158939015Y-49056986D01*
X158918640Y-49070600D01*
X158901313Y-49087927D01*
X158887700Y-49108301D01*
X158878322Y-49130940D01*
X158872940Y-49167225D01*
X158872940Y-49193200D01*
X157920940Y-49193200D01*
X157920940Y-48241200D01*
X158872940Y-48241200D01*
X158872940Y-48267175D01*
X158872940Y-48267175D01*
G37*
G36*
X129826460Y-49143360D02*
G01*
X127724460Y-49143360D01*
X127724460Y-47041360D01*
X129826460Y-47041360D01*
X129826460Y-49143360D01*
X129826460Y-49143360D01*
G37*
G36*
X163837720Y-48564900D02*
G01*
X162135720Y-48564900D01*
X162135720Y-46862900D01*
X163837720Y-46862900D01*
X163837720Y-48564900D01*
X163837720Y-48564900D01*
G37*
G36*
X121432426Y-45265837D02*
G01*
X121602265Y-45317357D01*
X121602267Y-45317358D01*
X121758789Y-45401021D01*
X121895986Y-45513614D01*
X121979248Y-45615071D01*
X122008578Y-45650809D01*
X122092243Y-45807334D01*
X122143763Y-45977173D01*
X122156800Y-46109542D01*
X122156800Y-46448057D01*
X122143763Y-46580426D01*
X122092243Y-46750266D01*
X122008578Y-46906791D01*
X121979248Y-46942529D01*
X121895986Y-47043986D01*
X121801050Y-47121897D01*
X121758791Y-47156578D01*
X121602266Y-47240243D01*
X121432427Y-47291763D01*
X121255800Y-47309159D01*
X121079174Y-47291763D01*
X120909335Y-47240243D01*
X120752810Y-47156578D01*
X120615615Y-47043985D01*
X120503022Y-46906791D01*
X120419357Y-46750266D01*
X120367837Y-46580427D01*
X120354800Y-46448058D01*
X120354800Y-46109543D01*
X120367837Y-45977174D01*
X120419357Y-45807335D01*
X120503022Y-45650810D01*
X120503023Y-45650809D01*
X120615614Y-45513614D01*
X120717071Y-45430352D01*
X120752809Y-45401022D01*
X120909334Y-45317357D01*
X121079173Y-45265837D01*
X121255800Y-45248441D01*
X121432426Y-45265837D01*
X121432426Y-45265837D01*
G37*
G36*
X118932426Y-45265837D02*
G01*
X119102265Y-45317357D01*
X119102267Y-45317358D01*
X119258789Y-45401021D01*
X119395986Y-45513614D01*
X119479248Y-45615071D01*
X119508578Y-45650809D01*
X119592243Y-45807334D01*
X119643763Y-45977173D01*
X119656800Y-46109542D01*
X119656800Y-46448057D01*
X119643763Y-46580426D01*
X119592243Y-46750266D01*
X119508578Y-46906791D01*
X119479248Y-46942529D01*
X119395986Y-47043986D01*
X119301050Y-47121897D01*
X119258791Y-47156578D01*
X119102266Y-47240243D01*
X118932427Y-47291763D01*
X118755800Y-47309159D01*
X118579174Y-47291763D01*
X118409335Y-47240243D01*
X118252810Y-47156578D01*
X118115615Y-47043985D01*
X118003022Y-46906791D01*
X117919357Y-46750266D01*
X117867837Y-46580427D01*
X117854800Y-46448058D01*
X117854800Y-46109543D01*
X117867837Y-45977174D01*
X117919357Y-45807335D01*
X118003022Y-45650810D01*
X118003023Y-45650809D01*
X118115614Y-45513614D01*
X118217071Y-45430352D01*
X118252809Y-45401022D01*
X118409334Y-45317357D01*
X118579173Y-45265837D01*
X118755800Y-45248441D01*
X118932426Y-45265837D01*
X118932426Y-45265837D01*
G37*
G36*
X117014400Y-45256789D02*
G01*
X117047452Y-45266815D01*
X117077903Y-45283092D01*
X117104599Y-45305001D01*
X117126508Y-45331697D01*
X117142785Y-45362148D01*
X117152811Y-45395200D01*
X117156800Y-45435703D01*
X117156800Y-47121897D01*
X117152811Y-47162400D01*
X117142785Y-47195452D01*
X117126508Y-47225903D01*
X117104599Y-47252599D01*
X117077903Y-47274508D01*
X117047452Y-47290785D01*
X117014400Y-47300811D01*
X116973897Y-47304800D01*
X115537703Y-47304800D01*
X115497200Y-47300811D01*
X115464148Y-47290785D01*
X115433697Y-47274508D01*
X115407001Y-47252599D01*
X115385092Y-47225903D01*
X115368815Y-47195452D01*
X115358789Y-47162400D01*
X115354800Y-47121897D01*
X115354800Y-45435703D01*
X115358789Y-45395200D01*
X115368815Y-45362148D01*
X115385092Y-45331697D01*
X115407001Y-45305001D01*
X115433697Y-45283092D01*
X115464148Y-45266815D01*
X115497200Y-45256789D01*
X115537703Y-45252800D01*
X116973897Y-45252800D01*
X117014400Y-45256789D01*
X117014400Y-45256789D01*
G37*
G36*
X146705672Y-43005649D02*
G01*
X146705674Y-43005650D01*
X146705675Y-43005650D01*
X146774103Y-43033993D01*
X146835686Y-43075142D01*
X146888058Y-43127514D01*
X146894741Y-43137515D01*
X146895408Y-43138514D01*
X146910953Y-43157456D01*
X146929895Y-43173002D01*
X146951506Y-43184553D01*
X146974954Y-43191666D01*
X146999341Y-43194068D01*
X147023727Y-43191666D01*
X147047176Y-43184553D01*
X147068786Y-43173002D01*
X147087728Y-43157457D01*
X147103274Y-43138514D01*
X147103942Y-43137514D01*
X147156314Y-43085142D01*
X147217897Y-43043993D01*
X147286325Y-43015650D01*
X147286326Y-43015650D01*
X147286328Y-43015649D01*
X147358966Y-43001200D01*
X147433034Y-43001200D01*
X147505672Y-43015649D01*
X147505674Y-43015650D01*
X147505675Y-43015650D01*
X147574103Y-43043993D01*
X147635686Y-43085142D01*
X147688058Y-43137514D01*
X147692072Y-43143521D01*
X147707612Y-43162456D01*
X147726553Y-43178001D01*
X147748164Y-43189553D01*
X147771613Y-43196666D01*
X147795999Y-43199068D01*
X147820385Y-43196666D01*
X147843834Y-43189553D01*
X147865445Y-43178003D01*
X147884387Y-43162457D01*
X147899928Y-43143521D01*
X147903942Y-43137514D01*
X147956314Y-43085142D01*
X148017897Y-43043993D01*
X148086325Y-43015650D01*
X148086326Y-43015650D01*
X148086328Y-43015649D01*
X148158966Y-43001200D01*
X148233034Y-43001200D01*
X148305672Y-43015649D01*
X148305674Y-43015650D01*
X148305675Y-43015650D01*
X148374103Y-43043993D01*
X148435686Y-43085142D01*
X148488058Y-43137514D01*
X148529207Y-43199097D01*
X148553408Y-43257525D01*
X148557551Y-43267528D01*
X148572000Y-43340166D01*
X148572000Y-43414234D01*
X148557551Y-43486874D01*
X148539565Y-43530296D01*
X148532452Y-43553745D01*
X148530050Y-43578131D01*
X148532452Y-43602517D01*
X148539565Y-43625966D01*
X148551116Y-43647576D01*
X148566661Y-43666518D01*
X148585603Y-43682064D01*
X148607214Y-43693615D01*
X148630662Y-43700728D01*
X148705673Y-43715649D01*
X148705676Y-43715650D01*
X148705675Y-43715650D01*
X148774103Y-43743993D01*
X148835686Y-43785142D01*
X148888058Y-43837514D01*
X148929207Y-43899097D01*
X148957550Y-43967525D01*
X148972000Y-44040167D01*
X148972000Y-44114233D01*
X148957550Y-44186875D01*
X148929207Y-44255303D01*
X148888058Y-44316886D01*
X148835686Y-44369258D01*
X148774103Y-44410407D01*
X148705675Y-44438750D01*
X148705674Y-44438750D01*
X148705672Y-44438751D01*
X148633034Y-44453200D01*
X148558966Y-44453200D01*
X148486328Y-44438751D01*
X148486326Y-44438750D01*
X148486325Y-44438750D01*
X148417897Y-44410407D01*
X148356314Y-44369258D01*
X148303942Y-44316886D01*
X148299928Y-44310879D01*
X148284388Y-44291944D01*
X148265447Y-44276399D01*
X148243836Y-44264847D01*
X148220387Y-44257734D01*
X148196001Y-44255332D01*
X148171615Y-44257734D01*
X148148166Y-44264847D01*
X148126555Y-44276397D01*
X148107613Y-44291943D01*
X148092072Y-44310879D01*
X148088058Y-44316886D01*
X148035686Y-44369258D01*
X147974103Y-44410407D01*
X147905675Y-44438750D01*
X147905674Y-44438750D01*
X147905672Y-44438751D01*
X147833034Y-44453200D01*
X147758966Y-44453200D01*
X147686328Y-44438751D01*
X147686326Y-44438750D01*
X147686325Y-44438750D01*
X147617897Y-44410407D01*
X147556314Y-44369258D01*
X147503942Y-44316886D01*
X147499928Y-44310879D01*
X147484388Y-44291944D01*
X147465447Y-44276399D01*
X147443836Y-44264847D01*
X147420387Y-44257734D01*
X147396001Y-44255332D01*
X147371615Y-44257734D01*
X147348166Y-44264847D01*
X147326555Y-44276397D01*
X147307613Y-44291943D01*
X147292072Y-44310879D01*
X147288058Y-44316886D01*
X147235686Y-44369258D01*
X147174103Y-44410407D01*
X147105675Y-44438750D01*
X147105674Y-44438750D01*
X147105672Y-44438751D01*
X147033034Y-44453200D01*
X146958966Y-44453200D01*
X146886328Y-44438751D01*
X146886326Y-44438750D01*
X146886325Y-44438750D01*
X146817897Y-44410407D01*
X146756314Y-44369258D01*
X146703942Y-44316886D01*
X146699928Y-44310879D01*
X146684388Y-44291944D01*
X146665447Y-44276399D01*
X146643836Y-44264847D01*
X146620387Y-44257734D01*
X146596001Y-44255332D01*
X146571615Y-44257734D01*
X146548166Y-44264847D01*
X146526555Y-44276397D01*
X146507613Y-44291943D01*
X146492072Y-44310879D01*
X146488058Y-44316886D01*
X146435686Y-44369258D01*
X146374103Y-44410407D01*
X146305675Y-44438750D01*
X146305674Y-44438750D01*
X146305672Y-44438751D01*
X146233034Y-44453200D01*
X146158966Y-44453200D01*
X146086328Y-44438751D01*
X146086326Y-44438750D01*
X146086325Y-44438750D01*
X146017897Y-44410407D01*
X145956314Y-44369258D01*
X145903942Y-44316886D01*
X145899928Y-44310879D01*
X145884388Y-44291944D01*
X145865447Y-44276399D01*
X145843836Y-44264847D01*
X145820387Y-44257734D01*
X145796001Y-44255332D01*
X145771615Y-44257734D01*
X145748166Y-44264847D01*
X145726555Y-44276397D01*
X145707613Y-44291943D01*
X145692072Y-44310879D01*
X145688058Y-44316886D01*
X145635686Y-44369258D01*
X145574103Y-44410407D01*
X145505675Y-44438750D01*
X145505674Y-44438750D01*
X145505672Y-44438751D01*
X145433034Y-44453200D01*
X145358966Y-44453200D01*
X145286328Y-44438751D01*
X145286326Y-44438750D01*
X145286325Y-44438750D01*
X145217897Y-44410407D01*
X145156314Y-44369258D01*
X145103942Y-44316886D01*
X145099928Y-44310879D01*
X145084388Y-44291944D01*
X145065447Y-44276399D01*
X145043836Y-44264847D01*
X145020387Y-44257734D01*
X144996001Y-44255332D01*
X144971615Y-44257734D01*
X144948166Y-44264847D01*
X144926555Y-44276397D01*
X144907613Y-44291943D01*
X144892072Y-44310879D01*
X144888058Y-44316886D01*
X144835686Y-44369258D01*
X144774103Y-44410407D01*
X144705675Y-44438750D01*
X144705674Y-44438750D01*
X144705672Y-44438751D01*
X144633034Y-44453200D01*
X144558966Y-44453200D01*
X144486328Y-44438751D01*
X144486326Y-44438750D01*
X144486325Y-44438750D01*
X144417897Y-44410407D01*
X144356314Y-44369258D01*
X144303942Y-44316886D01*
X144299928Y-44310879D01*
X144284388Y-44291944D01*
X144265447Y-44276399D01*
X144243836Y-44264847D01*
X144220387Y-44257734D01*
X144196001Y-44255332D01*
X144171615Y-44257734D01*
X144148166Y-44264847D01*
X144126555Y-44276397D01*
X144107613Y-44291943D01*
X144092072Y-44310879D01*
X144088058Y-44316886D01*
X144035686Y-44369258D01*
X143974103Y-44410407D01*
X143905675Y-44438750D01*
X143905674Y-44438750D01*
X143905672Y-44438751D01*
X143833034Y-44453200D01*
X143758966Y-44453200D01*
X143686328Y-44438751D01*
X143686326Y-44438750D01*
X143686325Y-44438750D01*
X143617897Y-44410407D01*
X143556314Y-44369258D01*
X143503942Y-44316886D01*
X143499928Y-44310879D01*
X143484388Y-44291944D01*
X143465447Y-44276399D01*
X143443836Y-44264847D01*
X143420387Y-44257734D01*
X143396001Y-44255332D01*
X143371615Y-44257734D01*
X143348166Y-44264847D01*
X143326555Y-44276397D01*
X143307613Y-44291943D01*
X143292072Y-44310879D01*
X143288058Y-44316886D01*
X143235686Y-44369258D01*
X143174103Y-44410407D01*
X143105675Y-44438750D01*
X143105674Y-44438750D01*
X143105672Y-44438751D01*
X143033034Y-44453200D01*
X142958966Y-44453200D01*
X142886328Y-44438751D01*
X142886326Y-44438750D01*
X142886325Y-44438750D01*
X142817897Y-44410407D01*
X142756314Y-44369258D01*
X142703942Y-44316886D01*
X142662793Y-44255303D01*
X142634450Y-44186875D01*
X142620000Y-44114233D01*
X142620000Y-44040167D01*
X142634450Y-43967525D01*
X142662793Y-43899097D01*
X142703942Y-43837514D01*
X142756314Y-43785142D01*
X142817897Y-43743993D01*
X142886325Y-43715650D01*
X142886324Y-43715650D01*
X142886327Y-43715649D01*
X142961338Y-43700728D01*
X142984786Y-43693615D01*
X143006397Y-43682064D01*
X143025339Y-43666518D01*
X143040884Y-43647576D01*
X143052435Y-43625966D01*
X143059548Y-43602517D01*
X143061950Y-43578131D01*
X143059548Y-43553744D01*
X143052435Y-43530296D01*
X143034449Y-43486874D01*
X143020000Y-43414234D01*
X143020000Y-43340166D01*
X143034449Y-43267528D01*
X143038592Y-43257525D01*
X143062793Y-43199097D01*
X143103942Y-43137514D01*
X143156314Y-43085142D01*
X143217897Y-43043993D01*
X143286325Y-43015650D01*
X143286326Y-43015650D01*
X143286328Y-43015649D01*
X143358966Y-43001200D01*
X143433034Y-43001200D01*
X143505672Y-43015649D01*
X143505674Y-43015650D01*
X143505675Y-43015650D01*
X143574103Y-43043993D01*
X143635686Y-43085142D01*
X143688058Y-43137514D01*
X143692072Y-43143521D01*
X143707612Y-43162456D01*
X143726553Y-43178001D01*
X143748164Y-43189553D01*
X143771613Y-43196666D01*
X143795999Y-43199068D01*
X143820385Y-43196666D01*
X143843834Y-43189553D01*
X143865445Y-43178003D01*
X143884387Y-43162457D01*
X143899928Y-43143521D01*
X143903942Y-43137514D01*
X143956314Y-43085142D01*
X144017897Y-43043993D01*
X144086325Y-43015650D01*
X144086326Y-43015650D01*
X144086328Y-43015649D01*
X144158966Y-43001200D01*
X144233034Y-43001200D01*
X144305672Y-43015649D01*
X144305674Y-43015650D01*
X144305675Y-43015650D01*
X144374103Y-43043993D01*
X144435686Y-43085142D01*
X144488058Y-43137514D01*
X144492072Y-43143521D01*
X144507612Y-43162456D01*
X144526553Y-43178001D01*
X144548164Y-43189553D01*
X144571613Y-43196666D01*
X144595999Y-43199068D01*
X144620385Y-43196666D01*
X144643834Y-43189553D01*
X144665445Y-43178003D01*
X144684387Y-43162457D01*
X144699928Y-43143521D01*
X144703942Y-43137514D01*
X144756314Y-43085142D01*
X144817897Y-43043993D01*
X144886325Y-43015650D01*
X144886326Y-43015650D01*
X144886328Y-43015649D01*
X144958966Y-43001200D01*
X145033034Y-43001200D01*
X145105672Y-43015649D01*
X145105674Y-43015650D01*
X145105675Y-43015650D01*
X145174103Y-43043993D01*
X145235686Y-43085142D01*
X145288058Y-43137514D01*
X145329207Y-43199097D01*
X145353408Y-43257525D01*
X145357551Y-43267528D01*
X145372000Y-43340166D01*
X145372000Y-43414234D01*
X145357551Y-43486874D01*
X145339565Y-43530296D01*
X145332452Y-43553745D01*
X145330050Y-43578131D01*
X145332452Y-43602517D01*
X145339565Y-43625966D01*
X145351116Y-43647576D01*
X145366661Y-43666518D01*
X145385603Y-43682064D01*
X145407214Y-43693615D01*
X145430662Y-43700728D01*
X145505673Y-43715649D01*
X145505676Y-43715650D01*
X145505675Y-43715650D01*
X145574103Y-43743993D01*
X145635686Y-43785142D01*
X145688058Y-43837514D01*
X145692072Y-43843521D01*
X145707612Y-43862456D01*
X145726553Y-43878001D01*
X145748164Y-43889553D01*
X145771613Y-43896666D01*
X145795999Y-43899068D01*
X145820385Y-43896666D01*
X145843834Y-43889553D01*
X145865445Y-43878003D01*
X145884387Y-43862457D01*
X145899928Y-43843521D01*
X145903942Y-43837514D01*
X145956314Y-43785142D01*
X146017897Y-43743993D01*
X146086325Y-43715650D01*
X146086326Y-43715650D01*
X146086328Y-43715649D01*
X146165164Y-43699967D01*
X146188613Y-43692854D01*
X146210224Y-43681303D01*
X146229166Y-43665758D01*
X146244711Y-43646816D01*
X146256262Y-43625205D01*
X146263375Y-43601756D01*
X146265777Y-43577370D01*
X146263375Y-43552984D01*
X146256262Y-43529535D01*
X146234449Y-43476874D01*
X146220000Y-43404234D01*
X146220000Y-43330166D01*
X146234449Y-43257528D01*
X146234450Y-43257525D01*
X146262793Y-43189097D01*
X146303942Y-43127514D01*
X146356314Y-43075142D01*
X146417897Y-43033993D01*
X146486325Y-43005650D01*
X146486326Y-43005650D01*
X146486328Y-43005649D01*
X146558966Y-42991200D01*
X146633034Y-42991200D01*
X146705672Y-43005649D01*
X146705672Y-43005649D01*
G37*
G36*
X150174015Y-42084173D02*
G01*
X150277879Y-42115679D01*
X150305055Y-42130205D01*
X150373600Y-42166843D01*
X150457501Y-42235699D01*
X150526357Y-42319600D01*
X150562995Y-42388145D01*
X150577521Y-42415321D01*
X150609027Y-42519185D01*
X150617000Y-42600133D01*
X150617000Y-43254267D01*
X150609027Y-43335215D01*
X150577521Y-43439079D01*
X150577519Y-43439082D01*
X150528764Y-43530296D01*
X150526356Y-43534800D01*
X150457501Y-43618701D01*
X150400161Y-43665758D01*
X150373599Y-43687557D01*
X150330849Y-43710407D01*
X150277878Y-43738721D01*
X150174014Y-43770227D01*
X150066000Y-43780866D01*
X149957985Y-43770227D01*
X149854121Y-43738721D01*
X149801150Y-43710407D01*
X149758401Y-43687557D01*
X149731839Y-43665758D01*
X149674499Y-43618701D01*
X149605644Y-43534800D01*
X149603237Y-43530296D01*
X149574682Y-43476874D01*
X149554479Y-43439078D01*
X149522973Y-43335214D01*
X149515000Y-43254266D01*
X149515000Y-42600133D01*
X149522973Y-42519185D01*
X149554480Y-42415321D01*
X149554482Y-42415318D01*
X149605645Y-42319599D01*
X149674500Y-42235699D01*
X149758401Y-42166843D01*
X149826946Y-42130205D01*
X149854122Y-42115679D01*
X149957986Y-42084173D01*
X150066000Y-42073534D01*
X150174015Y-42084173D01*
X150174015Y-42084173D01*
G37*
G36*
X141634015Y-42084173D02*
G01*
X141737879Y-42115679D01*
X141765055Y-42130205D01*
X141833600Y-42166843D01*
X141917501Y-42235699D01*
X141986357Y-42319600D01*
X142022995Y-42388145D01*
X142037521Y-42415321D01*
X142069027Y-42519185D01*
X142077000Y-42600133D01*
X142077000Y-43254267D01*
X142069027Y-43335215D01*
X142037521Y-43439079D01*
X142037519Y-43439082D01*
X141988764Y-43530296D01*
X141986356Y-43534800D01*
X141917501Y-43618701D01*
X141860161Y-43665758D01*
X141833599Y-43687557D01*
X141790849Y-43710407D01*
X141737878Y-43738721D01*
X141634014Y-43770227D01*
X141526000Y-43780866D01*
X141417985Y-43770227D01*
X141314121Y-43738721D01*
X141261150Y-43710407D01*
X141218401Y-43687557D01*
X141191839Y-43665758D01*
X141134499Y-43618701D01*
X141065644Y-43534800D01*
X141063237Y-43530296D01*
X141034682Y-43476874D01*
X141014479Y-43439078D01*
X140982973Y-43335214D01*
X140975000Y-43254266D01*
X140975000Y-42600133D01*
X140982973Y-42519185D01*
X141014480Y-42415321D01*
X141014482Y-42415318D01*
X141065645Y-42319599D01*
X141134500Y-42235699D01*
X141218401Y-42166843D01*
X141286946Y-42130205D01*
X141314122Y-42115679D01*
X141417986Y-42084173D01*
X141526000Y-42073534D01*
X141634015Y-42084173D01*
X141634015Y-42084173D01*
G37*
G36*
X162058843Y-40300519D02*
G01*
X162125027Y-40307037D01*
X162294866Y-40358557D01*
X162451391Y-40442222D01*
X162487129Y-40471552D01*
X162588586Y-40554814D01*
X162671848Y-40656271D01*
X162701178Y-40692009D01*
X162784843Y-40848534D01*
X162836363Y-41018373D01*
X162853759Y-41195000D01*
X162836363Y-41371627D01*
X162784843Y-41541466D01*
X162701178Y-41697991D01*
X162671848Y-41733729D01*
X162588586Y-41835186D01*
X162487129Y-41918448D01*
X162451391Y-41947778D01*
X162294866Y-42031443D01*
X162125027Y-42082963D01*
X162058843Y-42089481D01*
X161992660Y-42096000D01*
X161654140Y-42096000D01*
X161587957Y-42089481D01*
X161521773Y-42082963D01*
X161351934Y-42031443D01*
X161195409Y-41947778D01*
X161159671Y-41918448D01*
X161058214Y-41835186D01*
X160974952Y-41733729D01*
X160945622Y-41697991D01*
X160861957Y-41541466D01*
X160810437Y-41371627D01*
X160793041Y-41195000D01*
X160810437Y-41018373D01*
X160861957Y-40848534D01*
X160945622Y-40692009D01*
X160974952Y-40656271D01*
X161058214Y-40554814D01*
X161159671Y-40471552D01*
X161195409Y-40442222D01*
X161351934Y-40358557D01*
X161521773Y-40307037D01*
X161587957Y-40300519D01*
X161654140Y-40294000D01*
X161992660Y-40294000D01*
X162058843Y-40300519D01*
X162058843Y-40300519D01*
G37*
G36*
X118145026Y-37722037D02*
G01*
X118314865Y-37773557D01*
X118314867Y-37773558D01*
X118471389Y-37857221D01*
X118608586Y-37969814D01*
X118678343Y-38054815D01*
X118721178Y-38107009D01*
X118804843Y-38263534D01*
X118856363Y-38433373D01*
X118856363Y-38433375D01*
X118869400Y-38565740D01*
X118869400Y-38904259D01*
X118862881Y-38970442D01*
X118856363Y-39036626D01*
X118804843Y-39206466D01*
X118721178Y-39362991D01*
X118691848Y-39398729D01*
X118608586Y-39500186D01*
X118513650Y-39578097D01*
X118471391Y-39612778D01*
X118314866Y-39696443D01*
X118145027Y-39747963D01*
X117968400Y-39765359D01*
X117791774Y-39747963D01*
X117621935Y-39696443D01*
X117465410Y-39612778D01*
X117328215Y-39500185D01*
X117215622Y-39362991D01*
X117131957Y-39206466D01*
X117080437Y-39036627D01*
X117067400Y-38904258D01*
X117067400Y-38565743D01*
X117071486Y-38524261D01*
X117080437Y-38433376D01*
X117080437Y-38433374D01*
X117131957Y-38263535D01*
X117131959Y-38263532D01*
X117215621Y-38107011D01*
X117328214Y-37969814D01*
X117429671Y-37886552D01*
X117465409Y-37857222D01*
X117583688Y-37794000D01*
X117621932Y-37773558D01*
X117621934Y-37773557D01*
X117791773Y-37722037D01*
X117968400Y-37704641D01*
X118145026Y-37722037D01*
X118145026Y-37722037D01*
G37*
G36*
X120645026Y-37722037D02*
G01*
X120814865Y-37773557D01*
X120814867Y-37773558D01*
X120971389Y-37857221D01*
X121108586Y-37969814D01*
X121178343Y-38054815D01*
X121221178Y-38107009D01*
X121304843Y-38263534D01*
X121356363Y-38433373D01*
X121356363Y-38433375D01*
X121369400Y-38565740D01*
X121369400Y-38904259D01*
X121362881Y-38970442D01*
X121356363Y-39036626D01*
X121304843Y-39206466D01*
X121221178Y-39362991D01*
X121191848Y-39398729D01*
X121108586Y-39500186D01*
X121013650Y-39578097D01*
X120971391Y-39612778D01*
X120814866Y-39696443D01*
X120645027Y-39747963D01*
X120468400Y-39765359D01*
X120291774Y-39747963D01*
X120121935Y-39696443D01*
X119965410Y-39612778D01*
X119828215Y-39500185D01*
X119715622Y-39362991D01*
X119631957Y-39206466D01*
X119580437Y-39036627D01*
X119567400Y-38904258D01*
X119567400Y-38565743D01*
X119571486Y-38524261D01*
X119580437Y-38433376D01*
X119580437Y-38433374D01*
X119631957Y-38263535D01*
X119631959Y-38263532D01*
X119715621Y-38107011D01*
X119828214Y-37969814D01*
X119929671Y-37886552D01*
X119965409Y-37857222D01*
X120083688Y-37794000D01*
X120121932Y-37773558D01*
X120121934Y-37773557D01*
X120291773Y-37722037D01*
X120468400Y-37704641D01*
X120645026Y-37722037D01*
X120645026Y-37722037D01*
G37*
G36*
X116227000Y-37712989D02*
G01*
X116260052Y-37723015D01*
X116290503Y-37739292D01*
X116317199Y-37761201D01*
X116339108Y-37787897D01*
X116355385Y-37818348D01*
X116365411Y-37851400D01*
X116369400Y-37891903D01*
X116369400Y-39578097D01*
X116365411Y-39618600D01*
X116355385Y-39651652D01*
X116339108Y-39682103D01*
X116317199Y-39708799D01*
X116290503Y-39730708D01*
X116260052Y-39746985D01*
X116227000Y-39757011D01*
X116186497Y-39761000D01*
X114750303Y-39761000D01*
X114709800Y-39757011D01*
X114676748Y-39746985D01*
X114646297Y-39730708D01*
X114619601Y-39708799D01*
X114597692Y-39682103D01*
X114581415Y-39651652D01*
X114571389Y-39618600D01*
X114567400Y-39578097D01*
X114567400Y-37891903D01*
X114571389Y-37851400D01*
X114581415Y-37818348D01*
X114597692Y-37787897D01*
X114619601Y-37761201D01*
X114646297Y-37739292D01*
X114676748Y-37723015D01*
X114709800Y-37712989D01*
X114750303Y-37709000D01*
X116186497Y-37709000D01*
X116227000Y-37712989D01*
X116227000Y-37712989D01*
G37*
G36*
X162058843Y-37800519D02*
G01*
X162125027Y-37807037D01*
X162294866Y-37858557D01*
X162294868Y-37858558D01*
X162373128Y-37900389D01*
X162451391Y-37942222D01*
X162485012Y-37969814D01*
X162588586Y-38054814D01*
X162671848Y-38156271D01*
X162701178Y-38192009D01*
X162784843Y-38348534D01*
X162836363Y-38518373D01*
X162853759Y-38695000D01*
X162836363Y-38871627D01*
X162784843Y-39041466D01*
X162701178Y-39197991D01*
X162694221Y-39206468D01*
X162588586Y-39335186D01*
X162487129Y-39418448D01*
X162451391Y-39447778D01*
X162294866Y-39531443D01*
X162125027Y-39582963D01*
X162058843Y-39589481D01*
X161992660Y-39596000D01*
X161654140Y-39596000D01*
X161587957Y-39589481D01*
X161521773Y-39582963D01*
X161351934Y-39531443D01*
X161195409Y-39447778D01*
X161159671Y-39418448D01*
X161058214Y-39335186D01*
X160952579Y-39206468D01*
X160945622Y-39197991D01*
X160861957Y-39041466D01*
X160810437Y-38871627D01*
X160793041Y-38695000D01*
X160810437Y-38518373D01*
X160861957Y-38348534D01*
X160945622Y-38192009D01*
X160974952Y-38156271D01*
X161058214Y-38054814D01*
X161161788Y-37969814D01*
X161195409Y-37942222D01*
X161273671Y-37900390D01*
X161351932Y-37858558D01*
X161351934Y-37858557D01*
X161521773Y-37807037D01*
X161587957Y-37800519D01*
X161654140Y-37794000D01*
X161992660Y-37794000D01*
X162058843Y-37800519D01*
X162058843Y-37800519D01*
G37*
G36*
X150174015Y-37354173D02*
G01*
X150277879Y-37385679D01*
X150305055Y-37400205D01*
X150373600Y-37436843D01*
X150457501Y-37505699D01*
X150526357Y-37589600D01*
X150562995Y-37658145D01*
X150577521Y-37685321D01*
X150609027Y-37789185D01*
X150617000Y-37870133D01*
X150617000Y-38524267D01*
X150609027Y-38605215D01*
X150577521Y-38709079D01*
X150526356Y-38804800D01*
X150457501Y-38888701D01*
X150388645Y-38945209D01*
X150373599Y-38957557D01*
X150321907Y-38985187D01*
X150277878Y-39008721D01*
X150174014Y-39040227D01*
X150066000Y-39050866D01*
X149957985Y-39040227D01*
X149854121Y-39008721D01*
X149810093Y-38985187D01*
X149758401Y-38957557D01*
X149745643Y-38947087D01*
X149674499Y-38888701D01*
X149605644Y-38804800D01*
X149554479Y-38709078D01*
X149522973Y-38605214D01*
X149515000Y-38524266D01*
X149515000Y-37870133D01*
X149522973Y-37789185D01*
X149554480Y-37685321D01*
X149554482Y-37685318D01*
X149605645Y-37589599D01*
X149674500Y-37505699D01*
X149758401Y-37436843D01*
X149826946Y-37400205D01*
X149854122Y-37385679D01*
X149957986Y-37354173D01*
X150066000Y-37343534D01*
X150174015Y-37354173D01*
X150174015Y-37354173D01*
G37*
G36*
X141634015Y-37354173D02*
G01*
X141737879Y-37385679D01*
X141765055Y-37400205D01*
X141833600Y-37436843D01*
X141917501Y-37505699D01*
X141986357Y-37589600D01*
X142022995Y-37658145D01*
X142037521Y-37685321D01*
X142069027Y-37789185D01*
X142077000Y-37870133D01*
X142077000Y-38524267D01*
X142069027Y-38605215D01*
X142037521Y-38709079D01*
X141986356Y-38804800D01*
X141917501Y-38888701D01*
X141848645Y-38945209D01*
X141833599Y-38957557D01*
X141781907Y-38985187D01*
X141737878Y-39008721D01*
X141634014Y-39040227D01*
X141526000Y-39050866D01*
X141417985Y-39040227D01*
X141314121Y-39008721D01*
X141270093Y-38985187D01*
X141218401Y-38957557D01*
X141205643Y-38947087D01*
X141134499Y-38888701D01*
X141065644Y-38804800D01*
X141014479Y-38709078D01*
X140982973Y-38605214D01*
X140975000Y-38524266D01*
X140975000Y-37870133D01*
X140982973Y-37789185D01*
X141014480Y-37685321D01*
X141014482Y-37685318D01*
X141065645Y-37589599D01*
X141134500Y-37505699D01*
X141218401Y-37436843D01*
X141286946Y-37400205D01*
X141314122Y-37385679D01*
X141417986Y-37354173D01*
X141526000Y-37343534D01*
X141634015Y-37354173D01*
X141634015Y-37354173D01*
G37*
G36*
X162707000Y-35297989D02*
G01*
X162740052Y-35308015D01*
X162770503Y-35324292D01*
X162797199Y-35346201D01*
X162819108Y-35372897D01*
X162835385Y-35403348D01*
X162845411Y-35436400D01*
X162849400Y-35476903D01*
X162849400Y-36913097D01*
X162845411Y-36953600D01*
X162835385Y-36986652D01*
X162819108Y-37017103D01*
X162797199Y-37043799D01*
X162770503Y-37065708D01*
X162740052Y-37081985D01*
X162707000Y-37092011D01*
X162666497Y-37096000D01*
X160980303Y-37096000D01*
X160939800Y-37092011D01*
X160906748Y-37081985D01*
X160876297Y-37065708D01*
X160849601Y-37043799D01*
X160827692Y-37017103D01*
X160811415Y-36986652D01*
X160801389Y-36953600D01*
X160797400Y-36913097D01*
X160797400Y-35476903D01*
X160801389Y-35436400D01*
X160811415Y-35403348D01*
X160827692Y-35372897D01*
X160849601Y-35346201D01*
X160876297Y-35324292D01*
X160906748Y-35308015D01*
X160939800Y-35297989D01*
X160980303Y-35294000D01*
X162666497Y-35294000D01*
X162707000Y-35297989D01*
X162707000Y-35297989D01*
G37*
G36*
X126958800Y-37068200D02*
G01*
X124856800Y-37068200D01*
X124856800Y-34966200D01*
X126958800Y-34966200D01*
X126958800Y-37068200D01*
X126958800Y-37068200D01*
G37*
G36*
X153994560Y-36321440D02*
G01*
X151892560Y-36321440D01*
X151892560Y-34219440D01*
X153994560Y-34219440D01*
X153994560Y-36321440D01*
X153994560Y-36321440D01*
G37*
M02*
